<svg width="239" height="65" viewBox="0 0 239 65" fill="none" xmlns="http://www.w3.org/2000/svg">
<mask id="mask0_4488_152295" style="mask-type:luminance" maskUnits="userSpaceOnUse" x="0" y="0" width="67" height="65">
<path d="M66.9491 0.238281H0.552979V64.4106H66.9491V0.238281Z" fill="white"/>
</mask>
<g mask="url(#mask0_4488_152295)">
<path d="M66.0755 32.3244C66.0755 50.0354 51.3826 64.4106 33.2746 64.4106C15.1665 64.4106 0.473633 50.0354 0.473633 32.3244C0.473633 14.6135 15.1665 0.238281 33.2746 0.238281C51.3826 0.238281 66.0755 14.6135 66.0755 32.3244Z" fill="#002570"/>
</g>
<path d="M57.101 32.2424C57.101 19.3762 46.4586 8.972 33.2747 8.89258L54.9566 41.8524C56.3862 38.9138 57.101 35.7369 57.101 32.2424Z" fill="#DF2638"/>
<path d="M18.8201 50.9066C22.7911 53.8452 27.7947 55.5925 33.1953 55.5925C38.5165 55.5925 43.5201 53.8452 47.4911 50.986L33.1953 29.7012" fill="#DF2638"/>
<path d="M33.1953 8.89258C20.0114 8.89258 9.28955 19.3762 9.28955 32.2424C9.28955 35.8164 10.0838 39.152 11.5133 42.1701L33.1953 8.89258C33.2747 8.89258 33.2747 8.89258 33.1953 8.89258Z" fill="#DF2638"/>
<path d="M55.0362 41.8524L33.3542 8.89258H33.2748L11.5928 42.1701C13.2606 45.6646 15.7227 48.6826 18.8201 50.9064L33.1953 29.7009L47.4911 50.9858C50.7474 48.6826 53.3683 45.5057 55.0362 41.8524Z" fill="white"/>
<path d="M98.6386 37.4842L97.6062 25.571H97.5267L91.8878 37.4842H98.6386ZM109.678 49.7944H99.83L99.3534 44.4732H88.711L86.1695 49.7944H75.2888L93.7145 17.1523H104.436" fill="#002570"/>
<path d="M127.707 44.1555C128.977 44.1555 130.169 43.3613 131.122 41.6935C132.075 40.0256 132.551 37.9607 132.551 35.4986C132.551 32.7983 131.519 31.5276 129.374 31.5276C127.865 31.5276 126.595 32.4012 125.642 34.2279C124.688 35.9752 124.212 37.9607 124.212 40.1051C124.212 41.4552 124.53 42.4877 125.244 43.2025C125.959 43.8379 126.753 44.1555 127.707 44.1555ZM126.595 27.7948C127.627 27.0006 128.66 26.4446 129.533 26.0475C130.486 25.7298 131.678 25.571 133.107 25.571C135.807 25.571 137.872 26.524 139.302 28.3507C140.652 30.1774 141.367 32.56 141.367 35.4986C141.367 39.2314 140.334 42.6465 138.27 45.744C136.205 48.8414 133.425 50.3504 130.01 50.3504C126.515 50.3504 123.894 48.8414 122.147 45.9028L121.273 49.7944H112.855L119.764 17.1523H128.818" fill="#002570"/>
<path d="M178.695 26.127L177.345 32.6395H172.58L170.832 40.9787C170.673 41.2964 170.673 41.6935 170.673 42.0906C170.673 43.1231 171.388 43.679 172.818 43.679C173.294 43.679 174.168 43.5202 175.598 43.2819L174.247 49.7945C171.547 50.1916 169.482 50.3504 168.211 50.3504C165.67 50.3504 163.843 49.715 162.811 48.5237C161.778 47.3324 161.222 45.9823 161.222 44.5527C161.222 44.0761 161.461 42.8054 161.858 40.7405L163.526 32.6395H160.269L161.619 26.127H164.955L165.749 22.4736L175.915 17.3906L174.009 26.127" fill="#002570"/>
<path d="M196.882 39.152C192.753 39.8668 190.29 40.5022 189.496 40.9787C188.781 41.5346 188.384 42.17 188.384 42.8848C188.384 43.5996 188.623 44.2349 189.179 44.7115C189.735 45.188 190.37 45.3468 191.164 45.3468C192.276 45.3468 193.467 44.8703 194.579 43.9967C195.771 43.0436 196.485 41.4552 196.882 39.152ZM182.19 32.6395C182.745 30.4157 184.016 28.6684 185.922 27.4771C187.908 26.2858 190.926 25.6504 194.976 25.6504C199.583 25.6504 202.76 26.2063 204.348 27.3977C205.936 28.589 206.81 30.2568 206.81 32.4806C206.81 33.9896 206.413 36.3723 205.619 39.7874C204.825 43.0436 204.507 45.2674 204.507 46.5382C204.507 47.5706 204.666 48.6825 205.063 49.7944H196.247C196.009 48.8414 195.929 47.9677 195.929 47.0941C193.547 49.2385 190.926 50.3504 187.987 50.3504C184.969 50.3504 182.825 49.6356 181.554 48.2854C180.283 46.8558 179.569 45.2674 179.569 43.4407C179.569 41.3758 180.125 39.7874 181.316 38.6755C182.507 37.5636 183.937 36.8488 185.605 36.4517C187.272 36.0546 189.655 35.7369 192.594 35.4192C195.215 35.1015 196.962 34.8632 197.835 34.625C197.994 33.9102 198.074 33.4337 198.074 33.0366C198.074 32.4806 197.756 32.0041 197.2 31.607C196.565 31.2893 195.771 31.051 194.817 31.051C193.785 31.051 192.911 31.2099 192.276 31.5276C191.641 31.8452 191.085 32.56 190.608 33.5925" fill="#002570"/>
<mask id="mask1_4488_152295" style="mask-type:luminance" maskUnits="userSpaceOnUse" x="209" y="16" width="30" height="35">
<path d="M238.341 16.1982H209.511V50.5876H238.341V16.1982Z" fill="white"/>
</mask>
<g mask="url(#mask1_4488_152295)">
<path d="M224.68 44.1546C225.951 44.1546 227.142 43.3604 228.095 41.6925C229.048 40.0247 229.525 37.9597 229.525 35.4977C229.525 32.7973 228.492 31.5266 226.348 31.5266C224.839 31.5266 223.568 32.4002 222.615 34.2269C221.662 35.9742 221.186 37.9597 221.186 40.1041C221.186 41.4542 221.503 42.4867 222.218 43.2015C222.933 43.9163 223.727 44.1546 224.68 44.1546ZM223.568 27.7938C224.601 26.9996 225.633 26.4436 226.507 26.0465C227.46 25.7289 228.651 25.57 230.081 25.57C232.781 25.57 234.846 26.5231 236.276 28.3497C237.705 30.1764 238.341 32.5591 238.341 35.4977C238.341 39.2304 237.308 42.6456 235.243 45.743C233.178 48.8404 230.398 50.3494 226.983 50.3494C223.489 50.3494 220.868 48.8404 219.121 45.9018L218.247 49.7935H209.828L216.738 17.1514H225.792" fill="#002570"/>
</g>
<path d="M143.511 49.7951H152.645L157.728 26.207H148.594L143.511 49.7951Z" fill="#002570"/>
<path d="M156.378 22.7118C156.457 22.3147 156.616 21.9175 156.695 21.5204C157.728 21.2822 158.601 20.8056 159.237 20.2497C158.601 21.3616 157.648 22.2352 156.378 22.7118ZM154.392 23.1089C154.074 23.1089 153.836 23.1089 153.598 23.0294C153.439 22.7118 153.36 22.2352 153.201 21.7587C153.598 21.8381 153.995 21.8381 154.392 21.8381C154.869 21.8381 155.345 21.8381 155.822 21.7587C155.742 22.2352 155.583 22.7118 155.425 23.0294C155.107 23.0294 154.71 23.1089 154.392 23.1089ZM149.547 20.2497C150.262 20.8056 151.136 21.2822 152.248 21.5999C152.327 22.0764 152.486 22.4735 152.565 22.7912C151.295 22.3941 150.183 21.441 149.547 20.2497ZM152.565 12.943C152.407 13.4195 152.327 13.896 152.248 14.3725C151.056 14.6902 150.024 15.1667 149.389 15.8815C149.945 14.5314 151.136 13.4195 152.565 12.943ZM154.392 12.6253C154.789 12.6253 155.107 12.6253 155.425 12.7047C155.583 13.1018 155.742 13.5783 155.822 14.2137C155.345 14.1343 154.869 14.1343 154.313 14.1343C153.836 14.1343 153.439 14.1343 153.042 14.2137C153.121 13.6577 153.28 13.1018 153.439 12.7047C153.836 12.7047 154.074 12.6253 154.392 12.6253ZM159.396 15.8815C158.76 15.2462 157.807 14.7696 156.775 14.452C156.695 13.9754 156.536 13.4989 156.457 13.0224C157.728 13.5783 158.84 14.5314 159.396 15.8815ZM157.013 18.3436H159.634C159.237 19.2966 158.204 20.0909 156.854 20.5674C156.934 19.932 157.013 19.1378 157.013 18.3436ZM152.804 18.3436H156.139C156.139 19.2172 156.06 20.0114 155.901 20.8056C155.425 20.8851 154.869 20.9645 154.313 20.9645C153.836 20.9645 153.36 20.9645 152.963 20.8851C152.883 20.0909 152.804 19.2966 152.804 18.3436ZM151.93 18.3436C151.93 19.1378 152.009 19.932 152.089 20.6468C150.58 20.2497 149.468 19.3761 149.071 18.3436H151.93ZM151.93 17.5494H149.071C149.468 16.5169 150.58 15.7227 152.089 15.2462C152.009 15.961 151.93 16.7552 151.93 17.5494ZM156.139 17.5494H152.804C152.804 16.6757 152.883 15.8021 152.963 15.0873C153.439 15.0079 153.916 15.0079 154.392 15.0079C154.948 15.0079 155.504 15.0873 155.981 15.1667C156.06 15.8815 156.139 16.6757 156.139 17.5494ZM157.013 17.5494C157.013 16.7552 156.934 16.0404 156.854 15.3256C158.204 15.8021 159.237 16.5963 159.634 17.5494H157.013ZM156.06 11.9899C155.742 11.9105 155.345 11.8311 154.948 11.8311C154.789 11.8311 154.551 11.8311 154.392 11.8311C154.313 11.8311 154.154 11.8311 154.074 11.8311C153.677 11.8311 153.36 11.9105 153.042 11.9899C150.262 12.6253 148.197 15.0079 148.197 17.8671C148.197 20.7262 150.262 23.1089 153.042 23.7442C153.36 23.8237 153.757 23.9031 154.074 23.9031C154.154 23.9031 154.313 23.9031 154.392 23.9031C154.551 23.9031 154.789 23.9031 154.948 23.9031C155.345 23.9031 155.663 23.8237 156.06 23.7442C158.76 23.0294 160.666 20.7262 160.666 17.9465C160.666 15.0079 158.681 12.7047 156.06 11.9899Z" fill="#DF2638"/>
</svg>
