<svg width="117" height="116" viewBox="0 0 117 116" fill="none" xmlns="http://www.w3.org/2000/svg">
<path fill-rule="evenodd" clip-rule="evenodd" d="M21.4862 0.00503163L95.0597 0.0485724C106.608 0.0485724 116.124 9.56404 116.08 21.1563V94.7294C116.08 106.323 106.565 115.794 94.9735 115.794L21.3561 115.751C9.7638 115.709 0.29187 106.237 0.29187 94.6436L0.378045 21.0692C0.378045 9.47787 9.85088 -0.0385091 21.4862 0.00503163Z" fill="#003399"/>
<path fill-rule="evenodd" clip-rule="evenodd" d="M99.7744 52.817H91.3833L87.9231 59.3912H93.8052L99.7744 52.817ZM105.354 63.5012H97.1792V81.148C97.1792 86.5552 93.5449 88.1118 90.8649 88.1118C88.3118 88.1118 85.4998 87.1598 85.5443 82.4447V63.5003H77.3695L77.326 83.6126C77.326 91.3973 81.7821 94.8579 87.924 94.8579C92.2051 94.9009 95.5369 93.0405 97.396 89.7545H97.4821V94.0369H105.354V63.5012H105.354ZM70.9667 71.5885C70.9667 64.0197 63.0097 62.679 58.5971 62.679C52.2388 62.679 45.621 64.0197 44.6259 73.3619H52.5413C52.8007 71.5889 53.5359 69.123 57.602 69.123C59.7214 69.123 63.0097 69.2972 63.0097 72.6707C63.0097 74.4 61.4086 74.9203 60.1106 75.0926L52.7581 76.1739C47.5241 76.9095 43.6317 79.9801 43.6317 85.9497C43.6317 92.264 48.4761 94.8588 53.1041 94.8588C58.7272 94.8588 61.3651 92.3076 63.182 90.448C63.3548 92.1352 63.4845 92.5674 63.9607 94.0383L71.0112 93.9948C71.0112 90.6208 70.9676 88.1553 70.9676 88.1127L70.9667 71.5885ZM36.1055 52.817H27.9308V63.4573H23.6919V69.2101H27.8872V87.7652C27.8872 91.7007 29.1417 94.3834 36.2353 94.3834H37.317C38.6141 94.3834 39.9113 94.2955 41.1667 94.2537V88.1539C40.6043 88.1975 39.9993 88.2837 39.4795 88.2837C36.1491 88.2837 36.062 87.5915 36.062 85.7742L36.1055 69.2092H41.2093V63.4563H36.1055V52.817ZM19.9292 52.7734H11.1054L11.0619 93.9938H19.8852L19.9292 52.7734Z" fill="#FFFF00"/>
<path fill-rule="evenodd" clip-rule="evenodd" d="M63.0095 83.0937V79.1582C62.1872 79.8068 60.8021 80.3252 57.4291 80.8014C54.3581 81.3198 51.8495 82.0986 51.8495 85.4299C51.8495 88.1975 54.0986 89.1059 55.6552 89.1059C59.2895 89.1068 63.0095 86.8141 63.0095 83.0937Z" fill="#003399"/>
</svg>
