<svg width="110" height="67" viewBox="0 0 110 67" fill="none" xmlns="http://www.w3.org/2000/svg">
<path fill-rule="evenodd" clip-rule="evenodd" d="M55.2654 58.6732C49.4756 63.5536 41.9652 66.4998 33.7583 66.4998C15.4467 66.4998 0.602173 51.8319 0.602173 33.7382C0.602173 15.6444 15.4467 0.976562 33.7583 0.976562C41.9652 0.976562 49.4756 3.92276 55.2654 8.80314C61.0552 3.92276 68.5656 0.976562 76.7724 0.976562C95.084 0.976562 109.929 15.6444 109.929 33.7382C109.929 51.8319 95.084 66.4998 76.7724 66.4998C68.5656 66.4998 61.0552 63.5536 55.2654 58.6732Z" fill="#ED0006"/>
<path fill-rule="evenodd" clip-rule="evenodd" d="M55.2653 58.6732C62.3941 52.6641 66.9144 43.7228 66.9144 33.7382C66.9144 23.7536 62.3941 14.8122 55.2653 8.80315C61.0551 3.92276 68.5655 0.976562 76.7723 0.976562C95.084 0.976562 109.928 15.6444 109.928 33.7382C109.928 51.8319 95.084 66.4998 76.7723 66.4998C68.5655 66.4998 61.0551 63.5536 55.2653 58.6732Z" fill="#F9A000"/>
<path fill-rule="evenodd" clip-rule="evenodd" d="M55.2654 58.6738C62.3942 52.6647 66.9145 43.7234 66.9145 33.7388C66.9145 23.7542 62.3942 14.8128 55.2654 8.80371C48.1365 14.8128 43.6162 23.7542 43.6162 33.7388C43.6162 43.7234 48.1365 52.6647 55.2654 58.6738Z" fill="#FF5E00"/>
</svg>
