<svg width="138" height="46" viewBox="0 0 138 46" fill="none" xmlns="http://www.w3.org/2000/svg">
<path fill-rule="evenodd" clip-rule="evenodd" d="M34.4504 45.0216H22.5887L13.6938 10.0892C13.2716 8.48226 12.3752 7.06168 11.0566 6.39214C7.76586 4.70956 4.13967 3.37048 0.183838 2.69512V1.35023H19.2921C21.9294 1.35023 23.9073 3.37048 24.2369 5.71678L28.8521 30.9147L40.708 1.35023H52.2401L34.4504 45.0216ZM58.8333 45.0216H47.6308L56.8553 1.35023H68.0578L58.8333 45.0216ZM82.5505 13.4483C82.8802 11.0961 84.8581 9.75124 87.1657 9.75124C90.7919 9.41356 94.7419 10.0889 98.0384 11.7657L100.016 2.36303C96.7198 1.01813 93.0936 0.342773 89.8029 0.342773C78.9301 0.342773 71.0185 6.3919 71.0185 14.7873C71.0185 21.1741 76.6226 24.5276 80.5784 26.5479C84.8581 28.5623 86.5064 29.9072 86.1767 31.9217C86.1767 34.9433 82.8802 36.2882 79.5894 36.2882C75.6336 36.2882 71.6778 35.281 68.0574 33.5984L66.0794 43.0069C70.0353 44.6837 74.315 45.359 78.2708 45.359C90.4622 45.6909 98.0384 39.6476 98.0384 30.5768C98.0384 19.1539 82.5505 18.4843 82.5505 13.4483V13.4483ZM137.244 45.0216L128.349 1.35023H118.795C116.817 1.35023 114.839 2.69512 114.18 4.70956L97.709 45.0216H109.241L111.543 38.6406H125.712L127.031 45.0216H137.244ZM120.443 13.1108L123.734 29.5698H114.51L120.443 13.1108Z" fill="#172B85"/>
</svg>
