<?xml version="1.0" encoding="UTF-8" standalone="no"?>
<!DOCTYPE svg PUBLIC "-//W3C//DTD SVG 1.1//EN" "http://www.w3.org/Graphics/SVG/1.1/DTD/svg11.dtd">
<svg width="100%" height="100%" viewBox="0 0 586 111" version="1.1" xmlns="http://www.w3.org/2000/svg" xmlns:xlink="http://www.w3.org/1999/xlink" xml:space="preserve" xmlns:serif="http://www.serif.com/" style="fill-rule:evenodd;clip-rule:evenodd;stroke-linejoin:round;stroke-miterlimit:2;">
    <g transform="matrix(1,0,0,1,-5996.68,-26762.2)">
        <g transform="matrix(8.33333,0,0,8.33333,0,0)">
            <g>
                <g transform="matrix(1,0,0,1,721.187,3214.02)">
                    <path d="M0,8.335C-0.004,8.479 0.021,8.618 0.079,8.75C0.159,8.931 0.292,9.06 0.476,9.135C0.62,9.194 0.772,9.207 0.926,9.194C1.024,9.185 1.118,9.157 1.206,9.109C1.352,9.03 1.454,8.91 1.533,8.767C1.56,8.718 1.582,8.666 1.602,8.613C1.607,8.599 1.611,8.581 1.589,8.579C1.553,8.575 1.516,8.57 1.481,8.582C1.455,8.592 1.452,8.622 1.44,8.644C1.363,8.787 1.268,8.913 1.119,8.991C0.929,9.091 0.621,9.056 0.51,8.775C0.455,8.636 0.448,8.491 0.46,8.345C0.478,8.132 0.529,7.926 0.607,7.727C0.658,7.599 0.716,7.476 0.808,7.373C0.887,7.284 0.984,7.226 1.103,7.213C1.232,7.199 1.339,7.243 1.419,7.346C1.467,7.408 1.497,7.477 1.518,7.552C1.548,7.661 1.563,7.772 1.563,7.886C1.563,7.933 1.572,7.938 1.635,7.942C1.679,7.944 1.68,7.943 1.689,7.894C1.717,7.738 1.745,7.583 1.772,7.427C1.785,7.352 1.798,7.276 1.81,7.201C1.816,7.161 1.81,7.158 1.77,7.156C1.734,7.154 1.707,7.165 1.685,7.194C1.657,7.23 1.628,7.264 1.598,7.298C1.575,7.323 1.568,7.322 1.546,7.296C1.543,7.292 1.54,7.287 1.536,7.283C1.482,7.208 1.41,7.158 1.325,7.125C1.173,7.066 1.018,7.077 0.864,7.117C0.624,7.178 0.434,7.317 0.283,7.51C0.094,7.751 0.004,8.029 0,8.335M6.594,9.154L8.951,9.154C9.018,9.154 9.018,9.154 9.034,9.088C9.08,8.897 9.126,8.706 9.171,8.515C9.186,8.453 9.182,8.45 9.12,8.434C9.09,8.427 9.071,8.432 9.058,8.46C9.049,8.478 9.039,8.496 9.03,8.513C8.959,8.642 8.871,8.757 8.762,8.855C8.598,9.004 8.404,9.036 8.192,9.009C8.185,9.008 8.178,9.006 8.171,9.004C8.114,8.987 8.095,8.961 8.094,8.901C8.094,8.851 8.107,8.803 8.118,8.756C8.214,8.358 8.31,7.96 8.406,7.563C8.42,7.503 8.435,7.442 8.452,7.383C8.469,7.32 8.513,7.286 8.577,7.277C8.613,7.272 8.649,7.268 8.685,7.266C8.713,7.265 8.73,7.255 8.736,7.227C8.738,7.217 8.741,7.206 8.744,7.195C8.76,7.128 8.76,7.128 8.693,7.128C8.422,7.128 8.151,7.127 7.88,7.128C7.789,7.128 7.795,7.114 7.771,7.217C7.761,7.26 7.764,7.265 7.808,7.266C7.845,7.267 7.881,7.267 7.917,7.274C7.998,7.288 8.02,7.314 8.01,7.397C8.005,7.44 7.996,7.483 7.986,7.525C7.892,7.931 7.792,8.335 7.691,8.739C7.676,8.799 7.661,8.859 7.643,8.918C7.624,8.981 7.579,9.013 7.513,9.014C7.455,9.015 7.397,9.016 7.338,9.014C7.225,9.011 7.179,8.973 7.155,8.86C7.138,8.776 7.123,8.692 7.108,8.608C7.016,8.127 6.924,7.647 6.834,7.167C6.816,7.075 6.82,7.085 6.728,7.083C6.693,7.082 6.672,7.095 6.656,7.127C6.6,7.235 6.541,7.342 6.484,7.449C6.258,7.867 6.033,8.284 5.806,8.701C5.762,8.783 5.713,8.862 5.645,8.927C5.605,8.965 5.56,9 5.506,9.009C5.461,9.016 5.444,9.038 5.439,9.079C5.438,9.089 5.434,9.1 5.432,9.111C5.427,9.146 5.43,9.151 5.468,9.154C5.481,9.155 5.493,9.154 5.506,9.154L6.035,9.154C6.117,9.154 6.117,9.154 6.134,9.073C6.145,9.023 6.141,9.018 6.088,9.015C6.083,9.015 6.077,9.015 6.072,9.014C5.927,9.008 5.878,8.93 5.932,8.795C5.965,8.713 6.01,8.639 6.051,8.561C6.062,8.54 6.078,8.529 6.103,8.529C6.279,8.529 6.456,8.53 6.632,8.529C6.661,8.529 6.676,8.541 6.681,8.569C6.691,8.632 6.703,8.694 6.714,8.757C6.722,8.807 6.733,8.857 6.734,8.908C6.735,8.974 6.706,9.006 6.642,9.014C6.607,9.018 6.573,9.02 6.539,9.022C6.522,9.023 6.503,9.022 6.496,9.04C6.483,9.072 6.466,9.107 6.48,9.139C6.492,9.166 6.526,9.151 6.55,9.154C6.565,9.155 6.579,9.154 6.594,9.154ZM4.932,8.121C4.946,8.102 4.968,8.107 4.987,8.104C5.1,8.088 5.207,8.057 5.306,7.999C5.391,7.949 5.458,7.881 5.495,7.788C5.544,7.665 5.534,7.542 5.493,7.42C5.478,7.374 5.452,7.336 5.42,7.3C5.337,7.208 5.228,7.17 5.112,7.149C5.008,7.13 4.903,7.127 4.797,7.127C4.555,7.128 4.314,7.127 4.072,7.128C3.978,7.128 3.985,7.111 3.959,7.225C3.952,7.257 3.958,7.264 3.992,7.265C4.03,7.267 4.068,7.268 4.106,7.274C4.187,7.287 4.213,7.32 4.2,7.401C4.191,7.451 4.18,7.501 4.169,7.551C4.07,7.981 3.962,8.41 3.855,8.838C3.847,8.868 3.839,8.898 3.828,8.927C3.807,8.981 3.768,9.012 3.708,9.014C3.65,9.015 3.592,9.016 3.534,9.013C3.438,9.008 3.394,8.97 3.369,8.876C3.365,8.858 3.361,8.841 3.358,8.823C3.343,8.746 3.328,8.669 3.314,8.592C3.225,8.119 3.136,7.646 3.047,7.173C3.029,7.076 3.04,7.084 2.936,7.083C2.905,7.083 2.885,7.094 2.871,7.122C2.84,7.184 2.806,7.244 2.773,7.305C2.543,7.73 2.313,8.155 2.083,8.58C2.027,8.684 1.974,8.79 1.898,8.882C1.85,8.941 1.794,8.992 1.719,9.008C1.674,9.018 1.657,9.039 1.652,9.079C1.651,9.09 1.647,9.1 1.646,9.111C1.64,9.144 1.644,9.15 1.676,9.153C1.69,9.155 1.705,9.154 1.72,9.154L2.243,9.154C2.333,9.154 2.333,9.154 2.349,9.062C2.355,9.023 2.352,9.018 2.312,9.016C2.276,9.014 2.239,9.013 2.205,9.001C2.147,8.98 2.124,8.946 2.124,8.885C2.124,8.854 2.13,8.823 2.144,8.795C2.181,8.718 2.22,8.642 2.258,8.566C2.271,8.541 2.29,8.529 2.319,8.529C2.494,8.53 2.668,8.529 2.843,8.53C2.881,8.53 2.886,8.535 2.893,8.572C2.904,8.63 2.915,8.687 2.924,8.744C2.933,8.798 2.946,8.851 2.947,8.906C2.948,8.975 2.919,9.007 2.851,9.014C2.824,9.017 2.797,9.02 2.77,9.022C2.709,9.026 2.709,9.026 2.694,9.085C2.677,9.154 2.678,9.154 2.75,9.154L4.075,9.154C4.304,9.154 4.533,9.155 4.762,9.152C4.889,9.151 5.012,9.128 5.129,9.077C5.289,9.008 5.397,8.894 5.426,8.715C5.434,8.665 5.435,8.614 5.431,8.563C5.419,8.425 5.359,8.314 5.239,8.238C5.159,8.188 5.07,8.163 4.979,8.142C4.963,8.138 4.943,8.141 4.932,8.121M4.372,-0.793C4.352,-0.794 4.345,-0.784 4.338,-0.777C4.268,-0.71 4.199,-0.643 4.13,-0.576C3.942,-0.394 3.759,-0.206 3.57,-0.025C3.361,0.175 3.16,0.382 2.951,0.582C2.761,0.763 2.579,0.951 2.39,1.133C2.14,1.374 1.894,1.619 1.647,1.863C1.514,1.993 1.385,2.126 1.251,2.254C1.149,2.35 1.051,2.45 0.95,2.547C0.921,2.576 0.922,2.577 0.952,2.606C1.153,2.802 1.35,3.001 1.552,3.195C1.764,3.399 1.97,3.61 2.182,3.814C2.395,4.02 2.603,4.232 2.816,4.437C3.006,4.62 3.191,4.809 3.38,4.992C3.647,5.25 3.91,5.512 4.174,5.772C4.229,5.825 4.283,5.88 4.337,5.933C4.345,5.941 4.352,5.956 4.368,5.949C4.374,5.933 4.372,5.916 4.372,5.9C4.371,5.7 4.369,5.5 4.367,5.3C4.362,4.975 4.364,4.649 4.366,4.324C4.366,4.272 4.351,4.235 4.314,4.199C4.195,4.087 4.079,3.972 3.962,3.857C3.784,3.68 3.607,3.502 3.428,3.326C3.19,3.091 2.952,2.856 2.714,2.621C2.67,2.578 2.67,2.578 2.712,2.536C2.716,2.532 2.72,2.528 2.724,2.524C3.052,2.201 3.375,1.874 3.705,1.553C3.913,1.352 4.115,1.145 4.322,0.943C4.359,0.907 4.374,0.87 4.373,0.819C4.372,0.3 4.372,-0.218 4.372,-0.736L4.372,-0.793ZM4.783,5.952C4.807,5.95 4.814,5.936 4.824,5.926C4.947,5.807 5.067,5.686 5.19,5.567C5.414,5.351 5.632,5.129 5.856,4.914C6.067,4.71 6.271,4.501 6.482,4.298C6.716,4.072 6.944,3.839 7.178,3.613C7.334,3.463 7.484,3.307 7.641,3.157C7.828,2.978 8.011,2.793 8.196,2.61C8.23,2.577 8.23,2.573 8.196,2.54C8.131,2.476 8.065,2.414 8,2.351C7.784,2.139 7.572,1.925 7.354,1.715C7.14,1.508 6.931,1.295 6.716,1.089C6.523,0.903 6.337,0.712 6.144,0.527C5.921,0.312 5.705,0.092 5.483,-0.123C5.262,-0.337 5.044,-0.554 4.825,-0.769C4.814,-0.779 4.806,-0.797 4.782,-0.791L4.782,-0.726C4.782,-0.215 4.783,0.296 4.781,0.807C4.78,0.869 4.8,0.911 4.844,0.954C5.109,1.213 5.372,1.474 5.636,1.735C5.888,1.985 6.139,2.235 6.391,2.485C6.414,2.508 6.439,2.529 6.462,2.552C6.477,2.567 6.479,2.584 6.462,2.6C6.452,2.61 6.442,2.62 6.431,2.631C6.285,2.773 6.141,2.917 5.996,3.059C5.606,3.441 5.22,3.826 4.831,4.209C4.795,4.243 4.782,4.279 4.782,4.328C4.783,4.85 4.783,5.372 4.783,5.894L4.783,5.952ZM-1.586,4.161L-1.586,-2.309C-1.586,-2.332 -1.586,-2.356 -1.585,-2.38C-1.584,-2.401 -1.573,-2.413 -1.551,-2.414C-1.529,-2.415 -1.507,-2.415 -1.486,-2.415L10.642,-2.415C10.666,-2.415 10.689,-2.415 10.713,-2.414C10.735,-2.414 10.746,-2.402 10.748,-2.38C10.748,-2.371 10.749,-2.362 10.749,-2.353L10.749,10.691C10.747,10.743 10.742,10.748 10.693,10.749C10.684,10.75 10.674,10.749 10.665,10.749C6.61,10.749 2.555,10.749 -1.5,10.748C-1.586,10.748 -1.586,10.748 -1.586,10.659L-1.586,4.161" style="fill:rgb(254,254,254);fill-rule:nonzero;"/>
                </g>
                <g transform="matrix(1,0,0,1,725.778,3223.04)">
                    <path d="M0,-0.827C0.055,-0.828 0.109,-0.829 0.163,-0.818C0.292,-0.79 0.372,-0.706 0.384,-0.575C0.393,-0.469 0.382,-0.364 0.343,-0.264C0.281,-0.104 0.159,-0.025 -0.005,-0.006C-0.071,0.002 -0.139,-0.002 -0.206,-0.006C-0.221,-0.006 -0.235,-0.009 -0.249,-0.013C-0.307,-0.029 -0.329,-0.063 -0.32,-0.123C-0.307,-0.209 -0.284,-0.293 -0.264,-0.378C-0.234,-0.507 -0.202,-0.636 -0.171,-0.765C-0.157,-0.821 -0.152,-0.825 -0.093,-0.827C-0.062,-0.828 -0.031,-0.827 0,-0.827" style="fill:rgb(254,254,254);fill-rule:nonzero;"/>
                </g>
                <g transform="matrix(1,0,0,1,725.797,3221.28)">
                    <path d="M0,0.799C-0.033,0.799 -0.066,0.801 -0.098,0.798C-0.131,0.796 -0.136,0.788 -0.131,0.756C-0.128,0.733 -0.122,0.71 -0.117,0.687C-0.077,0.522 -0.038,0.358 0.002,0.194C0.009,0.162 0.018,0.13 0.029,0.099C0.047,0.05 0.083,0.017 0.137,0.009C0.226,-0.004 0.311,0.012 0.386,0.064C0.438,0.1 0.468,0.153 0.474,0.215C0.484,0.334 0.474,0.451 0.426,0.562C0.358,0.717 0.235,0.789 0.071,0.801C0.047,0.803 0.024,0.801 0,0.801L0,0.799Z" style="fill:rgb(254,254,254);fill-rule:nonzero;"/>
                </g>
                <g transform="matrix(1,0,0,1,723.794,3221.72)">
                    <path d="M0,0.674C-0.064,0.674 -0.127,0.675 -0.191,0.674C-0.235,0.673 -0.239,0.666 -0.219,0.626C-0.141,0.478 -0.063,0.331 0.014,0.183C0.038,0.136 0.062,0.089 0.086,0.042C0.092,0.031 0.098,0.019 0.106,0.01C0.115,-0.001 0.126,0 0.131,0.014C0.135,0.026 0.138,0.038 0.14,0.051C0.173,0.237 0.206,0.423 0.238,0.609C0.24,0.616 0.241,0.623 0.241,0.63C0.243,0.664 0.237,0.672 0.202,0.673C0.147,0.675 0.093,0.674 0.038,0.674L0,0.674Z" style="fill:rgb(254,254,254);fill-rule:nonzero;"/>
                </g>
                <g transform="matrix(1,0,0,1,727.706,3222.39)">
                    <path d="M0,-0.674C0.023,-0.613 0.028,-0.551 0.039,-0.491C0.065,-0.35 0.089,-0.209 0.114,-0.067C0.115,-0.062 0.116,-0.057 0.116,-0.051C0.122,-0.008 0.118,-0.002 0.076,-0.001C-0.055,0 -0.185,0 -0.316,-0.001C-0.359,-0.001 -0.364,-0.009 -0.343,-0.05C-0.291,-0.15 -0.239,-0.25 -0.186,-0.35C-0.137,-0.444 -0.086,-0.539 -0.036,-0.633C-0.028,-0.647 -0.025,-0.665 0,-0.674" style="fill:rgb(254,254,254);fill-rule:nonzero;"/>
                </g>
            </g>
            <g transform="matrix(1,0,0,1,743.226,3215.36)">
                <path d="M0,5.294C-0.005,5.349 -0.001,5.385 -0.011,5.415C-0.417,6.594 -1.038,7.627 -2.066,8.373C-2.792,8.901 -3.616,9.167 -4.51,9.211C-5.616,9.266 -6.681,9.101 -7.651,8.535C-8.923,7.793 -9.635,6.649 -9.9,5.228C-10.253,3.338 -9.899,1.55 -9.002,-0.132C-8.345,-1.362 -7.429,-2.362 -6.206,-3.056C-5.128,-3.668 -3.97,-3.972 -2.725,-3.851C-1.753,-3.756 -0.946,-3.346 -0.382,-2.519C-0.364,-2.492 -0.34,-2.469 -0.307,-2.43C-0.077,-2.616 0.108,-2.845 0.266,-3.08C0.516,-3.453 0.837,-3.534 1.26,-3.425C1.25,-3.105 1.169,-2.792 1.114,-2.477C0.898,-1.231 0.675,0.014 0.453,1.259C0.41,1.504 0.406,1.506 0.163,1.477C-0.003,1.458 -0.202,1.503 -0.324,1.392C-0.452,1.274 -0.372,1.073 -0.383,0.911C-0.422,0.328 -0.486,-0.249 -0.629,-0.816C-0.717,-1.165 -0.843,-1.498 -1.01,-1.818C-1.705,-3.149 -3.016,-3.238 -3.991,-2.793C-4.493,-2.563 -4.879,-2.193 -5.204,-1.757C-5.712,-1.076 -6.046,-0.306 -6.331,0.486C-6.765,1.693 -7.051,2.934 -7.116,4.218C-7.155,4.973 -7.102,5.717 -6.843,6.437C-6.25,8.093 -4.555,8.486 -3.303,7.958C-2.555,7.642 -2.008,7.09 -1.552,6.437C-1.346,6.142 -1.171,5.828 -1.035,5.497C-0.968,5.334 -0.875,5.282 -0.707,5.291C-0.474,5.303 -0.24,5.294 0,5.294" style="fill:rgb(254,254,254);fill-rule:nonzero;"/>
            </g>
            <g transform="matrix(1,0,0,1,762.126,3218.21)">
                <path d="M0,-0.708C-0.156,-0.697 -0.314,-0.706 -0.47,-0.706L-0.47,-0.717C-0.672,-0.717 -0.874,-0.71 -1.075,-0.719C-1.272,-0.728 -1.282,-0.74 -1.235,-0.943C-1.095,-1.554 -0.95,-2.163 -0.804,-2.773C-0.661,-3.371 -0.514,-3.969 -0.368,-4.567C-0.341,-4.676 -0.317,-4.785 -0.282,-4.891C-0.139,-5.321 0.08,-5.49 0.527,-5.516C0.752,-5.529 0.976,-5.515 1.197,-5.473C1.972,-5.325 2.418,-4.822 2.442,-4.031C2.461,-3.435 2.389,-2.845 2.174,-2.282C1.792,-1.287 1.048,-0.785 0,-0.708M1.701,1.477C1.828,2.243 1.753,3 1.439,3.716C1.081,4.534 0.423,4.973 -0.44,5.122C-0.952,5.211 -1.468,5.194 -1.981,5.126C-2.08,5.114 -2.178,5.083 -2.272,5.047C-2.435,4.986 -2.519,4.864 -2.522,4.686C-2.525,4.54 -2.515,4.395 -2.481,4.253C-2.176,2.968 -1.868,1.683 -1.564,0.398C-1.528,0.25 -1.464,0.165 -1.291,0.175C-1.068,0.189 -0.843,0.179 -0.619,0.179C-0.192,0.147 0.231,0.16 0.645,0.29C1.237,0.476 1.602,0.874 1.701,1.477M-11.561,1.195C-12.389,1.198 -13.216,1.196 -14.043,1.195C-14.096,1.195 -14.155,1.206 -14.216,1.126C-13.52,-0.202 -12.817,-1.543 -12.101,-2.909C-12.023,-2.822 -12.019,-2.753 -12.007,-2.688C-11.794,-1.478 -11.582,-0.268 -11.371,0.942C-11.329,1.187 -11.333,1.195 -11.561,1.195M4.074,-1.177C4.625,-1.566 5.027,-2.071 5.154,-2.742C5.447,-4.297 4.913,-5.77 3.062,-6.245C3.008,-6.259 2.954,-6.275 2.899,-6.287C2.294,-6.424 1.679,-6.453 1.062,-6.453L-4.015,-6.453C-4.083,-6.453 -4.15,-6.451 -4.217,-6.453C-4.318,-6.454 -4.383,-6.422 -4.407,-6.31C-4.458,-6.061 -4.521,-5.814 -4.578,-5.574C-4.454,-5.49 -4.338,-5.526 -4.229,-5.52C-3.961,-5.504 -3.69,-5.521 -3.426,-5.464C-3.107,-5.394 -2.993,-5.235 -3.02,-4.911C-3.031,-4.777 -3.058,-4.645 -3.086,-4.513C-3.721,-1.535 -4.497,1.41 -5.229,4.365C-5.261,4.494 -5.312,4.62 -5.365,4.743C-5.457,4.953 -5.621,5.087 -5.846,5.124C-6.37,5.211 -6.895,5.204 -7.416,5.093C-7.716,5.03 -7.914,4.842 -8.003,4.551C-8.065,4.349 -8.115,4.141 -8.155,3.933C-8.421,2.536 -8.685,1.139 -8.947,-0.258C-9.319,-2.239 -9.682,-4.221 -10.065,-6.199C-10.187,-6.831 -10.026,-6.707 -10.699,-6.74C-10.987,-6.754 -11.13,-6.655 -11.266,-6.402C-12.989,-3.196 -14.725,0.002 -16.459,3.202C-16.705,3.656 -16.969,4.098 -17.323,4.478C-17.641,4.821 -18,5.099 -18.484,5.167C-18.561,5.177 -18.642,5.181 -18.663,5.283C-18.718,5.553 -18.816,5.814 -18.834,6.115C-17.424,6.115 -16.035,6.115 -14.646,6.116C-14.538,6.117 -14.485,6.072 -14.464,5.966C-14.414,5.717 -14.356,5.47 -14.296,5.201C-14.553,5.177 -14.786,5.165 -15.017,5.132C-15.669,5.036 -15.898,4.659 -15.692,4.03C-15.661,3.934 -15.62,3.841 -15.576,3.751C-15.454,3.499 -15.332,3.247 -15.203,2.999C-15.073,2.752 -14.987,2.436 -14.783,2.286C-14.574,2.133 -14.241,2.245 -13.963,2.24C-13.582,2.232 -13.201,2.238 -12.82,2.238C-12.36,2.238 -11.901,2.237 -11.441,2.238C-11.075,2.239 -11.146,2.22 -11.077,2.529C-11.014,2.813 -10.966,3.1 -10.924,3.388C-10.864,3.797 -10.751,4.2 -10.765,4.619C-10.776,4.924 -10.896,5.075 -11.191,5.135C-11.344,5.166 -11.503,5.167 -11.659,5.182C-11.836,5.199 -12.045,5.114 -12.182,5.222C-12.319,5.331 -12.295,5.552 -12.338,5.724C-12.438,6.123 -12.503,6.117 -12.028,6.117C-8.15,6.116 -4.271,6.117 -0.393,6.115C-0.013,6.114 0.369,6.107 0.749,6.078C1.456,6.024 2.148,5.894 2.799,5.599C3.94,5.081 4.595,4.217 4.649,2.945C4.706,1.616 4.192,0.646 2.894,0.106C2.698,0.024 2.495,-0.042 2.29,-0.1C2.052,-0.167 1.809,-0.217 1.544,-0.28C1.675,-0.37 1.803,-0.358 1.921,-0.377C2.692,-0.501 3.428,-0.721 4.074,-1.177" style="fill:rgb(254,254,254);fill-rule:nonzero;"/>
            </g>
            <g transform="matrix(1,0,0,1,771.232,3216.43)">
                <path d="M0,2.955C0.716,1.589 1.419,0.247 2.122,-1.094C2.146,-1.093 2.17,-1.091 2.194,-1.09C2.444,0.248 2.673,1.59 2.911,2.955L0,2.955ZM18.464,3.423C18.343,3.407 18.221,3.377 18.107,3.334C17.97,3.281 17.904,3.331 17.845,3.451C17.731,3.682 17.612,3.911 17.481,4.132C16.998,4.95 16.416,5.681 15.638,6.243C14.667,6.944 13.581,7.079 12.434,6.881C12.046,6.814 11.93,6.642 11.936,6.247C11.938,6.055 11.981,5.869 12.026,5.684C12.451,3.899 12.878,2.114 13.307,0.329C13.56,-0.727 13.814,-1.783 14.077,-2.836C14.242,-3.501 14.465,-3.677 15.153,-3.721C15.332,-3.733 15.512,-3.738 15.691,-3.739C15.782,-3.74 15.842,-3.772 15.862,-3.863C15.917,-4.121 16.008,-4.373 16.026,-4.638C15.89,-4.7 15.765,-4.672 15.645,-4.672C14.031,-4.674 12.417,-4.677 10.804,-4.67C10.539,-4.669 10.205,-4.792 10.027,-4.61C9.847,-4.428 9.86,-4.091 9.809,-3.817C9.807,-3.808 9.814,-3.797 9.825,-3.754C10.152,-3.739 10.466,-3.735 10.777,-3.709C11.283,-3.666 11.432,-3.474 11.34,-2.981C11.26,-2.552 11.169,-2.125 11.071,-1.699C10.486,0.853 9.836,3.391 9.211,5.934C9.163,6.129 9.11,6.324 9.025,6.508C8.923,6.729 8.755,6.868 8.518,6.905C7.971,6.988 7.423,6.985 6.877,6.891C6.521,6.83 6.304,6.607 6.212,6.26C6.19,6.173 6.165,6.087 6.149,5.999C5.94,4.899 5.734,3.799 5.526,2.699C5.058,0.224 4.587,-2.25 4.125,-4.726C4.09,-4.913 4.01,-4.956 3.835,-4.958C3.164,-4.967 3.167,-4.971 2.846,-4.378C1.116,-1.177 -0.616,2.023 -2.351,5.222C-2.586,5.657 -2.869,6.06 -3.227,6.406C-3.447,6.618 -3.689,6.842 -3.989,6.875C-4.393,6.919 -4.5,7.147 -4.53,7.486C-4.538,7.574 -4.561,7.662 -4.585,7.748C-4.616,7.855 -4.569,7.893 -4.471,7.894C-4.415,7.895 -4.359,7.895 -4.303,7.895L-0.571,7.895C-0.515,7.895 -0.459,7.894 -0.403,7.895C-0.314,7.895 -0.258,7.863 -0.237,7.767C-0.181,7.509 -0.117,7.254 -0.058,7.007C-0.184,6.933 -0.287,6.962 -0.385,6.952C-0.597,6.931 -0.811,6.924 -1.016,6.859C-1.377,6.744 -1.523,6.54 -1.517,6.161C-1.514,5.954 -1.454,5.761 -1.365,5.581C-1.131,5.109 -0.883,4.645 -0.646,4.175C-0.589,4.063 -0.517,3.998 -0.386,4.017C-0.375,4.019 -0.364,4.017 -0.352,4.017L2.875,4.017C2.999,4.017 3.112,4.001 3.141,4.183C3.247,4.869 3.412,5.546 3.47,6.238C3.511,6.717 3.362,6.89 2.876,6.941C2.654,6.965 2.429,6.957 2.205,6.962C2.113,6.964 2.017,6.957 1.994,7.076C1.943,7.336 1.854,7.59 1.831,7.895L17.24,7.895C17.285,7.895 17.33,7.889 17.374,7.896C17.564,7.926 17.66,7.857 17.693,7.658C17.74,7.382 17.813,7.111 17.877,6.839C18.126,5.794 18.373,4.748 18.627,3.704C18.667,3.542 18.649,3.449 18.464,3.423" style="fill:rgb(254,254,254);fill-rule:nonzero;"/>
            </g>
        </g>
    </g>
</svg>
