<?xml version="1.0" encoding="UTF-8" standalone="no"?>
<!DOCTYPE svg PUBLIC "-//W3C//DTD SVG 1.1//EN" "http://www.w3.org/Graphics/SVG/1.1/DTD/svg11.dtd">
<svg width="100%" height="100%" viewBox="0 0 432 157" version="1.1" xmlns="http://www.w3.org/2000/svg" xmlns:xlink="http://www.w3.org/1999/xlink" xml:space="preserve" xmlns:serif="http://www.serif.com/" style="fill-rule:evenodd;clip-rule:evenodd;stroke-linejoin:round;stroke-miterlimit:2;">
    <g transform="matrix(1,0,0,1,-6718.23,-26739.5)">
        <g transform="matrix(8.33333,0,0,8.33333,0,0)">
            <g transform="matrix(1,0,0,1,806.455,3216.6)">
                <path d="M0,3.027C0.34,4.207 0.845,5.221 1.912,5.894C2.155,6.047 2.653,6.087 2.281,6.582C2.264,6.604 2.295,6.702 2.324,6.713C2.691,6.855 2.484,7.085 2.42,7.293C2.33,7.587 2.225,7.877 2.15,8.175C1.89,9.209 2.499,10.133 3.547,10.357C4.222,10.502 4.839,10.37 5.438,10.072C5.794,9.894 6.147,9.712 6.626,9.468C6.44,9.755 6.339,9.914 6.235,10.07C6.062,10.329 6.008,10.582 6.317,10.775C6.631,10.971 6.826,10.793 6.991,10.536C7.37,9.946 7.758,9.361 8.134,8.768C8.284,8.53 8.524,8.282 8.232,7.995C7.962,7.729 7.701,7.892 7.441,8.042C6.566,8.548 5.699,9.07 4.776,9.487C4.102,9.791 3.427,9.657 3.049,9.164C2.749,8.773 2.877,7.863 3.285,7.39C3.368,7.293 3.433,7.254 3.537,7.324C3.816,7.511 3.896,7.309 3.955,7.105C4.048,6.782 4.251,6.716 4.571,6.733C5.084,6.761 5.6,6.734 6.114,6.718C6.394,6.709 6.521,6.597 6.499,6.269C6.429,5.228 6.39,4.185 6.366,3.142C6.357,2.772 6.333,2.562 5.861,2.692C5.557,2.776 5.211,2.747 4.888,2.719C3.874,2.632 3.124,1.991 3.011,1.05C2.76,-1.042 3.593,-2.908 5.748,-3.602C6.001,-3.683 6.052,-3.766 6.021,-4.023C5.885,-5.161 5.761,-6.301 5.668,-7.443C5.632,-7.888 5.487,-7.944 5.107,-7.76C2.534,-6.516 0.846,-4.546 0.109,-1.776C0.109,-1.776 -0.66,0.737 0,3.027" style="fill:white;fill-rule:nonzero;"/>
            </g>
            <g transform="matrix(1,0,0,1,818.441,3212.48)">
                <path d="M0,10.856C-0.665,9.107 -1.284,7.461 -1.921,5.822C-2.012,5.587 -1.844,5.51 -1.749,5.39C-1.276,4.79 -0.995,4.129 -1.05,3.351C-1.101,2.641 -1.458,2.249 -2.167,2.15L-2.167,9.545C-2.167,9.716 -2.186,9.89 -2.164,10.058C-2.121,10.386 -2.261,10.475 -2.571,10.453C-3.031,10.421 -3.628,10.595 -3.918,10.367C-4.229,10.124 -4.017,9.502 -4.018,9.047C-4.029,6.22 -4.017,3.392 -4.032,0.565C-4.034,0.193 -3.957,0.042 -3.553,0.071C-2.733,0.129 -1.905,0 -1.087,0.151C0.421,0.43 1.315,1.789 0.956,3.277C0.763,4.079 0.505,4.862 -0.051,5.497C-0.223,5.693 -0.096,5.8 -0.016,5.939C0.482,6.798 0.98,7.657 1.478,8.515C1.562,8.661 1.666,8.785 1.512,8.97C1.021,9.562 0.548,10.169 0,10.856" style="fill:white;fill-rule:nonzero;"/>
            </g>
            <g transform="matrix(1,0,0,1,825.184,3213.59)">
                <path d="M0,8.2L0,8.251C0,9.483 0,9.482 -1.251,9.421C-1.971,9.387 -2.69,9.33 -3.41,9.332C-3.77,9.334 -3.838,9.199 -3.837,8.883C-3.829,5.697 -3.83,2.511 -3.836,-0.675C-3.836,-0.914 -3.804,-1.053 -3.515,-1.068C-2.556,-1.117 -1.597,-1.182 -0.64,-1.259C-0.35,-1.283 -0.257,-1.2 -0.258,-0.902C-0.261,-0.373 -0.234,0.159 -0.18,0.686C-0.145,1.032 -0.27,1.147 -0.599,1.131C-0.803,1.121 -1.009,1.152 -1.214,1.167C-1.9,1.218 -1.9,1.218 -1.9,1.926C-1.9,3.06 -1.899,3.069 -0.768,2.98C-0.479,2.958 -0.367,3.019 -0.38,3.327C-0.401,3.874 -0.397,4.423 -0.381,4.971C-0.373,5.248 -0.479,5.348 -0.743,5.305C-0.777,5.3 -0.811,5.289 -0.845,5.29C-1.216,5.298 -1.749,5.04 -1.918,5.305C-2.17,5.701 -1.986,6.266 -1.996,6.759C-2.001,6.976 -1.822,6.923 -1.693,6.919C-1.264,6.905 -0.835,6.9 -0.408,6.865C-0.084,6.838 0.02,6.97 0.004,7.275C-0.013,7.583 0,7.892 0,8.2" style="fill:white;fill-rule:nonzero;"/>
            </g>
            <g transform="matrix(1,0,0,1,844.446,3217.68)">
                <path d="M0,-0.001C0,-1.559 0.01,-3.117 -0.007,-4.675C-0.011,-5.017 0.069,-5.147 0.437,-5.16C1.345,-5.193 2.251,-5.268 3.156,-5.343C3.463,-5.369 3.581,-5.289 3.575,-4.958C3.565,-4.429 3.596,-3.897 3.644,-3.37C3.669,-3.09 3.617,-2.96 3.309,-2.956C2.866,-2.95 2.283,-3.084 2.024,-2.803C1.743,-2.5 1.981,-1.919 1.927,-1.465C1.876,-1.046 2.062,-0.988 2.427,-1.017C3.446,-1.098 3.454,-1.085 3.443,-0.065C3.439,0.342 3.617,0.858 3.371,1.128C3.107,1.419 2.597,1.139 2.195,1.134C1.913,1.131 1.785,1.183 1.808,1.493C1.841,1.934 1.687,2.493 1.906,2.781C2.057,2.979 2.71,2.849 3.125,2.783C3.674,2.695 3.849,2.911 3.833,3.421C3.815,3.968 3.825,4.516 3.835,5.064C3.839,5.282 3.762,5.368 3.536,5.358C2.439,5.311 1.342,5.275 0.245,5.234C-0.097,5.222 0.005,4.955 0.004,4.776C-0.003,3.183 0,1.591 0,-0.001" style="fill:white;fill-rule:nonzero;"/>
            </g>
            <g transform="matrix(1,0,0,1,839.454,3216.61)">
                <path d="M0,2.342C0,1.246 -0.031,0.149 0.014,-0.946C0.034,-1.453 -0.15,-1.559 -0.593,-1.496C-0.914,-1.451 -1.243,-1.454 -1.566,-1.418C-1.792,-1.393 -1.876,-1.473 -1.874,-1.699C-1.866,-2.384 -1.87,-3.069 -1.873,-3.754C-1.874,-3.945 -1.821,-4.015 -1.601,-3.999C0.095,-3.872 1.792,-3.859 3.487,-4.003C3.748,-4.025 3.773,-3.901 3.772,-3.706C3.77,-3.055 3.766,-2.404 3.774,-1.754C3.778,-1.502 3.685,-1.444 3.433,-1.459C2.958,-1.485 2.342,-1.689 2.042,-1.414C1.735,-1.133 1.951,-0.509 1.948,-0.037C1.936,1.899 1.934,3.834 1.951,5.769C1.955,6.134 1.848,6.249 1.49,6.221C1.015,6.183 0.39,6.367 0.099,6.128C-0.209,5.875 0.014,5.23 0.005,4.757C-0.012,3.952 0,3.147 0,2.342" style="fill:white;fill-rule:nonzero;"/>
            </g>
            <g transform="matrix(1,0,0,1,850.263,3217.91)">
                <path d="M0,-0.108C0,-1.649 0.01,-3.19 -0.008,-4.73C-0.012,-5.091 0.052,-5.239 0.462,-5.236C1.829,-5.227 1.829,-5.245 1.829,-3.877C1.829,-1.926 1.84,0.026 1.82,1.978C1.816,2.363 1.918,2.519 2.306,2.445C2.39,2.429 2.477,2.434 2.563,2.428C3.609,2.361 3.609,2.361 3.609,3.433C3.609,3.878 3.597,4.324 3.613,4.768C3.622,5.025 3.558,5.137 3.272,5.123C2.278,5.075 1.284,5.037 0.29,5.022C-0.045,5.018 0,4.82 0,4.617L0,-0.108" style="fill:white;fill-rule:nonzero;"/>
            </g>
            <g transform="matrix(1,0,0,1,836.243,3217.87)">
                <path d="M0,-0.168C0,1.391 -0.011,2.95 0.008,4.508C0.013,4.871 -0.092,4.998 -0.452,4.959C-0.891,4.912 -1.453,5.139 -1.741,4.864C-2.01,4.608 -1.819,4.052 -1.82,3.629C-1.828,0.82 -1.817,-1.99 -1.833,-4.799C-1.835,-5.181 -1.736,-5.296 -1.347,-5.295C0,-5.292 0,-5.307 0,-3.971L0,-0.168Z" style="fill:white;fill-rule:nonzero;"/>
            </g>
            <g transform="matrix(1,0,0,1,857.464,3224.49)">
                <path d="M0,2.998C-0.593,2.998 -0.576,2.617 -0.576,2.617C-0.943,2.405 -1.287,2.473 -1.644,2.454C-2.003,2.436 -2.364,2.445 -2.724,2.45C-3.461,2.459 -4.072,2.257 -4.351,1.44C-4.641,1.888 -4.905,2.286 -5.159,2.691C-5.326,2.957 -5.544,3.027 -5.812,2.867C-6.101,2.694 -6.071,2.457 -5.909,2.209C-5.479,1.549 -5.047,0.891 -4.622,0.228C-4.498,0.034 -4.342,-0.079 -4.11,-0.019C-3.885,0.04 -3.778,0.199 -3.762,0.431C-3.678,1.675 -3.414,1.749 -2.123,1.743C-1.814,1.741 -1.505,1.725 -1.196,1.72C-0.929,1.716 -0.658,1.726 -0.701,1.328C-0.713,1.21 -0.647,1.158 -0.524,1.127C-0.126,1.026 0.146,1.033 0.313,1.169C0.551,1.363 0.507,1.709 0.526,1.903C0.599,2.67 0.254,3.077 0,2.998" style="fill:white;fill-rule:nonzero;"/>
            </g>
            <g transform="matrix(1,0,0,1,822.948,3226.96)">
                <path d="M0,-2.02C-0.029,-1.968 -0.074,-1.878 -0.129,-1.793C-0.564,-1.119 -1.007,-0.449 -1.435,0.23C-1.618,0.519 -1.828,0.588 -2.116,0.39C-2.399,0.195 -2.341,-0.02 -2.177,-0.266C-1.733,-0.935 -1.298,-1.609 -0.865,-2.286C-0.742,-2.478 -0.597,-2.608 -0.363,-2.51C-0.171,-2.429 0.007,-2.316 0,-2.02" style="fill:white;fill-rule:nonzero;"/>
            </g>
            <g transform="matrix(1,0,0,1,824.442,3224.37)">
                <path d="M0,3.09C-0.444,3.094 -0.658,2.731 -0.442,2.387C0.004,1.678 0.465,0.978 0.923,0.276C1.077,0.039 1.27,-0.027 1.527,0.143C1.795,0.32 1.832,0.517 1.654,0.785C1.199,1.468 0.754,2.158 0.309,2.848C0.223,2.982 0.146,3.117 0,3.09" style="fill:white;fill-rule:nonzero;"/>
            </g>
            <g transform="matrix(1,0,0,1,819.751,3226.95)">
                <path d="M0,-1.969C-0.523,-1.192 -1.07,-0.349 -1.659,0.466C-1.767,0.615 -2.018,0.498 -2.168,0.368C-2.326,0.233 -2.394,0.069 -2.265,-0.128C-1.781,-0.873 -1.3,-1.621 -0.809,-2.362C-0.692,-2.538 -0.516,-2.584 -0.317,-2.478C-0.143,-2.386 -0.002,-2.269 0,-1.969" style="fill:white;fill-rule:nonzero;"/>
            </g>
            <g transform="matrix(1,0,0,1,827.605,3224.33)">
                <path d="M0,3.129C-0.205,3.13 -0.362,3.024 -0.47,2.866C-0.568,2.724 -0.514,2.579 -0.422,2.439C0.036,1.738 0.488,1.033 0.944,0.331C1.093,0.101 1.278,-0.001 1.543,0.171C1.802,0.339 1.878,0.527 1.691,0.807C1.227,1.504 0.776,2.209 0.324,2.914C0.245,3.038 0.158,3.13 0,3.129" style="fill:white;fill-rule:nonzero;"/>
            </g>
            <g transform="matrix(1,0,0,1,830.569,3227.51)">
                <path d="M0,-3.099C0.346,-3.111 0.602,-2.723 0.417,-2.427C-0.035,-1.702 -0.513,-0.992 -0.973,-0.272C-1.137,-0.016 -1.332,0.012 -1.579,-0.143C-1.824,-0.295 -1.901,-0.471 -1.726,-0.736C-1.254,-1.448 -0.791,-2.167 -0.333,-2.888C-0.25,-3.019 -0.136,-3.069 0,-3.099" style="fill:white;fill-rule:nonzero;"/>
            </g>
            <g transform="matrix(1,0,0,1,835.816,3226.95)">
                <path d="M0,-1.965C-0.516,-1.195 -1.057,-0.347 -1.649,0.465C-1.766,0.626 -2.037,0.486 -2.197,0.337C-2.34,0.205 -2.376,0.057 -2.261,-0.118C-1.775,-0.862 -1.294,-1.61 -0.806,-2.353C-0.688,-2.532 -0.522,-2.591 -0.32,-2.482C-0.149,-2.389 0,-2.279 0,-1.965" style="fill:white;fill-rule:nonzero;"/>
            </g>
            <g transform="matrix(1,0,0,1,842.329,3226.98)">
                <path d="M0,-2.05C-0.033,-1.993 -0.078,-1.903 -0.133,-1.819C-0.57,-1.144 -1.014,-0.475 -1.442,0.204C-1.623,0.491 -1.827,0.575 -2.119,0.372C-2.396,0.179 -2.36,-0.027 -2.189,-0.282C-1.742,-0.949 -1.311,-1.627 -0.877,-2.303C-0.756,-2.49 -0.609,-2.625 -0.373,-2.531C-0.177,-2.453 -0.008,-2.335 0,-2.05" style="fill:white;fill-rule:nonzero;"/>
            </g>
            <g transform="matrix(1,0,0,1,845.469,3224.39)">
                <path d="M0,3.072C-0.434,3.052 -0.641,2.708 -0.442,2.391C0.01,1.667 0.483,0.955 0.947,0.238C1.113,-0.018 1.32,-0.026 1.557,0.133C1.797,0.296 1.841,0.491 1.676,0.741C1.215,1.439 0.76,2.141 0.306,2.845C0.217,2.982 0.125,3.098 0,3.072" style="fill:white;fill-rule:nonzero;"/>
            </g>
            <g transform="matrix(1,0,0,1,851.997,3226.97)">
                <path d="M0,-2.056C-0.024,-2.008 -0.062,-1.914 -0.116,-1.831C-0.561,-1.142 -1.017,-0.459 -1.453,0.235C-1.626,0.51 -1.817,0.561 -2.091,0.395C-2.382,0.219 -2.375,0.016 -2.202,-0.245C-1.749,-0.929 -1.308,-1.62 -0.863,-2.309C-0.741,-2.498 -0.588,-2.617 -0.351,-2.517C-0.17,-2.439 -0.03,-2.321 0,-2.056" style="fill:white;fill-rule:nonzero;"/>
            </g>
            <g transform="matrix(1,0,0,1,827.879,3227)">
                <path d="M0,-2.1C-0.034,-2.036 -0.081,-1.929 -0.144,-1.831C-0.577,-1.155 -1.018,-0.483 -1.447,0.197C-1.613,0.46 -1.804,0.542 -2.085,0.368C-2.365,0.194 -2.386,0 -2.205,-0.271C-1.749,-0.952 -1.309,-1.645 -0.864,-2.335C-0.755,-2.504 -0.619,-2.642 -0.407,-2.569C-0.213,-2.502 -0.028,-2.395 0,-2.1" style="fill:white;fill-rule:nonzero;"/>
            </g>
            <g transform="matrix(1,0,0,1,834.311,3227.09)">
                <path d="M0,-2.268C0.029,-2.1 -0.054,-2.007 -0.118,-1.908C-0.552,-1.234 -0.994,-0.565 -1.422,0.114C-1.589,0.38 -1.781,0.456 -2.058,0.289C-2.348,0.115 -2.337,-0.105 -2.173,-0.359C-1.717,-1.06 -1.264,-1.762 -0.811,-2.464C-0.694,-2.644 -0.529,-2.724 -0.333,-2.634C-0.168,-2.557 0.028,-2.479 0,-2.268" style="fill:white;fill-rule:nonzero;"/>
            </g>
            <g transform="matrix(1,0,0,1,837.035,3227.54)">
                <path d="M0,-3.123C0.336,-3.102 0.54,-2.732 0.346,-2.423C-0.101,-1.715 -0.565,-1.018 -1.017,-0.314C-1.191,-0.042 -1.401,0 -1.664,-0.18C-1.911,-0.35 -1.929,-0.544 -1.766,-0.791C-1.314,-1.475 -0.869,-2.164 -0.43,-2.856C-0.329,-3.014 -0.208,-3.111 0,-3.123" style="fill:white;fill-rule:nonzero;"/>
            </g>
            <g transform="matrix(1,0,0,1,840.717,3226.95)">
                <path d="M0,-2.008C-0.026,-1.956 -0.07,-1.846 -0.133,-1.747C-0.556,-1.086 -0.988,-0.431 -1.406,0.232C-1.586,0.518 -1.791,0.594 -2.085,0.402C-2.381,0.209 -2.318,-0.009 -2.159,-0.251C-1.71,-0.936 -1.267,-1.625 -0.821,-2.311C-0.695,-2.505 -0.532,-2.602 -0.304,-2.49C-0.13,-2.405 0.027,-2.301 0,-2.008" style="fill:white;fill-rule:nonzero;"/>
            </g>
            <g transform="matrix(1,0,0,1,816.46,3226.94)">
                <path d="M0,-1.996C-0.02,-1.956 -0.056,-1.862 -0.11,-1.778C-0.553,-1.09 -1.005,-0.408 -1.443,0.283C-1.621,0.565 -1.826,0.582 -2.086,0.413C-2.346,0.244 -2.338,0.033 -2.187,-0.199C-1.733,-0.901 -1.276,-1.6 -0.823,-2.302C-0.709,-2.481 -0.555,-2.578 -0.352,-2.495C-0.162,-2.417 0.026,-2.313 0,-1.996" style="fill:white;fill-rule:nonzero;"/>
            </g>
            <g transform="matrix(1,0,0,1,816.296,3224.36)">
                <path d="M0,3.105C-0.374,3.088 -0.571,2.751 -0.366,2.42C0.081,1.695 0.551,0.983 1.016,0.269C1.158,0.051 1.349,-0.007 1.582,0.142C1.816,0.291 1.926,0.478 1.759,0.738C1.29,1.47 0.816,2.199 0.345,2.93C0.263,3.058 0.149,3.112 0,3.105" style="fill:white;fill-rule:nonzero;"/>
            </g>
            <g transform="matrix(1,0,0,1,824.606,3226.97)">
                <path d="M0,-2.047C-0.009,-2.023 -0.02,-1.972 -0.046,-1.931C-0.536,-1.171 -1.024,-0.41 -1.521,0.344C-1.662,0.558 -1.861,0.532 -2.061,0.416C-2.288,0.285 -2.391,0.093 -2.246,-0.136C-1.775,-0.887 -1.289,-1.629 -0.8,-2.369C-0.685,-2.543 -0.511,-2.605 -0.312,-2.496C-0.144,-2.404 0.016,-2.301 0,-2.047" style="fill:white;fill-rule:nonzero;"/>
            </g>
            <g transform="matrix(1,0,0,1,832.647,3226.96)">
                <path d="M0,-2.016C-0.021,-1.973 -0.062,-1.861 -0.125,-1.764C-0.55,-1.105 -0.987,-0.453 -1.405,0.21C-1.581,0.489 -1.773,0.597 -2.075,0.401C-2.362,0.214 -2.325,-0.003 -2.162,-0.252C-1.713,-0.936 -1.27,-1.624 -0.826,-2.312C-0.701,-2.505 -0.539,-2.613 -0.312,-2.499C-0.147,-2.416 0.034,-2.326 0,-2.016" style="fill:white;fill-rule:nonzero;"/>
            </g>
            <g transform="matrix(1,0,0,1,838.574,3227.5)">
                <path d="M0,-3.079C0.369,-3.095 0.611,-2.737 0.413,-2.413C-0.041,-1.671 -0.523,-0.947 -0.998,-0.218C-1.151,0.016 -1.356,0.005 -1.575,-0.124C-1.804,-0.258 -1.89,-0.448 -1.744,-0.679C-1.269,-1.428 -0.78,-2.167 -0.301,-2.914C-0.226,-3.031 -0.118,-3.057 0,-3.079" style="fill:white;fill-rule:nonzero;"/>
            </g>
            <g transform="matrix(1,0,0,1,845.568,3226.96)">
                <path d="M0,-2.018C-0.009,-1.997 -0.025,-1.928 -0.061,-1.873C-0.532,-1.141 -1.003,-0.409 -1.482,0.319C-1.653,0.58 -1.877,0.539 -2.104,0.389C-2.335,0.237 -2.359,0.048 -2.211,-0.179C-1.746,-0.894 -1.283,-1.612 -0.819,-2.328C-0.706,-2.503 -0.554,-2.598 -0.345,-2.51C-0.15,-2.428 0.022,-2.315 0,-2.018" style="fill:white;fill-rule:nonzero;"/>
            </g>
            <g transform="matrix(1,0,0,1,846.93,3224.36)">
                <path d="M0,3.099C-0.395,3.101 -0.63,2.743 -0.435,2.429C0.016,1.705 0.492,0.995 0.957,0.28C1.117,0.035 1.314,-0.007 1.565,0.154C1.813,0.314 1.87,0.501 1.703,0.755C1.236,1.469 0.771,2.185 0.308,2.903C0.227,3.029 0.129,3.106 0,3.099" style="fill:white;fill-rule:nonzero;"/>
            </g>
            <g transform="matrix(1,0,0,1,850.435,3227.01)">
                <path d="M0,-2.085C-0.557,-1.253 -1.1,-0.411 -1.683,0.402C-1.792,0.555 -2.037,0.445 -2.194,0.321C-2.344,0.203 -2.42,0.03 -2.32,-0.128C-1.819,-0.92 -1.308,-1.706 -0.782,-2.482C-0.675,-2.64 -0.477,-2.611 -0.316,-2.517C-0.165,-2.428 -0.019,-2.329 0,-2.085" style="fill:white;fill-rule:nonzero;"/>
            </g>
            <g transform="matrix(1,0,0,1,819.602,3224.37)">
                <path d="M0,3.091C-0.388,3.092 -0.621,2.733 -0.427,2.422C0.024,1.697 0.498,0.987 0.964,0.272C1.124,0.028 1.317,-0.016 1.571,0.148C1.821,0.31 1.874,0.493 1.708,0.746C1.249,1.446 0.796,2.149 0.341,2.851C0.255,2.984 0.164,3.107 0,3.091" style="fill:white;fill-rule:nonzero;"/>
            </g>
            <g transform="matrix(1,0,0,1,843.978,3226.99)">
                <path d="M0,-2.061C-0.026,-2.011 -0.072,-1.903 -0.135,-1.805C-0.561,-1.145 -0.996,-0.491 -1.416,0.173C-1.587,0.443 -1.773,0.581 -2.084,0.377C-2.394,0.174 -2.335,-0.048 -2.158,-0.313C-1.712,-0.98 -1.281,-1.657 -0.846,-2.331C-0.723,-2.52 -0.568,-2.642 -0.336,-2.529C-0.168,-2.447 0.011,-2.36 0,-2.061" style="fill:white;fill-rule:nonzero;"/>
            </g>
            <g transform="matrix(1,0,0,1,828.878,3215.43)">
                <path d="M0,4.907L0,2.493C0.001,1.69 0.022,0.887 -0.003,0.085C-0.019,-0.404 0.178,-0.449 0.573,-0.302C1.193,-0.072 1.609,0.343 1.809,0.97C2.265,2.393 1.444,4.224 0,4.907M3.988,1.036C3.939,-0.741 2.728,-2.191 0.987,-2.593C0.223,-2.77 -0.552,-2.649 -1.32,-2.7C-1.673,-2.723 -1.854,-2.616 -1.852,-2.25L-1.91,7.245C-1.919,7.574 -1.844,7.677 -1.514,7.606C1.62,6.925 4.092,4.801 3.988,1.036" style="fill:white;fill-rule:nonzero;"/>
            </g>
        </g>
    </g>
</svg>
