<?xml version="1.0" encoding="UTF-8" standalone="no"?>
<!DOCTYPE svg PUBLIC "-//W3C//DTD SVG 1.1//EN" "http://www.w3.org/Graphics/SVG/1.1/DTD/svg11.dtd">
<svg width="100%" height="100%" viewBox="0 0 270 104" version="1.1" xmlns="http://www.w3.org/2000/svg" xmlns:xlink="http://www.w3.org/1999/xlink" xml:space="preserve" xmlns:serif="http://www.serif.com/" style="fill-rule:evenodd;clip-rule:evenodd;stroke-linejoin:round;stroke-miterlimit:2;">
    <g transform="matrix(1,0,0,1,-5601.36,-26766.1)">
        <g transform="matrix(8.33333,0,0,8.33333,0,0)">
            <g id="Lider">
                <g transform="matrix(1,0,0,1,685.113,3218.59)">
                    <path d="M0,-0.669C-1.149,-0.666 -2.071,0.21 -2.084,1.313C-2.098,2.462 -1.081,3.464 0.079,3.444C1.138,3.425 2.118,2.417 2.11,1.353C2.101,0.208 1.183,-0.672 0,-0.669M4.525,-1.779C4.472,-0.749 4.66,0.696 4.423,2.122C4.124,3.917 2.791,5.212 0.906,5.606C-0.969,5.998 -2.763,5.272 -3.783,3.708C-4.763,2.206 -4.742,0.359 -3.729,-1.088C-2.593,-2.711 -0.433,-3.415 1.504,-2.795C2.124,-2.596 2.127,-2.596 2.129,-3.235C2.133,-4.169 2.144,-5.103 2.125,-6.037C2.117,-6.462 2.263,-6.663 2.707,-6.64C3.099,-6.62 3.494,-6.619 3.886,-6.64C4.403,-6.667 4.527,-6.373 4.526,-5.939C4.523,-4.688 4.525,-3.436 4.525,-1.779" style="fill:rgb(255,255,254);fill-rule:nonzero;"/>
                </g>
                <g transform="matrix(1,0,0,1,692.852,3220.06)">
                    <path d="M0,-0.467C1.037,-0.893 1.99,-1.285 2.971,-1.688C2.122,-2.556 0.266,-2.118 0,-0.467M0.667,1.398C1.36,1.928 2.026,2.079 2.716,1.67C3.584,1.156 4.525,1.114 5.487,1.12C5.931,1.122 6.006,1.32 5.843,1.687C5.181,3.179 3.974,3.987 2.407,4.149C-0.284,4.428 -2.371,2.582 -2.543,-0.116C-2.673,-2.137 -0.867,-4.22 1.194,-4.529C3.639,-4.895 5.427,-3.355 6.094,-1.474C6.231,-1.086 6.158,-0.91 5.774,-0.754C4.195,-0.114 2.626,0.555 1.054,1.215C0.953,1.257 0.856,1.308 0.667,1.398" style="fill:rgb(255,255,254);fill-rule:nonzero;"/>
                </g>
                <g transform="matrix(1,0,0,1,674.343,3219.33)">
                    <path d="M0,-2.813C0,-1.504 -0.019,-0.195 0.007,1.113C0.024,2.001 0.362,2.345 1.242,2.491C2.39,2.682 2.39,2.682 2.387,3.861C2.385,4.688 2.282,4.788 1.45,4.761C-0.708,4.693 -2.156,3.221 -2.166,1.058C-2.178,-1.522 -2.158,-4.103 -2.18,-6.682C-2.185,-7.221 -2.007,-7.405 -1.469,-7.389C0.123,-7.343 -0.024,-7.601 -0.017,-5.954C-0.013,-4.907 -0.017,-3.86 -0.017,-2.813L0,-2.813" style="fill:rgb(255,255,254);fill-rule:nonzero;"/>
                </g>
                <g transform="matrix(1,0,0,1,699.846,3218.52)">
                    <path d="M0,2.343C0,1.707 -0.004,1.071 0.001,0.435C0.012,-1.245 0.918,-2.461 2.535,-2.92C3.001,-3.052 3.489,-3.11 3.97,-3.183C4.402,-3.248 4.624,-3.091 4.641,-2.608C4.691,-1.203 4.706,-1.204 3.336,-0.888C2.607,-0.721 2.266,-0.363 2.211,0.452C2.156,1.272 2.181,2.097 2.175,2.92C2.169,3.594 2.164,4.267 2.167,4.94C2.169,5.355 1.974,5.567 1.558,5.575C1.371,5.579 1.183,5.591 0.996,5.587C0.308,5.576 0.064,5.381 0.032,4.699C-0.005,3.915 0.023,3.129 0.023,2.343L0,2.343" style="fill:rgb(255,255,254);fill-rule:nonzero;"/>
                </g>
                <g transform="matrix(1,0,0,1,679.992,3219.93)">
                    <path d="M0,0.004C0,1.199 -0.013,2.394 0.006,3.588C0.013,4.02 -0.14,4.191 -0.579,4.183C-2.494,4.146 -2.169,4.423 -2.185,2.654C-2.204,0.582 -2.177,-1.491 -2.198,-3.563C-2.204,-4.075 -2.022,-4.262 -1.517,-4.254C0.312,-4.227 -0.031,-4.419 -0.003,-2.796C0.014,-1.863 0,-0.929 0,0.004" style="fill:rgb(255,255,254);fill-rule:nonzero;"/>
                </g>
                <g transform="matrix(1,0,0,1,679.984,3213.29)">
                    <path d="M0,-0.206C0,-0.038 -0.004,0.129 0.001,0.297C0.016,0.794 -0.217,1.066 -0.721,1.098C-0.925,1.111 -1.13,1.138 -1.334,1.139C-2.167,1.142 -2.239,1.037 -1.991,0.222C-1.782,-0.464 -1.375,-0.961 -0.668,-1.175C-0.1,-1.348 -0.005,-1.283 0.006,-0.709C0.009,-0.541 0.006,-0.374 0.006,-0.206L0,-0.206Z" style="fill:rgb(255,255,254);fill-rule:nonzero;"/>
                </g>
            </g>
        </g>
    </g>
</svg>
