<?xml version="1.0" encoding="UTF-8" standalone="no"?>
<!DOCTYPE svg PUBLIC "-//W3C//DTD SVG 1.1//EN" "http://www.w3.org/Graphics/SVG/1.1/DTD/svg11.dtd">
<svg width="100%" height="100%" viewBox="0 0 88 14" version="1.1" xmlns="http://www.w3.org/2000/svg" xmlns:xlink="http://www.w3.org/1999/xlink" xml:space="preserve" xmlns:serif="http://www.serif.com/" style="fill-rule:evenodd;clip-rule:evenodd;stroke-linejoin:round;stroke-miterlimit:2;">
    <g transform="matrix(0.24,0,0,0.24,-532.875,-6429.64)">
        <g transform="matrix(8.33333,0,0,8.33333,0,0)">
            <g id="Oca">
                <g transform="matrix(1,0,0,1,275.149,3220.25)">
                    <path d="M0,-4.244L-1.247,0.106C-1.271,0.188 -1.346,0.244 -1.431,0.244L-2.885,0.244C-3.012,0.244 -3.104,0.122 -3.069,0L-1.822,-4.35C-1.798,-4.432 -1.723,-4.488 -1.638,-4.488L-0.184,-4.488C-0.057,-4.488 0.035,-4.366 0,-4.244M4.021,-5.208L-5.032,-5.208C-5.444,-5.208 -5.984,-5.196 -6.351,-5.07C-7.202,-4.779 -7.832,-4.052 -8.079,-3.187L-8.648,-1.195C-8.74,-0.873 -8.739,-0.525 -8.607,-0.218C-8.098,0.964 -6.267,0.964 -6.267,0.964L0.935,0.964C2.193,0.868 3.041,0.589 3.587,0.321C4.092,0.073 4.466,-0.378 4.634,-0.915L5.462,-3.562C5.873,-5.208 4.021,-5.208 4.021,-5.208" style="fill:rgb(255,255,254);fill-rule:nonzero;"/>
                </g>
                <g transform="matrix(1,0,0,1,289.87,3218.95)">
                    <path d="M0,-2.058L5.761,-2.058C5.761,-2.058 6.584,-4.321 2.469,-4.116L-4.733,-4.116C-4.733,-4.116 -6.893,-4.219 -7.408,-2.47L-8.228,0.157C-8.43,0.801 -8.171,1.517 -7.58,1.843C-7.151,2.079 -6.511,2.263 -5.556,2.263L2.881,2.263C2.881,2.263 4.733,1.852 5.144,-0.412L-0.514,-0.412L-1.301,1.456C-1.323,1.509 -1.374,1.543 -1.431,1.543L-3.191,1.543C-3.29,1.543 -3.358,1.444 -3.324,1.352L-1.578,-3.304C-1.557,-3.359 -1.504,-3.395 -1.445,-3.395L0.309,-3.395C0.408,-3.395 0.476,-3.296 0.441,-3.203L0,-2.058Z" style="fill:rgb(255,255,254);fill-rule:nonzero;"/>
                </g>
                <g transform="matrix(1,0,0,1,302.319,3217.82)">
                    <path d="M0,0.617L2.263,-2.058L2.263,0.617L0,0.617ZM7.922,3.601L6.687,-2.984L-0.72,-2.984L-7.51,3.395L-1.955,3.395L-0.514,1.543L2.161,1.543L2.161,3.601L7.922,3.601Z" style="fill:rgb(255,255,254);fill-rule:nonzero;"/>
                </g>
            </g>
        </g>
    </g>
</svg>
