<?xml version="1.0" encoding="UTF-8" standalone="no"?>
<!DOCTYPE svg PUBLIC "-//W3C//DTD SVG 1.1//EN" "http://www.w3.org/Graphics/SVG/1.1/DTD/svg11.dtd">
<svg width="100%" height="100%" viewBox="0 0 520 108" version="1.1" xmlns="http://www.w3.org/2000/svg" xmlns:xlink="http://www.w3.org/1999/xlink" xml:space="preserve" xmlns:serif="http://www.serif.com/" style="fill-rule:evenodd;clip-rule:evenodd;stroke-linejoin:round;stroke-miterlimit:2;">
    <g transform="matrix(1,0,0,1,-3902.19,-26764.1)">
        <g transform="matrix(8.33333,0,0,8.33333,0,0)">
            <g id="Red-pagps">
                <g transform="matrix(1,0,0,1,530.545,3224.56)">
                    <path d="M0,-9.952C0.009,-9.185 0.024,-8.418 0.025,-7.651C0.029,-5.247 0.024,-2.843 0.03,-0.439C0.031,-0.177 0.027,-0.016 -0.327,-0.017C-6.822,-0.028 -13.316,-0.025 -19.817,-0.025C-18.647,-2.457 -18.622,-5.159 -17.905,-7.689C-17.833,-7.946 -17.895,-8.071 -18.182,-8.031C-18.264,-8.02 -18.349,-8.029 -18.433,-8.029C-19.304,-8.03 -19.304,-8.03 -19.514,-7.207C-19.541,-7.208 -19.584,-7.196 -19.593,-7.209C-20.584,-8.583 -22.537,-8.356 -23.529,-7.119C-24.429,-5.995 -24.705,-4.703 -24.361,-3.306C-24.162,-2.498 -23.702,-1.872 -22.841,-1.68C-21.972,-1.486 -21.228,-1.754 -20.621,-2.402C-20.566,-2.461 -20.517,-2.527 -20.446,-2.615C-20.522,-0.698 -21.727,0.199 -23.575,-0.253C-23.801,-0.308 -24.028,-0.376 -24.237,-0.475C-24.479,-0.591 -24.606,-0.556 -24.648,-0.279C-24.677,-0.089 -24.786,-0.019 -24.992,-0.02C-29.099,-0.031 -33.206,-0.033 -37.313,-0.037C-37.328,-0.038 -37.344,-0.05 -37.397,-0.072C-37.242,-0.868 -37.085,-1.672 -36.922,-2.509C-36.06,-1.307 -34.495,-1.182 -33.335,-2.186C-32.171,-3.195 -31.626,-5.463 -32.204,-6.894C-32.739,-8.221 -34.613,-8.656 -35.686,-7.701C-35.795,-7.604 -35.891,-7.491 -36.001,-7.378C-36.101,-7.61 -35.93,-7.797 -35.982,-7.995C-36.015,-8.005 -36.046,-8.023 -36.077,-8.023C-36.51,-8.02 -37.031,-8.159 -37.35,-7.966C-37.65,-7.784 -37.562,-7.21 -37.646,-6.81C-38.263,-3.848 -38.69,-1.74 -38.949,-0.445C-39.011,-0.138 -39.11,-0.014 -39.458,-0.015C-46.921,-0.049 -54.384,-0.067 -61.848,-0.085C-62.103,-0.085 -62.284,-0.08 -62.282,-0.439C-62.268,-3.578 -62.273,-6.716 -62.27,-9.855C-62.27,-9.887 -62.256,-9.92 -62.248,-9.952C-62.071,-10.12 -61.846,-10.097 -61.632,-10.097C-54.718,-10.1 -47.804,-10.102 -40.89,-10.096C-40.161,-10.095 -40.034,-9.925 -40.195,-9.208C-40.305,-8.719 -40.373,-8.221 -40.508,-7.739C-40.637,-7.281 -40.812,-7.206 -41.178,-7.514C-42.377,-8.523 -44.218,-7.986 -44.943,-6.732C-45.567,-5.653 -45.762,-4.501 -45.519,-3.303C-45.187,-1.659 -43.451,-1.13 -42.2,-2.254C-42.151,-2.299 -42.103,-2.346 -42.054,-2.391C-41.821,-2.605 -41.643,-2.573 -41.653,-2.241C-41.666,-1.828 -41.438,-1.78 -41.117,-1.782C-40.792,-1.785 -40.548,-1.826 -40.477,-2.235C-40.09,-4.473 -39.551,-6.681 -39.098,-8.906C-39.078,-9.004 -39.057,-9.102 -39.034,-9.2C-38.835,-10.063 -38.793,-10.099 -37.892,-10.099C-27.772,-10.1 -17.651,-10.1 -7.53,-10.1C-5.276,-10.1 -3.021,-10.102 -0.766,-10.097C-0.505,-10.096 -0.227,-10.151 0,-9.952" style="fill:white;fill-rule:nonzero;"/>
                </g>
                <g transform="matrix(1,0,0,1,530.545,3220.29)">
                    <path d="M0,-5.68C-12.687,-5.679 -25.374,-5.674 -38.062,-5.69C-38.581,-5.69 -38.759,-5.556 -38.856,-5.045C-39.323,-2.591 -39.961,-0.172 -40.348,2.298C-40.383,2.522 -40.472,2.629 -40.702,2.612C-40.818,2.604 -40.936,2.611 -41.052,2.612C-41.856,2.612 -41.856,2.612 -41.766,1.777C-42.185,2.299 -42.648,2.66 -43.275,2.743C-44.608,2.92 -45.578,2.146 -45.744,0.736C-45.86,-0.241 -45.723,-1.189 -45.32,-2.099C-44.489,-3.975 -42.291,-4.581 -40.747,-3.097C-40.573,-3.906 -40.407,-4.678 -40.242,-5.449C-40.203,-5.634 -40.302,-5.682 -40.463,-5.676C-40.596,-5.671 -40.73,-5.676 -40.864,-5.676C-47.992,-5.677 -55.12,-5.679 -62.248,-5.68C-62.257,-6.547 -62.263,-7.414 -62.279,-8.281C-62.282,-8.487 -62.225,-8.6 -61.998,-8.58C-61.882,-8.57 -61.765,-8.579 -61.648,-8.579C-41.299,-8.579 -20.95,-8.576 -0.6,-8.592C-0.059,-8.592 0.07,-8.435 0.038,-7.93C-0.01,-7.182 0.009,-6.43 0,-5.68" style="fill:rgb(59,68,49);fill-rule:nonzero;"/>
                </g>
                <g transform="matrix(1,0,0,1,494.035,3219.25)">
                    <path d="M0,0.822C0.046,0.164 0.21,-0.541 0.695,-1.134C1.055,-1.573 1.521,-1.769 2.071,-1.6C2.604,-1.438 2.798,-0.983 2.831,-0.475C2.874,0.198 2.754,0.853 2.465,1.466C2.117,2.206 1.464,2.591 0.845,2.438C0.289,2.3 -0.007,1.765 0,0.822" style="fill:white;fill-rule:nonzero;"/>
                </g>
                <g transform="matrix(1,0,0,1,510.564,3220.05)">
                    <path d="M0,-0.93C-0.01,-0.371 -0.135,0.158 -0.415,0.644C-0.63,1.018 -0.928,1.293 -1.35,1.422C-2.062,1.641 -2.574,1.367 -2.752,0.648C-2.945,-0.137 -2.763,-0.874 -2.402,-1.569C-2.038,-2.268 -1.438,-2.571 -0.814,-2.417C-0.262,-2.28 0.022,-1.761 0,-0.93" style="fill:white;fill-rule:nonzero;"/>
                </g>
                <g transform="matrix(-0.232636,-0.972564,-0.972564,0.232636,515.193,3216.31)">
                    <path d="M-3.85,-3.801C-6.272,-3.206 -7.445,-1.015 -6.534,1.216C-6.083,2.319 -5.176,2.844 -3.85,2.767C-1.194,2.614 0.492,-0.18 -0.685,-2.473C-1.301,-3.671 -2.436,-4.147 -3.85,-3.801" style="fill:rgb(59,68,49);fill-rule:nonzero;"/>
                </g>
                <g transform="matrix(1,0,0,1,483.174,3217.42)">
                    <path d="M0,3.908C0.036,4.307 -0.096,4.639 -0.135,4.982C-0.152,5.134 -0.259,5.191 -0.402,5.234C-1.344,5.511 -2.296,5.65 -3.258,5.384C-4.247,5.111 -4.838,4.46 -5.038,3.438C-5.387,1.661 -4.339,-0.318 -2.707,-0.92C-0.481,-1.742 1.348,-0.225 0.986,2.117C0.908,2.617 0.75,2.811 0.207,2.786C-0.892,2.734 -1.994,2.786 -3.095,2.762C-3.49,2.754 -3.542,2.914 -3.469,3.239C-3.326,3.885 -2.904,4.241 -2.202,4.314C-1.438,4.392 -0.721,4.213 0,3.908" style="fill:rgb(59,68,49);fill-rule:nonzero;"/>
                </g>
                <g transform="matrix(1,0,0,1,503.05,3217.17)">
                    <path d="M0,4.664C-0.602,5.358 -1.169,5.782 -1.98,5.768C-2.961,5.751 -3.629,5.308 -3.837,4.492C-4.089,3.505 -3.716,2.603 -2.865,2.148C-2.216,1.801 -1.502,1.727 -0.786,1.67C-0.57,1.653 -0.346,1.692 -0.138,1.647C0.072,1.601 0.407,1.85 0.478,1.451C0.552,1.034 0.502,0.64 0.038,0.449C-0.496,0.229 -1.048,0.291 -1.589,0.392C-1.963,0.462 -2.324,0.597 -2.712,0.709C-2.772,0.339 -2.614,-0.006 -2.587,-0.364C-2.577,-0.507 -2.492,-0.599 -2.345,-0.646C-1.394,-0.951 -0.431,-1.118 0.555,-0.85C1.411,-0.617 1.867,-0.033 1.897,0.857C1.943,2.206 1.56,3.496 1.323,4.805C1.166,5.667 1.149,5.64 0.298,5.669C-0.104,5.683 -0.203,5.557 -0.103,5.196C-0.068,5.069 -0.052,4.937 0,4.664" style="fill:rgb(59,68,49);fill-rule:nonzero;"/>
                </g>
                <g transform="matrix(1,0,0,1,525.052,3221.45)">
                    <path d="M0,-3.647C-0.571,-3.848 -1.113,-4.01 -1.694,-3.886C-1.979,-3.825 -2.256,-3.734 -2.345,-3.415C-2.438,-3.086 -2.225,-2.878 -2,-2.698C-1.766,-2.511 -1.515,-2.344 -1.268,-2.174C-0.592,-1.708 -0.141,-1.126 -0.298,-0.246C-0.46,0.665 -1.047,1.165 -1.909,1.398C-2.772,1.63 -3.622,1.584 -4.471,1.321C-4.789,1.223 -4.963,1.105 -4.808,0.729C-4.69,0.444 -4.646,0.128 -4.564,-0.192C-4.028,0.062 -3.525,0.3 -2.955,0.259C-2.568,0.231 -2.148,0.18 -2.005,-0.252C-1.855,-0.706 -2.145,-1.009 -2.489,-1.254C-2.774,-1.456 -3.075,-1.639 -3.35,-1.855C-4.37,-2.656 -4.293,-4.059 -3.182,-4.752C-2.34,-5.277 -1.414,-5.27 -0.47,-5.133C0.361,-5.013 0.363,-5.023 0.155,-4.22C0.106,-4.03 0.052,-3.841 0,-3.647" style="fill:rgb(59,68,49);fill-rule:nonzero;"/>
                </g>
                <g transform="matrix(1,0,0,1,476.017,3221.85)">
                    <path d="M0,-4.548C0.49,-5.135 1.033,-5.597 1.858,-5.551C2.176,-5.533 2.344,-5.474 2.218,-5.119C2.18,-5.01 2.173,-4.89 2.147,-4.776C2.084,-4.5 2.092,-4.164 1.931,-3.967C1.778,-3.78 1.447,-3.971 1.19,-3.948C0.496,-3.886 0.078,-3.468 -0.228,-2.896C-0.606,-2.19 -0.661,-1.396 -0.837,-0.635C-0.905,-0.343 -0.951,-0.047 -1.013,0.247C-1.18,1.048 -1.181,1.048 -2.007,1.048C-2.77,1.048 -2.765,1.049 -2.622,0.322C-2.273,-1.443 -1.918,-3.207 -1.592,-4.977C-1.532,-5.298 -1.406,-5.408 -1.103,-5.367C-1.021,-5.357 -0.936,-5.369 -0.852,-5.365C-0.571,-5.354 -0.234,-5.432 -0.024,-5.304C0.21,-5.16 -0.137,-4.83 0,-4.548" style="fill:rgb(59,68,49);fill-rule:nonzero;"/>
                </g>
                <g transform="matrix(1,0,0,1,489.325,3219.91)">
                    <path d="M0,-0.539C-0.006,0.026 -0.244,0.757 -0.827,1.338C-1.168,1.678 -1.585,1.897 -2.089,1.749C-2.583,1.604 -2.693,1.179 -2.77,0.74C-2.898,0.005 -2.735,-0.683 -2.418,-1.338C-2.054,-2.088 -1.45,-2.436 -0.84,-2.281C-0.321,-2.149 -0.005,-1.587 0,-0.539" style="fill:white;fill-rule:nonzero;"/>
                </g>
                <g transform="matrix(1,0,0,1,518.097,3220.29)">
                    <path d="M0,-1.213C-0.009,-0.439 -0.187,0.195 -0.601,0.747C-1.033,1.323 -1.674,1.548 -2.271,1.354C-2.807,1.18 -3.099,0.722 -3.109,-0.04C-3.118,-0.776 -2.919,-1.458 -2.454,-2.043C-2.176,-2.394 -1.827,-2.639 -1.365,-2.683C-0.548,-2.761 -0.105,-2.396 -0.024,-1.574C-0.009,-1.425 -0.004,-1.275 0,-1.213" style="fill:white;fill-rule:nonzero;"/>
                </g>
                <g transform="matrix(1,0,0,1,481.507,3219.02)">
                    <path d="M0,-1.525C0.389,-1.532 0.722,-1.432 0.915,-1.054C1.267,-0.361 1.065,-0.01 0.309,-0.01C-0.255,-0.01 -0.82,-0.024 -1.384,-0.004C-1.694,0.007 -1.703,-0.104 -1.61,-0.348C-1.318,-1.115 -0.764,-1.528 0,-1.525" style="fill:white;fill-rule:nonzero;"/>
                </g>
                <g transform="matrix(1,0,0,1,502.612,3221.75)">
                    <path d="M0,-1.852C0.801,-1.878 0.807,-1.873 0.5,-1.12C0.236,-0.472 -0.191,-0.022 -0.94,0.01C-1.32,0.026 -1.722,0.014 -1.853,-0.422C-1.985,-0.862 -1.82,-1.25 -1.439,-1.515C-1.007,-1.815 -0.503,-1.84 0,-1.852" style="fill:white;fill-rule:nonzero;"/>
                </g>
            </g>
        </g>
    </g>
</svg>
