<?xml version="1.0" encoding="UTF-8" standalone="no"?>
<!DOCTYPE svg PUBLIC "-//W3C//DTD SVG 1.1//EN" "http://www.w3.org/Graphics/SVG/1.1/DTD/svg11.dtd">
<svg width="100%" height="100%" viewBox="0 0 76 24" version="1.1" xmlns="http://www.w3.org/2000/svg" xmlns:xlink="http://www.w3.org/1999/xlink" xml:space="preserve" xmlns:serif="http://www.serif.com/" style="fill-rule:evenodd;clip-rule:evenodd;stroke-linejoin:round;stroke-miterlimit:2;">
    <g transform="matrix(0.24,0,0,0.24,-426.512,-6424.49)">
        <g transform="matrix(8.33333,0,0,8.33333,0,0)">
            <g id="Visa">
                <g transform="matrix(1,0,0,1,245.012,3220.55)">
                    <path d="M0,-4.767C-0.058,-4.704 -0.079,-4.692 -0.086,-4.673C-0.539,-3.452 -0.99,-2.229 -1.444,-1.008C-1.525,-0.79 -1.404,-0.772 -1.238,-0.773C-0.641,-0.776 -0.044,-0.777 0.554,-0.774C0.729,-0.773 0.823,-0.818 0.78,-1.021C0.521,-2.252 0.267,-3.484 0,-4.767M-4.557,3.307C-4.971,3.306 -5.385,3.301 -5.798,3.308C-6.056,3.313 -6.127,3.237 -6.018,2.979C-4.95,0.442 -3.889,-2.098 -2.826,-4.638C-2.478,-5.471 -2.126,-6.303 -1.779,-7.136C-1.509,-7.783 -1.027,-8.093 -0.327,-8.086C0.359,-8.079 1.045,-8.078 1.73,-8.091C1.984,-8.096 2.096,-8.002 2.148,-7.752C2.727,-4.95 3.316,-2.15 3.902,0.651C4.062,1.417 4.215,2.186 4.387,2.95C4.445,3.211 4.376,3.312 4.106,3.309C3.399,3.301 2.691,3.3 1.984,3.31C1.756,3.313 1.647,3.221 1.606,3.003C1.539,2.639 1.451,2.279 1.385,1.915C1.346,1.699 1.248,1.603 1.014,1.605C-0.02,1.614 -1.054,1.612 -2.088,1.604C-2.308,1.602 -2.426,1.687 -2.495,1.893C-2.611,2.244 -2.764,2.584 -2.866,2.938C-2.951,3.235 -3.119,3.329 -3.415,3.312C-3.795,3.291 -4.176,3.307 -4.557,3.307" style="fill:rgb(254,253,253);fill-rule:nonzero;"/>
                </g>
                <g transform="matrix(1,0,0,1,220.718,3216.33)">
                    <path d="M0,3.636C0.215,3.059 0.432,2.481 0.646,1.904C1.316,0.098 1.991,-1.706 2.651,-3.515C2.747,-3.779 2.869,-3.886 3.163,-3.878C3.968,-3.854 4.774,-3.872 5.58,-3.868C5.924,-3.867 5.947,-3.834 5.814,-3.51C4.353,0.078 2.888,3.664 1.429,7.252C1.351,7.443 1.241,7.521 1.038,7.52C0.189,7.514 -0.66,7.511 -1.509,7.521C-1.753,7.524 -1.849,7.415 -1.907,7.191C-2.521,4.844 -3.143,2.499 -3.764,0.153C-3.962,-0.594 -4.166,-1.339 -4.356,-2.087C-4.409,-2.296 -4.521,-2.426 -4.712,-2.518C-5.486,-2.891 -6.259,-3.263 -7.096,-3.478C-7.148,-3.491 -7.2,-3.511 -7.249,-3.534C-7.342,-3.579 -7.483,-3.589 -7.459,-3.739C-7.436,-3.88 -7.299,-3.879 -7.197,-3.882C-6.981,-3.888 -6.764,-3.868 -6.547,-3.868C-5.273,-3.866 -4,-3.862 -2.726,-3.868C-1.961,-3.871 -1.455,-3.569 -1.304,-2.676C-1.06,-1.244 -0.711,0.169 -0.454,1.599C-0.333,2.273 -0.178,2.939 0,3.636" style="fill:rgb(254,253,253);fill-rule:nonzero;"/>
                </g>
                <g transform="matrix(1,0,0,1,234.058,3212.18)">
                    <path d="M0,11.813C-1.059,11.835 -2.04,11.676 -3,11.359C-3.249,11.276 -3.341,11.167 -3.286,10.886C-3.163,10.257 -3.078,9.62 -2.986,8.985C-2.948,8.719 -2.863,8.627 -2.585,8.767C-1.56,9.284 -0.469,9.479 0.674,9.366C0.994,9.335 1.294,9.238 1.551,9.043C2.093,8.633 2.101,8.046 1.575,7.614C1.065,7.196 0.447,6.962 -0.121,6.643C-0.426,6.471 -0.713,6.277 -0.983,6.057C-2.603,4.743 -2.352,2.782 -1.19,1.542C-0.462,0.765 0.472,0.356 1.502,0.184C2.74,-0.022 3.971,0.033 5.179,0.419C5.432,0.5 5.526,0.61 5.472,0.889C5.354,1.497 5.267,2.111 5.178,2.725C5.14,2.986 5.051,3.049 4.792,2.93C3.963,2.55 3.086,2.438 2.18,2.531C1.951,2.555 1.732,2.614 1.526,2.721C0.877,3.056 0.813,3.644 1.386,4.093C1.843,4.451 2.374,4.685 2.884,4.953C3.506,5.28 4.076,5.668 4.521,6.223C5.464,7.397 5.155,9.205 4.25,10.229C3.443,11.141 2.389,11.555 1.221,11.745C0.8,11.813 0.376,11.818 0,11.813" style="fill:rgb(254,253,253);fill-rule:nonzero;"/>
                </g>
                <g transform="matrix(1,0,0,1,227.46,3212.42)">
                    <path d="M0,11.43C-0.392,11.43 -0.784,11.425 -1.176,11.431C-1.413,11.435 -1.504,11.362 -1.461,11.101C-1.022,8.439 -0.594,5.775 -0.164,3.112C-0.018,2.21 0.136,1.309 0.262,0.404C0.306,0.091 0.434,-0.018 0.748,-0.01C1.499,0.009 2.25,0 3.002,-0.006C3.244,-0.008 3.328,0.072 3.287,0.326C2.702,3.901 2.12,7.476 1.55,11.054C1.504,11.341 1.395,11.448 1.11,11.434C0.741,11.417 0.37,11.43 0,11.43" style="fill:rgb(254,253,253);fill-rule:nonzero;"/>
                </g>
                <g transform="matrix(1,0,0,1,250.856,3223.13)">
                    <path d="M0,-0.028C-0.002,-0.316 -0.208,-0.525 -0.488,-0.52C-0.759,-0.515 -0.96,-0.295 -0.957,-0.007C-0.953,0.277 -0.742,0.491 -0.466,0.49C-0.199,0.489 0.002,0.266 0,-0.028M0.212,-0.031C0.215,0.322 -0.123,0.657 -0.48,0.656C-0.832,0.655 -1.151,0.341 -1.154,-0.008C-1.156,-0.385 -0.851,-0.685 -0.467,-0.68C-0.095,-0.676 0.209,-0.385 0.212,-0.031" style="fill:rgb(254,253,253);fill-rule:nonzero;"/>
                </g>
            </g>
        </g>
    </g>
</svg>
