<svg viewBox="0 0 71 73" fill="none" xmlns="http://www.w3.org/2000/svg">
<path d="M70.8884 37.3506C70.699 46.5436 66.9014 55.2933 60.3157 61.7101C53.73 68.1269 44.8847 71.696 35.6899 71.6467C28.9073 71.6285 22.2726 69.6624 16.5751 65.9825C10.8776 62.3025 6.35693 57.0635 3.55089 50.8885V72.0438C3.55089 72.2831 3.4558 72.5127 3.28655 72.682C3.11729 72.8512 2.88773 72.9463 2.64836 72.9463C2.409 72.9463 2.17944 72.8512 2.01018 72.682C1.84092 72.5127 1.74584 72.2831 1.74584 72.0438V48.3615C1.74584 48.1221 1.84092 47.8925 2.01018 47.7233C2.17944 47.554 2.409 47.4589 2.64836 47.4589H25.4823C25.7217 47.4589 25.9512 47.554 26.1205 47.7233C26.2897 47.8925 26.3848 48.1221 26.3848 48.3615C26.3848 48.6008 26.2897 48.8304 26.1205 48.9996C25.9512 49.1689 25.7217 49.264 25.4823 49.264H4.82345C7.74382 56.3514 13.0137 62.2184 19.7482 65.8798C26.4828 69.5412 34.272 70.7743 41.8081 69.3718C49.3442 67.9694 56.1685 64.0169 61.135 58.1779C66.1016 52.3389 68.9081 44.969 69.0834 37.3055C69.0834 37.0661 69.1785 36.8366 69.3477 36.6673C69.517 36.4981 69.7465 36.403 69.9859 36.403C70.1083 36.4028 70.2295 36.4276 70.342 36.4757C70.4546 36.5239 70.5562 36.5944 70.6406 36.6831C70.725 36.7717 70.7905 36.8766 70.8331 36.9914C70.8757 37.1061 70.8946 37.2284 70.8884 37.3506ZM1.79096 37.2604C2.03033 37.2604 2.25989 37.1653 2.42915 36.996C2.5984 36.8268 2.69349 36.5972 2.69349 36.3579C2.86877 28.6943 5.67528 21.3244 10.6419 15.4855C15.6084 9.6465 22.4326 5.69401 29.9688 4.29156C37.5049 2.88912 45.2941 4.12212 52.0287 7.78356C58.7632 11.445 64.0331 17.3119 66.9534 24.3994H46.3036C46.0642 24.3994 45.8347 24.4945 45.6654 24.6637C45.4962 24.833 45.4011 25.0625 45.4011 25.3019C45.4011 25.5413 45.4962 25.7708 45.6654 25.9401C45.8347 26.1093 46.0642 26.2044 46.3036 26.2044H69.1375C69.3769 26.2044 69.6065 26.1093 69.7757 25.9401C69.945 25.7708 70.0401 25.5413 70.0401 25.3019V1.64667C70.0401 1.4073 69.945 1.17774 69.7757 1.00848C69.6065 0.839228 69.3769 0.744141 69.1375 0.744141C68.8982 0.744141 68.6686 0.839228 68.4994 1.00848C68.3301 1.17774 68.235 1.4073 68.235 1.64667V22.838C65.4308 16.6617 60.9106 11.4214 55.2126 7.7412C49.5147 4.06097 42.8791 2.09587 36.096 2.07988C26.9012 2.03053 18.0559 5.59964 11.4702 12.0165C4.88453 18.4333 1.08691 27.1829 0.897461 36.3759C0.897461 36.6153 0.992548 36.8448 1.1618 37.0141C1.33106 37.1833 1.56062 37.2784 1.79999 37.2784L1.79096 37.2604Z" fill="#9C9C9C"/>
</svg>
