<svg viewBox="0 0 106 101" fill="none" xmlns="http://www.w3.org/2000/svg">
<g clip-path="url(#clip0_2009_103)">
<path d="M73.2572 100.32H52.2876C50.6849 100.317 49.1053 99.9363 47.6771 99.209C46.2489 98.4817 45.0122 97.428 44.0672 96.1334L20.3195 63.5183C19.5881 62.5362 19.0738 61.4097 18.8108 60.2137C18.5477 59.0177 18.542 57.7795 18.7939 56.5811C19.0458 55.3827 19.5497 54.2515 20.272 53.2626C20.9943 52.2738 21.9185 51.4497 22.9835 50.8452C24.9482 49.764 27.2452 49.4534 29.4265 49.9741C31.6077 50.4948 33.5168 51.8094 34.7813 53.6615L36.9505 56.668V14.5766C36.9096 13.5282 37.0997 12.4835 37.5074 11.5167C37.9152 10.5499 38.5306 9.68466 39.3101 8.98223C40.1107 8.30217 41.0492 7.80372 42.061 7.52121C43.0728 7.2387 44.1338 7.17885 45.1709 7.34577C46.8693 7.68468 48.3945 8.60985 49.4798 9.95949C50.565 11.3091 51.1413 12.9973 51.1078 14.7289V43.2338C51.1078 43.3448 51.1519 43.4513 51.2305 43.5298C51.309 43.6083 51.4154 43.6524 51.5265 43.6524H54.533C54.644 43.6524 54.7505 43.6083 54.829 43.5298C54.9075 43.4513 54.9516 43.3448 54.9516 43.2338V8.52554C54.9705 7.47876 55.2188 6.44885 55.6791 5.50852C56.1394 4.56818 56.8005 3.74032 57.6156 3.08335C58.3797 2.40308 59.2827 1.89746 60.262 1.6017C61.2413 1.30594 62.2733 1.22714 63.2862 1.37078C65.0316 1.70766 66.5968 2.66296 67.6944 4.06121C68.7921 5.45945 69.3483 7.20677 69.2612 8.98223V43.2338C69.2558 43.2869 69.2617 43.3405 69.2784 43.3911C69.2951 43.4418 69.3223 43.4884 69.3582 43.5278C69.3941 43.5673 69.4379 43.5988 69.4867 43.6203C69.5356 43.6417 69.5884 43.6527 69.6417 43.6524H72.8385C72.9428 43.6429 73.0398 43.5946 73.1102 43.5171C73.1807 43.4396 73.2195 43.3385 73.2191 43.2338V14.5766C73.2215 13.5337 73.4508 12.5037 73.8909 11.5581C74.331 10.6125 74.9715 9.77399 75.768 9.10061C76.5645 8.42722 77.4979 7.93511 78.5035 7.65838C79.5091 7.38165 80.5628 7.32692 81.5917 7.498C83.2901 7.8369 84.8153 8.76208 85.9006 10.1117C86.9858 11.4614 87.5621 13.1496 87.5286 14.8811V43.2338C87.5286 43.3448 87.5727 43.4513 87.6513 43.5298C87.7298 43.6083 87.8362 43.6524 87.9473 43.6524H90.9538C91.0648 43.6524 91.1713 43.6083 91.2498 43.5298C91.3283 43.4513 91.3724 43.3448 91.3724 43.2338V29.6854C91.3482 28.6559 91.5465 27.6334 91.9537 26.6876C92.3609 25.7418 92.9675 24.895 93.732 24.2051C94.5177 23.541 95.4394 23.0571 96.4322 22.7875C97.4251 22.5179 98.4649 22.4692 99.4786 22.6448C101.184 22.9758 102.718 23.8976 103.811 25.248C104.904 26.5984 105.485 28.291 105.454 30.0279V62.9474V68.4277C105.344 76.9045 101.907 84.9986 95.884 90.9646C89.861 96.9306 81.7347 100.29 73.2572 100.32ZM27.1698 52.025C26.1022 52.0182 25.0518 52.2939 24.1252 52.8242C23.3431 53.281 22.6649 53.8961 22.1341 54.6301C21.6032 55.364 21.2315 56.2007 21.0426 57.0866C20.8464 57.9781 20.8434 58.9013 21.0338 59.7941C21.2242 60.6868 21.6035 61.5285 22.1463 62.2624L45.8559 94.8775C46.5919 95.8937 47.5589 96.7204 48.6771 97.2895C49.7954 97.8586 51.0329 98.1536 52.2876 98.1504H73.2572C81.1654 98.1409 88.7514 95.016 94.3718 89.4526C99.9922 83.8892 103.194 76.3354 103.284 68.4277V30.0279C103.321 28.8202 102.934 27.6377 102.19 26.6855C101.446 25.7332 100.393 25.0711 99.2122 24.8141C98.5024 24.6922 97.7746 24.7267 97.0796 24.9153C96.3845 25.1039 95.739 25.4419 95.1881 25.9058C94.6373 26.3697 94.1943 26.9482 93.8902 27.6011C93.5861 28.2539 93.4282 28.9652 93.4275 29.6854V43.2338C93.4326 43.5818 93.3684 43.9274 93.2387 44.2504C93.109 44.5734 92.9163 44.8674 92.672 45.1152C92.4276 45.3631 92.1364 45.56 91.8153 45.6943C91.4942 45.8287 91.1496 45.8978 90.8016 45.8978H87.795C87.447 45.8978 87.1024 45.8287 86.7813 45.6943C86.4602 45.56 86.169 45.3631 85.9246 45.1152C85.6803 44.8674 85.4877 44.5734 85.358 44.2504C85.2282 43.9274 85.1641 43.5818 85.1691 43.2338V14.8811C85.1949 13.6745 84.7982 12.4968 84.0477 11.5517C83.2972 10.6066 82.24 9.95351 81.0589 9.70532C80.351 9.58278 79.6248 9.6171 78.9316 9.80587C78.2384 9.99465 77.5951 10.3333 77.047 10.7978C76.499 11.2624 76.0596 11.8416 75.7598 12.4945C75.4601 13.1475 75.3073 13.8582 75.3123 14.5766V43.2338C75.3173 43.5818 75.2531 43.9274 75.1234 44.2504C74.9937 44.5734 74.8011 44.8674 74.5567 45.1152C74.3124 45.3631 74.0212 45.56 73.7001 45.6943C73.379 45.8287 73.0344 45.8978 72.6863 45.8978H69.6417C69.2937 45.8978 68.9491 45.8287 68.628 45.6943C68.3069 45.56 68.0157 45.3631 67.7713 45.1152C67.527 44.8674 67.3343 44.5734 67.2046 44.2504C67.0749 43.9274 67.0107 43.5818 67.0158 43.2338V8.98223C67.0798 7.75533 66.7053 6.54567 65.9593 5.56955C65.2133 4.59343 64.1443 3.91452 62.9436 3.65421C62.2287 3.54528 61.4987 3.59082 60.8028 3.78776C60.107 3.98471 59.4614 4.32848 58.9096 4.79593C58.351 5.25832 57.9036 5.84048 57.6005 6.49928C57.2975 7.15807 57.1466 7.87661 57.1589 8.60166V43.2338C57.164 43.5818 57.0998 43.9274 56.9701 44.2504C56.8404 44.5734 56.6478 44.8674 56.4034 45.1152C56.1591 45.3631 55.8679 45.56 55.5468 45.6943C55.2257 45.8287 54.8811 45.8978 54.533 45.8978H51.5265C51.1784 45.8978 50.8338 45.8287 50.5127 45.6943C50.1916 45.56 49.9004 45.3631 49.6561 45.1152C49.4117 44.8674 49.2191 44.5734 49.0894 44.2504C48.9597 43.9274 48.8955 43.5818 48.9005 43.2338V14.8811C48.9263 13.6745 48.5297 12.4968 47.7791 11.5517C47.0286 10.6066 45.9714 9.95351 44.7903 9.70532C44.0824 9.58278 43.3562 9.6171 42.663 9.80587C41.9698 9.99465 41.3265 10.3333 40.7784 10.7978C40.2304 11.2624 39.791 11.8416 39.4913 12.4945C39.1915 13.1475 39.0387 13.8582 39.0437 14.5766V60.2454C39.0387 60.4843 38.959 60.7156 38.8156 60.9068C38.6722 61.098 38.4725 61.2393 38.2445 61.311C38.0276 61.3874 37.7918 61.3917 37.5723 61.3231C37.3528 61.2545 37.1614 61.1167 37.0267 60.9304L32.8023 54.9935C32.1605 54.0932 31.3167 53.3557 30.3386 52.8402C29.3605 52.3247 28.2753 52.0455 27.1698 52.025ZM59.0618 76.1152C58.7706 76.1294 58.4811 76.0636 58.2245 75.925C57.8666 75.7379 57.5744 75.4457 57.3873 75.0877L55.18 69.8739L50.0042 67.6665C49.7757 67.5604 49.5705 67.4099 49.4006 67.2238C49.2308 67.0377 49.0995 66.8197 49.0145 66.5825C48.9296 66.3453 48.8926 66.0936 48.9057 65.842C48.9187 65.5903 48.9817 65.3438 49.0908 65.1167C49.2556 64.7429 49.5543 64.4442 49.9281 64.2794L55.18 62.2624L57.3492 57.0486C57.4548 56.8198 57.6056 56.6148 57.7925 56.4459C57.9795 56.277 58.1988 56.1477 58.4371 56.0659C58.6754 55.9841 58.9278 55.9515 59.1791 55.9699C59.4303 55.9883 59.6753 56.0575 59.8991 56.1732C60.2729 56.338 60.5715 56.6367 60.7363 57.0105L62.9436 62.2624L68.1575 64.4317C68.386 64.5378 68.5912 64.6883 68.761 64.8744C68.9309 65.0605 69.0622 65.2785 69.1471 65.5157C69.2321 65.7529 69.2691 66.0046 69.256 66.2562C69.2429 66.5079 69.18 66.7544 69.0709 66.9815C68.8732 67.3316 68.5837 67.6211 68.2336 67.8188L62.9436 69.8739L60.7744 75.0496C60.6175 75.3699 60.3737 75.6396 60.0709 75.828C59.7681 76.0164 59.4184 76.116 59.0618 76.1152ZM51.8309 65.954L56.5881 67.9329C56.8605 68.0519 57.078 68.2694 57.197 68.5419L59.176 73.3371L61.193 68.5419C61.2963 68.272 61.5012 68.0534 61.7639 67.9329L66.4449 66.0681L61.6497 64.0892C61.387 63.9687 61.1821 63.7501 61.0788 63.4802L59.0618 58.4567L57.0828 63.2519C56.9638 63.5243 56.7464 63.7418 56.4739 63.8608L51.8309 65.954ZM16.9705 45.8978H16.2093C15.6182 45.6949 15.1277 45.2725 14.8393 44.718L10.8813 35.6223L1.89979 31.8166C1.50843 31.6149 1.18017 31.3093 0.950994 30.9334C0.72182 30.5574 0.600586 30.1257 0.600586 29.6854C0.600586 29.2451 0.72182 28.8133 0.950994 28.4374C1.18017 28.0615 1.50843 27.7559 1.89979 27.5542L10.9955 23.7485L14.8012 14.805C15.0003 14.3499 15.3319 13.9653 15.7526 13.7013C16.3273 13.4745 16.9667 13.4745 17.5413 13.7013C17.84 13.7901 18.1166 13.9412 18.3527 14.1445C18.5888 14.3479 18.7792 14.5989 18.9114 14.8811L22.7171 23.9007L31.6606 27.7064C32.062 27.9064 32.4035 28.2088 32.6508 28.583C32.898 28.9572 33.0421 29.3899 33.0687 29.8376C33.0187 30.2492 32.8719 30.6431 32.6404 30.9871C32.4089 31.3311 32.0992 31.6153 31.7367 31.8166L22.641 35.6223L18.8353 44.5658C18.6029 45.0573 18.215 45.4585 17.7316 45.7075C17.4177 45.8361 17.0813 45.9008 16.7421 45.8978H16.9705ZM11.9469 33.6814C12.0962 33.7226 12.2331 33.7996 12.3458 33.9057C12.4586 34.0118 12.5437 34.1438 12.5939 34.2903L16.3996 43.6524L20.7381 34.2903C20.81 34.1334 20.9153 33.9941 21.0469 33.8823C21.1784 33.7705 21.3328 33.6889 21.4993 33.6433L30.7472 29.8376L21.4232 25.6894C21.2766 25.6428 21.1424 25.5638 21.0305 25.4585C20.9185 25.3531 20.8316 25.2239 20.7762 25.0805L16.9705 15.7184L12.7461 25.0805C12.6728 25.2433 12.5623 25.3866 12.4235 25.499C12.2847 25.6114 12.1214 25.6896 11.9469 25.7274L2.66094 29.5332L11.9469 33.6814Z" fill="#9C9C9C"/>
</g>
<defs>
<clipPath id="clip0_2009_103">
<rect width="105" height="100" fill="white" transform="translate(0.529785 0.845215)"/>
</clipPath>
</defs>
</svg>
