<svg viewBox="0 0 88 71" fill="none" xmlns="http://www.w3.org/2000/svg">
<path d="M87.8056 35.1589C87.7849 35.1155 87.7581 35.0753 87.726 35.0396C87.7026 34.978 87.669 34.9209 87.6266 34.8705L71.7175 16.7441C71.6225 16.6417 71.507 16.5604 71.3785 16.5056C71.25 16.4507 71.1114 16.4236 70.9717 16.4259H60.5612V7.12906C60.5638 6.26167 60.3953 5.40229 60.0651 4.60018C59.735 3.79806 59.2498 3.06898 58.6374 2.45472C58.025 1.84046 57.2974 1.35309 56.4963 1.02055C55.6952 0.688014 54.8363 0.516842 53.9689 0.516846L6.96748 0.516846C6.10009 0.516842 5.24122 0.688014 4.4401 1.02055C3.63899 1.35309 2.91137 1.84046 2.29896 2.45472C1.68654 3.06898 1.20137 3.79806 0.871244 4.60018C0.54112 5.40229 0.372535 6.26167 0.375152 7.12906V49.4274C0.37515 51.1767 1.06938 52.8545 2.3054 54.0924C3.54141 55.3302 5.21817 56.027 6.96748 56.0296H10.5868C10.0367 57.6317 9.87704 59.342 10.1212 61.0182C10.3653 62.6944 11.0061 64.2881 11.9904 65.6668C12.9746 67.0454 14.2738 68.1691 15.7799 68.9443C17.286 69.7196 18.9554 70.1241 20.6493 70.1241C22.3432 70.1241 24.0126 69.7196 25.5187 68.9443C27.0248 68.1691 28.324 67.0454 29.3082 65.6668C30.2925 64.2881 30.9333 62.6944 31.1774 61.0182C31.4216 59.342 31.2619 57.6317 30.7118 56.0296H63.0172C62.4671 57.6317 62.3074 59.342 62.5516 61.0182C62.7957 62.6944 63.4365 64.2881 64.4208 65.6668C65.405 67.0454 66.7042 68.1691 68.2103 68.9443C69.7164 69.7196 71.3858 70.1241 73.0797 70.1241C74.7736 70.1241 76.443 69.7196 77.9491 68.9443C79.4552 68.1691 80.7544 67.0454 81.7386 65.6668C82.7229 64.2881 83.3637 62.6944 83.6078 61.0182C83.852 59.342 83.6923 57.6317 83.1422 56.0296H86.8808C87.1445 56.0296 87.3975 55.9249 87.5839 55.7384C87.7704 55.5519 87.8752 55.299 87.8752 55.0353V35.5268C87.8721 35.4012 87.8486 35.2769 87.8056 35.1589ZM70.5541 18.4146L84.6933 34.5325H60.5612V18.4146H70.5541ZM20.6493 68.1305C18.936 68.1324 17.2606 67.6262 15.8351 66.6758C14.4096 65.7253 13.298 64.3734 12.6409 62.7911C11.9839 61.2088 11.811 59.4671 12.144 57.7865C12.4771 56.1059 13.3011 54.5618 14.5119 53.3496C15.7227 52.1374 17.2659 51.3116 18.9461 50.9766C20.6264 50.6416 22.3682 50.8126 23.9513 51.4678C25.5344 52.123 26.8875 53.233 27.8396 54.6574C28.7917 56.0818 29.2999 57.7567 29.2999 59.47C29.2972 61.7644 28.3853 63.9642 26.7639 65.5875C25.1424 67.2108 22.9437 68.1252 20.6493 68.1305ZM20.6493 48.8308C18.8026 48.8321 16.9881 49.3142 15.3842 50.2295C13.7802 51.1447 12.4422 52.4617 11.5016 54.0509H6.96748C6.36124 54.0509 5.76097 53.9312 5.20112 53.6986C4.64127 53.466 4.13288 53.1251 3.70513 52.6955C3.27737 52.2659 2.93868 51.7561 2.7085 51.1952C2.47832 50.6344 2.36117 50.0336 2.36379 49.4274V7.12906C2.36117 6.52282 2.47832 5.92204 2.7085 5.3612C2.93868 4.80035 3.27737 4.2905 3.70513 3.8609C4.13288 3.43129 4.64127 3.09041 5.20112 2.85781C5.76097 2.62521 6.36124 2.50548 6.96748 2.50548H53.9689C55.1925 2.50548 56.366 2.99156 57.2312 3.85678C58.0965 4.72201 58.5825 5.89551 58.5825 7.11912V54.041H29.7473C28.8118 52.4584 27.4817 51.1454 25.8871 50.2305C24.2924 49.3155 22.4878 48.8298 20.6493 48.8208V48.8308ZM73.03 68.1305C71.3167 68.1324 69.6413 67.6262 68.2158 66.6758C66.7902 65.7253 65.6786 64.3734 65.0216 62.7911C64.3646 61.2088 64.1917 59.4671 64.5247 57.7865C64.8578 56.1059 65.6818 54.5618 66.8926 53.3496C68.1034 52.1374 69.6465 51.3116 71.3268 50.9766C73.007 50.6416 74.7489 50.8126 76.332 51.4678C77.9151 52.123 79.2682 53.233 80.2203 54.6574C81.1724 56.0818 81.6805 57.7567 81.6805 59.47C81.6779 61.7644 80.766 63.9642 79.1446 65.5875C77.5231 67.2108 75.3244 68.1252 73.03 68.1305ZM82.1678 54.0509C81.2301 52.4615 79.894 51.1441 78.2915 50.2289C76.689 49.3136 74.8754 48.8323 73.03 48.8323C71.1845 48.8323 69.371 49.3136 67.7685 50.2289C66.166 51.1441 64.8299 52.4615 63.8922 54.0509H60.5612V36.5211H85.8865V54.041L82.1678 54.0509Z" fill="#9C9C9C"/>
</svg>
