<svg width="32" height="33" viewBox="0 0 32 33" fill="currentColor" xmlns="http://www.w3.org/2000/svg">
<symbol id="bag" viewBox="0 0 32 33">
<path fill="currentColor" d="M30.4824 25.1247L28.7012 10.1247C28.6275 9.51579 28.3331 8.95496 27.8738 8.54839C27.4145 8.14183 26.8221 7.91773 26.2087 7.9185H22.4787C22.3468 6.29084 21.607 4.77248 20.4066 3.6654C19.2061 2.55833 17.6329 1.94366 15.9999 1.94366C14.3669 1.94366 12.7938 2.55833 11.5933 3.6654C10.3929 4.77248 9.65313 6.29084 9.52119 7.9185H5.79119C5.17779 7.91773 4.58537 8.14183 4.12606 8.54839C3.66674 8.95496 3.37239 9.51579 3.29869 10.1247L1.51744 25.1247C1.47585 25.4762 1.50937 25.8325 1.61576 26.1701C1.72216 26.5076 1.89902 26.8187 2.13464 27.0828C2.37026 27.3469 2.65927 27.558 2.98255 27.7021C3.30583 27.8461 3.65602 27.9199 4.00994 27.9185H27.9899C28.3439 27.9199 28.6941 27.8461 29.0173 27.7021C29.3406 27.558 29.6296 27.3469 29.8652 27.0828C30.1009 26.8187 30.2777 26.5076 30.3841 26.1701C30.4905 25.8325 30.524 25.4762 30.4824 25.1247ZM15.9999 4.9185C16.8415 4.91858 17.6549 5.2219 18.291 5.77286C18.9272 6.32383 19.3435 7.08556 19.4637 7.9185H12.5362C12.6564 7.08556 13.0727 6.32383 13.7089 5.77286C14.345 5.2219 15.1584 4.91858 15.9999 4.9185ZM4.56244 24.9185L6.22619 10.9185H9.49994V13.4185C9.49994 13.8163 9.65798 14.1979 9.93928 14.4792C10.2206 14.7605 10.6021 14.9185 10.9999 14.9185C11.3978 14.9185 11.7793 14.7605 12.0606 14.4792C12.3419 14.1979 12.4999 13.8163 12.4999 13.4185V10.9185H19.4999V13.4185C19.4999 13.8163 19.658 14.1979 19.9393 14.4792C20.2206 14.7605 20.6021 14.9185 20.9999 14.9185C21.3978 14.9185 21.7793 14.7605 22.0606 14.4792C22.3419 14.1979 22.4999 13.8163 22.4999 13.4185V10.9185H25.7737L27.4374 24.9185H4.56244Z"/>
<symbol>
</svg>
