<svg viewBox="0 0 33 32" fill="none" xmlns="http://www.w3.org/2000/svg">
<path d="M28.9414 5.5H4.94141C4.27837 5.5 3.64248 5.76339 3.17364 6.23223C2.7048 6.70107 2.44141 7.33696 2.44141 8V24C2.44141 24.663 2.7048 25.2989 3.17364 25.7678C3.64248 26.2366 4.27837 26.5 4.94141 26.5H28.9414C29.6044 26.5 30.2403 26.2366 30.7092 25.7678C31.178 25.2989 31.4414 24.663 31.4414 24V8C31.4414 7.33696 31.178 6.70107 30.7092 6.23223C30.2403 5.76339 29.6044 5.5 28.9414 5.5ZM28.4414 8.5V11H5.44141V8.5H28.4414ZM5.44141 23.5V14H28.4414V23.5H5.44141ZM26.9414 20.5C26.9414 20.8978 26.7834 21.2794 26.5021 21.5607C26.2208 21.842 25.8392 22 25.4414 22H21.4414C21.0436 22 20.6621 21.842 20.3807 21.5607C20.0994 21.2794 19.9414 20.8978 19.9414 20.5C19.9414 20.1022 20.0994 19.7206 20.3807 19.4393C20.6621 19.158 21.0436 19 21.4414 19H25.4414C25.8392 19 26.2208 19.158 26.5021 19.4393C26.7834 19.7206 26.9414 20.1022 26.9414 20.5ZM18.4414 20.5C18.4414 20.8978 18.2834 21.2794 18.0021 21.5607C17.7208 21.842 17.3392 22 16.9414 22H15.4414C15.0436 22 14.6621 21.842 14.3807 21.5607C14.0994 21.2794 13.9414 20.8978 13.9414 20.5C13.9414 20.1022 14.0994 19.7206 14.3807 19.4393C14.6621 19.158 15.0436 19 15.4414 19H16.9414C17.3392 19 17.7208 19.158 18.0021 19.4393C18.2834 19.7206 18.4414 20.1022 18.4414 20.5Z" fill="#343330"/>
</svg>
