<svg width="32" height="33" viewBox="0 0 32 33" fill="currentColor" xmlns="http://www.w3.org/2000/svg">
<symbol id="caret-right" viewBox="0 0 32 33">
<path fill="currentColor" d="M23.0612 17.5012L13.0612 27.5012C12.7794 27.783 12.3972 27.9413 11.9987 27.9413C11.6002 27.9413 11.218 27.783 10.9362 27.5012C10.6544 27.2194 10.4961 26.8372 10.4961 26.4387C10.4961 26.0402 10.6544 25.658 10.9362 25.3762L19.8749 16.4399L10.9387 7.5012C10.7992 7.36167 10.6885 7.19602 10.613 7.01372C10.5375 6.83142 10.4986 6.63602 10.4986 6.4387C10.4986 6.24137 10.5375 6.04598 10.613 5.86368C10.6885 5.68137 10.7992 5.51573 10.9387 5.3762C11.0782 5.23667 11.2439 5.12599 11.4262 5.05048C11.6085 4.97496 11.8039 4.9361 12.0012 4.9361C12.1985 4.9361 12.3939 4.97496 12.5762 5.05048C12.7585 5.12599 12.9242 5.23667 13.0637 5.3762L23.0637 15.3762C23.2034 15.5157 23.3141 15.6814 23.3896 15.8639C23.4651 16.0463 23.5039 16.2418 23.5036 16.4392C23.5034 16.6366 23.4642 16.8321 23.3883 17.0143C23.3123 17.1965 23.2012 17.362 23.0612 17.5012Z"/>
</symbol>
</svg>
