<svg width="32" height="33" viewBox="0 0 32 33" fill="none" xmlns="http://www.w3.org/2000/svg">
<path d="M21.0613 25.3787C21.3431 25.6605 21.5014 26.0427 21.5014 26.4412C21.5014 26.8397 21.3431 27.2219 21.0613 27.5037C20.7795 27.7855 20.3973 27.9438 19.9988 27.9438C19.6003 27.9438 19.2181 27.7855 18.9363 27.5037L8.9363 17.5037C8.79646 17.3643 8.6855 17.1988 8.6098 17.0164C8.53409 16.8341 8.49512 16.6386 8.49512 16.4412C8.49512 16.2438 8.53409 16.0483 8.6098 15.866C8.6855 15.6836 8.79646 15.5181 8.9363 15.3787L18.9363 5.3787C19.2181 5.09691 19.6003 4.9386 19.9988 4.9386C20.3973 4.9386 20.7795 5.09691 21.0613 5.3787C21.3431 5.66049 21.5014 6.04269 21.5014 6.4412C21.5014 6.83972 21.3431 7.22191 21.0613 7.5037L12.125 16.44L21.0613 25.3787Z" fill="white"/>
</svg>
