<svg width="32" height="32" viewBox="0 0 32 32" fill="none" xmlns="http://www.w3.org/2000/svg">
<path d="M29.1513 7.03875C29.0105 6.87014 28.8344 6.7345 28.6355 6.6414C28.4366 6.54831 28.2196 6.50004 28 6.5H8.25L7.56625 2.73125C7.50335 2.38585 7.32128 2.07345 7.05176 1.84847C6.78224 1.62349 6.44233 1.50017 6.09125 1.5H3C2.60218 1.5 2.22064 1.65804 1.93934 1.93934C1.65804 2.22064 1.5 2.60218 1.5 3C1.5 3.39782 1.65804 3.77936 1.93934 4.06066C2.22064 4.34196 2.60218 4.5 3 4.5H4.83875L7.9525 21.625C8.0361 22.0799 8.20901 22.5136 8.46125 22.9013C8.01468 23.4238 7.7103 24.0525 7.57745 24.7269C7.4446 25.4013 7.48777 26.0986 7.7028 26.7514C7.91783 27.4042 8.29746 27.9907 8.80508 28.4541C9.31269 28.9175 9.93116 29.2423 10.6008 29.3972C11.2705 29.5521 11.9688 29.5317 12.6283 29.3382C13.2879 29.1447 13.8864 28.7844 14.3662 28.2923C14.846 27.8001 15.1909 27.1926 15.3676 26.5283C15.5443 25.8641 15.5468 25.1655 15.375 24.5H19.625C19.4165 25.3076 19.4656 26.1603 19.7656 26.9386C20.0656 27.7169 20.6014 28.382 21.2981 28.8407C21.9947 29.2995 22.8174 29.529 23.6509 29.4971C24.4844 29.4652 25.2871 29.1735 25.9467 28.6629C26.6062 28.1523 27.0897 27.4482 27.3293 26.6492C27.569 25.8503 27.5529 24.9964 27.2833 24.207C27.0136 23.4177 26.504 22.7324 25.8256 22.247C25.1473 21.7616 24.3341 21.5004 23.5 21.5H11.3962C11.2794 21.4999 11.1662 21.4588 11.0765 21.3839C10.9867 21.309 10.926 21.205 10.905 21.09L10.615 19.5H24.5125C25.3324 19.5 26.1262 19.2122 26.7555 18.6868C27.3849 18.1614 27.8098 17.4317 27.9562 16.625L29.4762 8.2675C29.5153 8.05138 29.5065 7.82932 29.4503 7.617C29.3942 7.40468 29.2921 7.20728 29.1513 7.03875ZM12.5 25.5C12.5 25.6978 12.4414 25.8911 12.3315 26.0556C12.2216 26.22 12.0654 26.3482 11.8827 26.4239C11.7 26.4996 11.4989 26.5194 11.3049 26.4808C11.1109 26.4422 10.9327 26.347 10.7929 26.2071C10.653 26.0673 10.5578 25.8891 10.5192 25.6951C10.4806 25.5011 10.5004 25.3 10.5761 25.1173C10.6518 24.9346 10.78 24.7784 10.9444 24.6685C11.1089 24.5586 11.3022 24.5 11.5 24.5C11.7652 24.5 12.0196 24.6054 12.2071 24.7929C12.3946 24.9804 12.5 25.2348 12.5 25.5ZM23.5 26.5C23.3022 26.5 23.1089 26.4414 22.9444 26.3315C22.78 26.2216 22.6518 26.0654 22.5761 25.8827C22.5004 25.7 22.4806 25.4989 22.5192 25.3049C22.5578 25.1109 22.653 24.9327 22.7929 24.7929C22.9327 24.653 23.1109 24.5578 23.3049 24.5192C23.4989 24.4806 23.7 24.5004 23.8827 24.5761C24.0654 24.6518 24.2216 24.78 24.3315 24.9444C24.4414 25.1089 24.5 25.3022 24.5 25.5C24.5 25.7652 24.3946 26.0196 24.2071 26.2071C24.0196 26.3946 23.7652 26.5 23.5 26.5ZM25 16.09C24.9791 16.2044 24.919 16.3078 24.83 16.3827C24.741 16.4575 24.6288 16.499 24.5125 16.5H10.07L8.7975 9.5H26.2025L25 16.09Z" fill="#343330"/>
</svg>
