<svg width="32" height="33" viewBox="0 0 32 33" fill="currentColor" xmlns="http://www.w3.org/2000/svg">
<symbol id="heart" viewBox="0 0 32 33">
<path fill="currentColor" d="M28.2299 7.22912C26.7783 5.78183 24.813 4.96776 22.7632 4.96472C20.7134 4.96167 18.7457 5.7699 17.2899 7.21287L15.9999 8.41037L14.7099 7.21287C13.2545 5.76114 11.282 4.94701 9.22641 4.94959C7.17078 4.95217 5.20036 5.77124 3.74863 7.22662C2.2969 8.68199 1.48278 10.6545 1.48536 12.7101C1.48794 14.7657 2.30701 16.7361 3.76238 18.1879L14.9311 29.5191C15.0707 29.6608 15.2371 29.7734 15.4206 29.8502C15.604 29.927 15.801 29.9666 15.9999 29.9666C16.1988 29.9666 16.3957 29.927 16.5792 29.8502C16.7627 29.7734 16.9291 29.6608 17.0686 29.5191L28.2299 18.1954C28.9499 17.4757 29.521 16.6212 29.9107 15.6807C30.3004 14.7402 30.501 13.7321 30.501 12.7141C30.501 11.6961 30.3004 10.688 29.9107 9.74755C29.521 8.80706 28.9499 7.95256 28.2299 7.23287V7.22912ZM26.1049 16.0779L15.9999 26.3254L5.89113 16.0691C5.00339 15.1777 4.50554 13.9705 4.50684 12.7124C4.50815 11.4543 5.00849 10.2482 5.89808 9.35857C6.78768 8.46898 7.99385 7.96863 9.25192 7.96733C10.51 7.96602 11.7172 8.46387 12.6086 9.35162C12.6211 9.36412 12.6336 9.37662 12.6474 9.38787L14.9774 11.5579C15.255 11.8165 15.6204 11.9604 15.9999 11.9604C16.3794 11.9604 16.7447 11.8165 17.0224 11.5579L19.3524 9.38787C19.3661 9.37662 19.3786 9.36412 19.3911 9.35162C19.8328 8.91103 20.3569 8.56175 20.9335 8.32372C21.5102 8.08568 22.128 7.96355 22.7519 7.96431C23.3757 7.96506 23.9933 8.08868 24.5694 8.32811C25.1454 8.56754 25.6687 8.91809 26.1093 9.35974C26.5498 9.80139 26.8991 10.3255 27.1372 10.9021C27.3752 11.4788 27.4973 12.0966 27.4966 12.7205C27.4958 13.3443 27.3722 13.9619 27.1328 14.538C26.8933 15.114 26.5428 15.6373 26.1011 16.0779H26.1049Z" />
<symbol>
</svg>
