<svg width="33" height="32" viewBox="0 0 33 32" fill="none" xmlns="http://www.w3.org/2000/svg">
<path d="M11.4414 8C11.4414 7.60218 11.5994 7.22064 11.8807 6.93934C12.1621 6.65804 12.5436 6.5 12.9414 6.5H27.9414C28.3392 6.5 28.7208 6.65804 29.0021 6.93934C29.2834 7.22064 29.4414 7.60218 29.4414 8C29.4414 8.39782 29.2834 8.77936 29.0021 9.06066C28.7208 9.34196 28.3392 9.5 27.9414 9.5H12.9414C12.5436 9.5 12.1621 9.34196 11.8807 9.06066C11.5994 8.77936 11.4414 8.39782 11.4414 8ZM27.9414 14.5H12.9414C12.5436 14.5 12.1621 14.658 11.8807 14.9393C11.5994 15.2206 11.4414 15.6022 11.4414 16C11.4414 16.3978 11.5994 16.7794 11.8807 17.0607C12.1621 17.342 12.5436 17.5 12.9414 17.5H27.9414C28.3392 17.5 28.7208 17.342 29.0021 17.0607C29.2834 16.7794 29.4414 16.3978 29.4414 16C29.4414 15.6022 29.2834 15.2206 29.0021 14.9393C28.7208 14.658 28.3392 14.5 27.9414 14.5ZM27.9414 22.5H12.9414C12.5436 22.5 12.1621 22.658 11.8807 22.9393C11.5994 23.2206 11.4414 23.6022 11.4414 24C11.4414 24.3978 11.5994 24.7794 11.8807 25.0607C12.1621 25.342 12.5436 25.5 12.9414 25.5H27.9414C28.3392 25.5 28.7208 25.342 29.0021 25.0607C29.2834 24.7794 29.4414 24.3978 29.4414 24C29.4414 23.6022 29.2834 23.2206 29.0021 22.9393C28.7208 22.658 28.3392 22.5 27.9414 22.5ZM7.94141 6.5H5.94141C5.54358 6.5 5.16205 6.65804 4.88075 6.93934C4.59944 7.22064 4.44141 7.60218 4.44141 8C4.44141 8.39782 4.59944 8.77936 4.88075 9.06066C5.16205 9.34196 5.54358 9.5 5.94141 9.5H7.94141C8.33923 9.5 8.72076 9.34196 9.00207 9.06066C9.28337 8.77936 9.44141 8.39782 9.44141 8C9.44141 7.60218 9.28337 7.22064 9.00207 6.93934C8.72076 6.65804 8.33923 6.5 7.94141 6.5ZM7.94141 14.5H5.94141C5.54358 14.5 5.16205 14.658 4.88075 14.9393C4.59944 15.2206 4.44141 15.6022 4.44141 16C4.44141 16.3978 4.59944 16.7794 4.88075 17.0607C5.16205 17.342 5.54358 17.5 5.94141 17.5H7.94141C8.33923 17.5 8.72076 17.342 9.00207 17.0607C9.28337 16.7794 9.44141 16.3978 9.44141 16C9.44141 15.6022 9.28337 15.2206 9.00207 14.9393C8.72076 14.658 8.33923 14.5 7.94141 14.5ZM7.94141 22.5H5.94141C5.54358 22.5 5.16205 22.658 4.88075 22.9393C4.59944 23.2206 4.44141 23.6022 4.44141 24C4.44141 24.3978 4.59944 24.7794 4.88075 25.0607C5.16205 25.342 5.54358 25.5 5.94141 25.5H7.94141C8.33923 25.5 8.72076 25.342 9.00207 25.0607C9.28337 24.7794 9.44141 24.3978 9.44141 24C9.44141 23.6022 9.28337 23.2206 9.00207 22.9393C8.72076 22.658 8.33923 22.5 7.94141 22.5Z" fill="#343330"/>
</svg>
