<svg width="32" height="33" viewBox="0 0 32 33" fill="currentColor" xmlns="http://www.w3.org/2000/svg">
<symbol id="menu" viewBox="0 0 32 33">
<path fill="currentColor" d="M28.5 16.4399C28.5 16.8378 28.342 17.2193 28.0607 17.5006C27.7794 17.7819 27.3978 17.9399 27 17.9399H5C4.60218 17.9399 4.22064 17.7819 3.93934 17.5006C3.65804 17.2193 3.5 16.8378 3.5 16.4399C3.5 16.0421 3.65804 15.6606 3.93934 15.3793C4.22064 15.098 4.60218 14.9399 5 14.9399H27C27.3978 14.9399 27.7794 15.098 28.0607 15.3793C28.342 15.6606 28.5 16.0421 28.5 16.4399ZM5 9.93994H27C27.3978 9.93994 27.7794 9.78191 28.0607 9.5006C28.342 9.2193 28.5 8.83777 28.5 8.43994C28.5 8.04212 28.342 7.66059 28.0607 7.37928C27.7794 7.09798 27.3978 6.93994 27 6.93994H5C4.60218 6.93994 4.22064 7.09798 3.93934 7.37928C3.65804 7.66059 3.5 8.04212 3.5 8.43994C3.5 8.83777 3.65804 9.2193 3.93934 9.5006C4.22064 9.78191 4.60218 9.93994 5 9.93994ZM27 22.9399H5C4.60218 22.9399 4.22064 23.098 3.93934 23.3793C3.65804 23.6606 3.5 24.0421 3.5 24.4399C3.5 24.8378 3.65804 25.2193 3.93934 25.5006C4.22064 25.7819 4.60218 25.9399 5 25.9399H27C27.3978 25.9399 27.7794 25.7819 28.0607 25.5006C28.342 25.2193 28.5 24.8378 28.5 24.4399C28.5 24.0421 28.342 23.6606 28.0607 23.3793C27.7794 23.098 27.3978 22.9399 27 22.9399Z"/>
</symbol>
</svg>
