<svg width="32" height="33" viewBox="0 0 32 33" fill="currentColor" xmlns="http://www.w3.org/2000/svg">
<symbol id="search" viewBox="0 0 32 33">
<path fill="currentColor" d="M29.0612 27.3661L23.125 21.4273C24.9048 19.1079 25.7358 16.1983 25.4493 13.2887C25.1628 10.3792 23.7803 7.68753 21.5823 5.75981C19.3842 3.83208 16.5351 2.81263 13.6131 2.90827C10.691 3.0039 7.91472 4.20745 5.8474 6.27477C3.78008 8.34209 2.57653 11.1184 2.4809 14.0404C2.38527 16.9625 3.40471 19.8116 5.33244 22.0096C7.26016 24.2077 9.95181 25.5902 12.8614 25.8767C15.7709 26.1632 18.6805 25.3322 21 23.5523L26.9412 29.4948C27.0807 29.6343 27.2464 29.745 27.4287 29.8205C27.611 29.8961 27.8064 29.9349 28.0037 29.9349C28.201 29.9349 28.3964 29.8961 28.5787 29.8205C28.761 29.745 28.9267 29.6343 29.0662 29.4948C29.2057 29.3553 29.3164 29.1896 29.3919 29.0073C29.4674 28.825 29.5063 28.6296 29.5063 28.4323C29.5063 28.235 29.4674 28.0396 29.3919 27.8573C29.3164 27.675 29.2057 27.5093 29.0662 27.3698L29.0612 27.3661ZM5.49995 14.4273C5.49995 12.7462 5.99847 11.1028 6.93246 9.70497C7.86645 8.30715 9.19397 7.21769 10.7471 6.57434C12.3003 5.931 14.0094 5.76267 15.6582 6.09064C17.3071 6.41862 18.8216 7.22817 20.0104 8.41691C21.1991 9.60566 22.0087 11.1202 22.3366 12.7691C22.6646 14.4179 22.4963 16.127 21.8529 17.6801C21.2096 19.2333 20.1201 20.5608 18.7223 21.4948C17.3245 22.4288 15.6811 22.9273 14 22.9273C11.7463 22.925 9.58566 22.0287 7.9921 20.4352C6.39854 18.8416 5.50227 16.6809 5.49995 14.4273Z"/>
</symbol>
</svg>
