<svg viewBox="0 0 32 32" fill="currentColor" xmlns="http://www.w3.org/2000/svg">
<symbol id="shield" viewBox="0 0 32 32">
<path d="M26 4.5H6C5.33696 4.5 4.70107 4.76339 4.23223 5.23223C3.76339 5.70107 3.5 6.33696 3.5 7V14C3.5 20.7863 6.79 24.9025 9.55 27.1612C12.5138 29.585 15.48 30.4113 15.605 30.4475C15.8637 30.5175 16.1363 30.5175 16.395 30.4475C16.52 30.4125 19.4863 29.585 22.45 27.1612C25.21 24.9025 28.5 20.7863 28.5 14V7C28.5 6.33696 28.2366 5.70107 27.7678 5.23223C27.2989 4.76339 26.663 4.5 26 4.5ZM25.5 14C25.5 18.4637 23.8638 22.0863 20.6362 24.7687C19.2528 25.9103 17.685 26.8077 16 27.4225C14.3149 26.8081 12.747 25.9106 11.3638 24.7687C8.13625 22.0863 6.5 18.4637 6.5 14V7.5H25.5V14ZM9.93875 18.0613C9.79922 17.9217 9.68854 17.7561 9.61303 17.5738C9.53751 17.3915 9.49865 17.1961 9.49865 16.9988C9.49865 16.8014 9.53751 16.606 9.61303 16.4237C9.68854 16.2414 9.79922 16.0758 9.93875 15.9362C10.0783 15.7967 10.2439 15.686 10.4262 15.6105C10.6085 15.535 10.8039 15.4961 11.0013 15.4961C11.1986 15.4961 11.394 15.535 11.5763 15.6105C11.7586 15.686 11.9242 15.7967 12.0638 15.9362L14 17.875L19.9387 11.935C20.2205 11.6532 20.6027 11.4949 21.0012 11.4949C21.3998 11.4949 21.782 11.6532 22.0637 11.935C22.3455 12.2168 22.5039 12.599 22.5039 12.9975C22.5039 13.396 22.3455 13.7782 22.0637 14.06L15.0638 21.06C14.9244 21.1998 14.7588 21.3108 14.5765 21.3865C14.3942 21.4622 14.1987 21.5012 14.0013 21.5012C13.8038 21.5012 13.6083 21.4622 13.426 21.3865C13.2437 21.3108 13.0781 21.1998 12.9388 21.06L9.93875 18.0613Z"/>

</symbol>
</svg>
