<svg viewBox="0 0 32 32" fill="currentColor" xmlns="http://www.w3.org/2000/svg">
<symbol id="truck" viewBox="0 0 32 33">
<path d="M31.8925 14.4425L30.1425 10.0675C29.958 9.60344 29.6379 9.20571 29.2241 8.92612C28.8103 8.64654 28.3219 8.49805 27.8225 8.5H24.5V8C24.5 7.60218 24.342 7.22064 24.0607 6.93934C23.7794 6.65804 23.3978 6.5 23 6.5H4C3.33696 6.5 2.70107 6.76339 2.23223 7.23223C1.76339 7.70107 1.5 8.33696 1.5 9V23C1.5 23.663 1.76339 24.2989 2.23223 24.7678C2.70107 25.2366 3.33696 25.5 4 25.5H5.7575C6.06775 26.3773 6.64232 27.1368 7.4021 27.674C8.16187 28.2111 9.0695 28.4996 10 28.4996C10.9305 28.4996 11.8381 28.2111 12.5979 27.674C13.3577 27.1368 13.9323 26.3773 14.2425 25.5H19.7575C20.0677 26.3773 20.6423 27.1368 21.4021 27.674C22.1619 28.2111 23.0695 28.4996 24 28.4996C24.9305 28.4996 25.8381 28.2111 26.5979 27.674C27.3577 27.1368 27.9323 26.3773 28.2425 25.5H29.5C30.163 25.5 30.7989 25.2366 31.2678 24.7678C31.7366 24.2989 32 23.663 32 23V15C31.9838 14.8109 31.9477 14.6241 31.8925 14.4425ZM24.5 11.5H27.485L28.285 13.5H24.5V11.5ZM10 25.5C9.70333 25.5 9.41332 25.412 9.16665 25.2472C8.91997 25.0824 8.72771 24.8481 8.61418 24.574C8.50065 24.2999 8.47094 23.9983 8.52882 23.7074C8.5867 23.4164 8.72956 23.1491 8.93934 22.9393C9.14912 22.7296 9.41639 22.5867 9.70736 22.5288C9.99834 22.4709 10.2999 22.5007 10.574 22.6142C10.8481 22.7277 11.0824 22.92 11.2472 23.1666C11.412 23.4133 11.5 23.7033 11.5 24C11.5 24.3978 11.342 24.7794 11.0607 25.0607C10.7794 25.342 10.3978 25.5 10 25.5ZM21.5 20.26C20.6947 20.8013 20.084 21.5863 19.7575 22.5H14.2425C13.9323 21.6227 13.3577 20.8632 12.5979 20.326C11.8381 19.7889 10.9305 19.5004 10 19.5004C9.0695 19.5004 8.16187 19.7889 7.4021 20.326C6.64232 20.8632 6.06775 21.6227 5.7575 22.5H4.5V17.5H21.5V20.26ZM21.5 14.5H4.5V9.5H21.5V14.5ZM24 25.5C23.7033 25.5 23.4133 25.412 23.1666 25.2472C22.92 25.0824 22.7277 24.8481 22.6142 24.574C22.5007 24.2999 22.4709 23.9983 22.5288 23.7074C22.5867 23.4164 22.7296 23.1491 22.9393 22.9393C23.1491 22.7296 23.4164 22.5867 23.7074 22.5288C23.9983 22.4709 24.2999 22.5007 24.574 22.6142C24.8481 22.7277 25.0824 22.92 25.2472 23.1666C25.412 23.4133 25.5 23.7033 25.5 24C25.5 24.3978 25.342 24.7794 25.0607 25.0607C24.7794 25.342 24.3978 25.5 24 25.5ZM29 22.5H28.2425C27.9595 21.704 27.4586 21.0035 26.797 20.4782C26.1353 19.9528 25.3394 19.6239 24.5 19.5287V16.5H29V22.5Z" />
</symbol>
</svg>
