<svg width="32" height="33" viewBox="0 0 32 33" fill="currentColor" xmlns="http://www.w3.org/2000/svg">
<symbol id="user" viewBox="0 0 32 33">
<path fill="currentColor" d="M29.2976 27.1937C27.5838 24.1858 24.9077 21.8421 21.7001 20.5399C23.2952 19.3436 24.4734 17.6757 25.0679 15.7725C25.6624 13.8693 25.6431 11.8273 25.0125 9.93578C24.382 8.04421 23.1723 6.39899 21.5548 5.23314C19.9373 4.0673 17.9939 3.43994 16.0001 3.43994C14.0062 3.43994 12.0628 4.0673 10.4453 5.23314C8.82779 6.39899 7.61809 8.04421 6.98756 9.93578C6.35704 11.8273 6.33767 13.8693 6.93218 15.7725C7.52669 17.6757 8.70495 19.3436 10.3001 20.5399C7.09246 21.8421 4.41636 24.1858 2.70256 27.1937C2.59636 27.3644 2.52558 27.5548 2.49443 27.7535C2.46328 27.9521 2.47238 28.155 2.52121 28.3501C2.57003 28.5451 2.65758 28.7284 2.77864 28.8889C2.8997 29.0495 3.05181 29.1841 3.22592 29.2847C3.40003 29.3853 3.59259 29.4498 3.79215 29.4745C3.99171 29.4992 4.1942 29.4835 4.38758 29.4284C4.58096 29.3732 4.76127 29.2798 4.91781 29.1536C5.07435 29.0274 5.20392 28.871 5.29881 28.6937C7.56381 24.7787 11.5638 22.4437 16.0001 22.4437C20.4363 22.4437 24.4363 24.7799 26.7013 28.6937C26.9069 29.0244 27.2331 29.2621 27.6109 29.3566C27.9886 29.4512 28.3883 29.3951 28.7255 29.2003C29.0626 29.0055 29.3108 28.6873 29.4176 28.3128C29.5244 27.9383 29.4813 27.537 29.2976 27.1937ZM9.50006 12.9437C9.50006 11.6581 9.88127 10.4014 10.5955 9.33249C11.3097 8.26357 12.3249 7.43044 13.5126 6.93847C14.7003 6.4465 16.0073 6.31778 17.2681 6.56859C18.529 6.81939 19.6872 7.43846 20.5962 8.3475C21.5053 9.25654 22.1244 10.4147 22.3752 11.6756C22.626 12.9365 22.4972 14.2434 22.0053 15.4311C21.5133 16.6189 20.6802 17.634 19.6113 18.3482C18.5423 19.0625 17.2856 19.4437 16.0001 19.4437C14.2768 19.4417 12.6246 18.7562 11.4061 17.5377C10.1875 16.3191 9.50204 14.667 9.50006 12.9437Z"/>
<symbol>
</svg>
