<svg viewBox="0 0 33 32" fill="none" xmlns="http://www.w3.org/2000/svg">
<path fill-rule="evenodd" clip-rule="evenodd" d="M5.27725 22.404L3.38574 29.3102L10.4531 27.4569C12.4005 28.5187 14.5928 29.0784 16.8238 29.0793H16.8296C24.1773 29.0793 30.1584 23.0998 30.1617 15.7518C30.163 12.1905 28.7779 8.84201 26.2605 6.32284C23.7432 3.80366 20.3959 2.41587 16.8298 2.41406C9.48102 2.41406 3.5008 8.39246 3.49772 15.7411C3.4949 18.0799 4.1087 20.3781 5.27725 22.404ZM5.74806 15.7421C5.75023 9.63451 10.721 4.66556 16.8333 4.66556C18.289 4.66211 19.731 4.94745 21.0757 5.50506C22.4204 6.06266 23.6412 6.88146 24.6673 7.91405C25.6992 8.94102 26.5171 10.1625 27.0737 11.5077C27.6303 12.8529 27.9145 14.2952 27.9099 15.751C27.9075 21.8589 22.9367 26.8284 16.8291 26.8284H16.825C14.8362 26.8274 12.8859 26.2936 11.185 25.2841L10.7801 25.0442L6.58609 26.1439L7.70571 22.0564L7.44207 21.6373C6.33235 19.8715 5.74505 17.8277 5.74806 15.7421Z" fill="#fff"/>
<path fill-rule="evenodd" clip-rule="evenodd" d="M13.4971 10.1692C13.2474 9.61457 12.9846 9.60333 12.7475 9.59373L12.1089 9.58594C11.8868 9.58594 11.5258 9.66929 11.2207 10.0027C10.9156 10.3361 10.0547 11.1419 10.0547 12.7808C10.0547 14.4197 11.2484 16.0034 11.4147 16.2259C11.5811 16.4484 13.7192 19.9189 17.1052 21.2541C19.919 22.3637 20.4916 22.143 21.1026 22.0876C21.7136 22.0322 23.0735 21.2818 23.3509 20.5039C23.6283 19.7261 23.6285 19.0596 23.5453 18.9203C23.4622 18.7809 23.24 18.6981 22.9066 18.5314C22.5732 18.3647 20.9357 17.559 20.6304 17.4477C20.3251 17.3364 20.1031 17.2812 19.8808 17.6146C19.6585 17.948 19.0208 18.698 18.8264 18.9203C18.632 19.1426 18.4379 19.1705 18.1045 19.004C17.7711 18.8375 16.6984 18.4856 15.4257 17.3508C14.4355 16.4678 13.767 15.3773 13.5724 15.0441C13.3778 14.7109 13.5518 14.5304 13.7188 14.3645C13.8683 14.2151 14.0519 13.9754 14.2188 13.781C14.3856 13.5866 14.4406 13.4476 14.5514 13.2256C14.6623 13.0037 14.6071 12.8087 14.5237 12.6422C14.4404 12.4757 13.7931 10.828 13.4971 10.1692Z" fill="#fff"/>
</svg>
