<?xml version="1.0" encoding="UTF-8" standalone="no"?>
<!DOCTYPE svg PUBLIC "-//W3C//DTD SVG 1.1//EN" "http://www.w3.org/Graphics/SVG/1.1/DTD/svg11.dtd">
<svg width="100%" height="100%" viewBox="0 0 369 153" version="1.1" xmlns="http://www.w3.org/2000/svg" xmlns:xlink="http://www.w3.org/1999/xlink" xml:space="preserve" xmlns:serif="http://www.serif.com/" style="fill-rule:evenodd;clip-rule:evenodd;stroke-linejoin:round;stroke-miterlimit:2;">
    <g transform="matrix(0.24,0,0,0.24,-279.999,-257.415)">
        <g transform="matrix(8.33333,0,0,8.33333,0,0)">
            <g id="Logo">
                <g transform="matrix(1,0,0,1,184.119,131.762)">
                    <path d="M0,50.985L-0.695,51.22C-5.982,52.97 -11.948,54.04 -19.427,54.04C-34.257,54.04 -44.119,42.621 -44.119,25.492C-44.119,8.364 -34.109,-3.055 -19.057,-3.055C-13,-3.055 -8.802,-1.831 -5.415,0.285C-5.399,0.259 -0.81,3.226 -0.149,2.433C-0.076,2.283 0.147,2.061 0.222,1.912L1.482,1.912L1.482,9.92L-0.149,9.92C-0.371,9.55 -0.668,8.956 -0.891,8.586C-2.823,4.794 -6.206,1.346 -9.371,-0.289C-11.988,-1.588 -15.004,-2.314 -18.76,-2.314C-30.402,-2.314 -38.188,8.808 -38.188,25.491C-38.188,41.952 -30.327,52.926 -18.538,52.926C-11.043,52.926 -5.864,50.676 -5.313,47.177C-5.325,44.306 -5.33,40.632 -5.334,37.355C-5.339,33.574 -6.377,31.053 -8.008,31.053L-8.527,31.053L-8.527,29.199L3.188,29.199L3.188,31.053L2.669,31.053C1.037,31.053 -0.001,33.574 -0.001,37.355L-0.001,50.438L0,50.985Z" style="fill:rgb(250,247,242);fill-rule:nonzero;"/>
                </g>
                <g transform="matrix(1,0,0,1,234.288,132.34)">
                    <path d="M0,69.791C0,71.497 -2.299,72.683 -5.71,72.683C-11.864,72.683 -20.277,70.666 -20.088,49.697L-20.088,26.545C-20.088,21.503 -22.535,18.092 -27.28,18.092C-31.358,18.092 -35.808,20.983 -38.328,25.358L-38.328,50.124C-38.328,50.89 -38.004,51.236 -37.364,51.236L-37.364,52.719L-43.889,52.719L-43.889,51.236C-43.249,51.236 -42.925,50.89 -42.925,50.124L-42.925,3.411C-42.925,1.223 -43.23,-0.453 -43.889,-1.112L-43.889,-2.002C-43.831,-2.021 -42.925,-2.24 -42.925,-2.299L-40.627,-2.892L-38.328,-2.892L-38.328,24.617C-34.991,18.76 -29.505,14.904 -24.685,14.904C-18.679,14.904 -15.565,19.575 -15.565,26.545L-15.565,53.013C-15.565,54.962 -15.557,56.91 -15.571,58.858C-15.594,61.875 -14.88,65.279 -13.277,67.873C-12.286,69.476 -10.834,70.737 -9.013,71.289C-8.184,71.541 -7.316,71.645 -6.451,71.645C-3.782,71.645 -5.117,67.344 -2.447,67.344C-0.964,67.344 0,68.308 0,69.791" style="fill:rgb(250,247,242);fill-rule:nonzero;"/>
                </g>
                <g transform="matrix(1,0,0,1,264.05,149.468)">
                    <path d="M0,34.109L0,35.592L-6.525,35.592L-6.525,34.109C-5.885,34.109 -5.561,33.764 -5.561,32.996L-5.561,13.131C-4.67,11.969 -3.778,10.808 -2.888,9.647C-2.289,8.868 -1.692,8.088 -1.094,7.309C-1.072,7.28 -0.967,7.182 -0.964,7.14L-0.964,32.996C-0.964,33.762 -0.64,34.108 0,34.109M-11.543,33.07L-11.543,34.553C-12.053,34.681 -12.645,34.836 -13.249,34.998C-13.9,34.998 -15.021,35.349 -15.473,35.591L-17.772,35.591L-17.772,28.999C-16.557,27.416 -15.394,25.9 -13.249,23.105L-13.249,29.808C-13.249,32.353 -12.675,33.353 -11.543,33.07M22.171,34.109L22.171,35.593L15.72,35.593L15.72,34.109C16.36,34.109 16.684,33.764 16.684,32.997L16.684,11.123C16.684,4.746 14.164,0.52 9.343,0.52C5.933,0.52 2.205,1.149 -0.963,5.619L-1.254,5.956C-1.809,6.681 -2.365,7.405 -2.921,8.13C-4.026,9.569 -5.13,11.008 -6.235,12.448C-7.598,14.223 -8.961,16 -10.324,17.777C-11.699,19.568 -13.073,21.359 -14.448,23.15C-15.586,24.633 -16.724,26.117 -17.862,27.6C-18.264,28.124 -18.668,28.65 -19.071,29.175C-19.668,29.952 -20.179,30.827 -20.869,31.519C-20.87,31.521 -20.963,31.64 -20.963,31.64C-23.544,34.578 -26.854,36.333 -30.228,36.333C-36.085,36.333 -40.016,31.29 -40.016,23.727L-40.016,1.112C-40.016,0.346 -40.34,0 -40.98,0L-40.98,-1.483L-35.419,-1.483L-35.419,23.727C-35.419,29.363 -32.453,33.144 -28.078,33.144C-27.872,33.144 -27.666,33.137 -27.46,33.123C-25.73,33.007 -24.06,32.401 -22.607,31.463C-21.896,31.005 -21.196,30.477 -20.636,29.838C-20.058,29.178 -19.599,28.426 -19.065,27.73C-18.634,27.169 -18.202,26.607 -17.772,26.046L-17.772,1.112C-17.772,0.346 -18.097,0 -18.736,0L-18.736,-1.483L-13.249,-1.483L-13.249,20.155L-5.561,10.142L-5.561,4.821C-5.561,2.633 -5.865,0.957 -6.525,0.297L-6.525,-0.592L-3.263,-1.482L-0.964,-1.482L-0.964,4.195C2.373,-1.663 7.266,-2.224 11.196,-2.224C17.796,-2.224 21.207,3.115 21.207,11.123L21.207,32.996C21.207,33.762 21.531,34.108 22.171,34.109" style="fill:rgb(250,247,242);fill-rule:nonzero;"/>
                </g>
                <g transform="matrix(1,0,0,1,293.732,154.584)">
                    <path d="M0,23.876C0,26.842 2.521,28.77 6.376,28.77C9.36,28.77 12.889,27.273 16.831,23.56L16.831,11.408C3.193,15.608 0,17.347 0,23.876M23.653,30.846C19.62,30.846 16.891,28.162 16.832,24.087C11.505,29.235 7.205,31.217 3.929,31.217C-1.113,31.217 -4.523,28.474 -4.523,24.321C-4.523,18.073 -0.441,16.124 16.831,10.815L16.831,2.299C16.831,-3.855 14.161,-6.599 10.233,-6.599C4.523,-6.599 0.667,-1.928 0.667,0.668C0.667,1.78 2.447,3.633 2.447,4.894C2.447,6.08 1.261,7.637 -0.593,7.637C-2.077,7.637 -3.041,6.08 -3.041,3.782C-3.041,-0.222 2.595,-7.341 11.121,-7.341C17.275,-7.341 21.354,-3.856 21.354,4.003L21.354,23.95C21.354,26.1 22.985,27.583 25.507,27.583C27.657,27.583 29.362,26.1 29.733,23.802L30.4,24.099C29.659,28.177 26.99,30.846 23.653,30.846" style="fill:rgb(250,247,242);fill-rule:nonzero;"/>
                </g>
            </g>
        </g>
    </g>
</svg>
