<svg width="925" height="180" viewBox="0 0 925 180" fill="none" xmlns="http://www.w3.org/2000/svg">
<g clip-path="url(#clip0_4823_64718)">
<path d="M644.113 54.9055C644.113 63.7888 644.363 72.6721 644.046 81.5388C643.679 92.0888 640.738 101.789 632.863 109.422C627.413 114.697 620.754 117.289 613.354 118.539C604.354 120.064 595.646 119.197 587.354 115.639C576.121 110.822 570.33 101.605 567.813 90.0554C566.921 85.9554 566.538 81.7971 566.546 77.5971C566.571 60.9054 566.604 44.2221 566.496 27.5388C566.488 25.2305 567.088 24.5388 569.396 24.6721C572.805 24.8721 576.246 24.8805 579.663 24.6721C582.205 24.5138 583.088 25.0971 583.063 27.9055C582.913 45.1721 582.988 62.4471 582.988 79.7138C582.988 84.1388 583.796 88.4304 585.546 92.4804C588.555 99.4721 594.163 103.055 601.546 103.964C611.346 105.172 620.596 102.547 624.996 93.6721C627.146 89.3471 628.163 84.6804 628.188 79.8888C628.271 64.5721 628.196 49.2471 628.255 33.9305C628.271 30.9471 626.946 27.0055 628.821 25.2305C630.688 23.4805 634.596 24.8471 637.613 24.7305C638.979 24.6805 640.363 24.8388 641.721 24.6971C643.613 24.4971 644.196 25.1305 644.18 27.0971C644.071 36.3638 644.129 45.6388 644.129 54.9055H644.113Z" fill="#36404D"/>
<path d="M684.029 71.3998C684.029 86.0331 683.979 100.658 684.087 115.291C684.104 117.466 683.596 118.141 681.371 118.016C677.662 117.816 673.937 117.841 670.229 118C668.112 118.091 667.612 117.35 667.621 115.35C667.704 101.891 667.662 88.4331 667.662 74.9748C667.662 59.2665 667.746 43.5665 667.587 27.8665C667.562 25.1582 668.362 24.5748 670.862 24.7248C674.371 24.9415 677.913 24.9498 681.421 24.7248C683.763 24.5665 684.087 25.4415 684.079 27.5082C683.987 42.1415 684.029 56.7665 684.029 71.3998Z" fill="#36404D"/>
<path d="M801.278 71.3068C801.278 56.7818 801.337 42.2568 801.22 27.7402C801.203 25.2902 801.887 24.5735 804.312 24.7318C807.72 24.9485 811.162 24.9485 814.57 24.7318C816.937 24.5818 817.437 25.3818 817.428 27.6235C817.345 53.1652 817.378 78.6985 817.378 104.24C817.378 108.14 817.295 112.04 817.42 115.932C817.47 117.632 816.92 118.065 815.278 118.007C811.57 117.882 807.845 117.84 804.145 118.015C801.895 118.123 801.203 117.523 801.22 115.165C801.337 100.548 801.278 85.9235 801.278 71.3068Z" fill="#36404D"/>
<path d="M194.28 169.506C192.721 166.823 191.196 164.115 189.646 161.423C180.863 146.206 172.096 130.981 163.288 115.773C157.221 105.298 151.113 94.8563 145.021 84.3979C144.646 83.6146 144.321 82.7979 143.888 82.0396C137.013 70.1313 130.196 58.1896 123.205 46.3479C118.93 39.1063 115.13 31.5813 110.405 24.5979C106.463 17.5896 102.871 10.348 98.4546 3.63962C94.5963 -2.22704 89.0963 -0.252041 86.5463 3.89796C81.9713 11.3563 77.6546 18.973 73.2713 26.5479C71.288 29.9729 70.063 33.5729 70.3963 37.6646C70.713 41.4229 72.7713 44.4313 74.5463 47.4646C85.4546 66.0646 96.5296 84.5646 107.555 103.098C108.738 105.148 109.896 107.223 111.105 109.256C115.621 116.84 120.18 124.406 124.663 132.006C126.48 135.081 126.305 135.265 122.713 135.273C111.571 135.29 100.43 135.34 89.288 135.373C84.7963 135.331 80.3046 135.206 75.813 135.281C72.963 135.323 71.438 138.048 72.9046 140.298C79.4963 150.373 85.8379 160.598 92.0129 170.931C93.9046 174.098 96.1296 177.056 100.246 177.548C112.205 178.173 124.171 177.99 136.138 178.123C136.638 178.315 137.146 178.365 137.655 178.373C137.913 178.406 138.171 178.431 138.43 178.431C154.755 178.565 171.08 178.681 187.413 178.781C188.288 178.79 189.18 178.773 190.038 178.631C195.246 177.773 196.938 174.081 194.28 169.506Z" fill="#36404D"/>
<path d="M21.5282 123.656C21.5198 123.564 21.5198 123.464 21.5115 123.364C21.5782 123.373 21.6532 123.389 21.7282 123.398C21.6615 123.489 21.5948 123.573 21.5282 123.656ZM57.5032 117.723C52.0032 110.156 47.0115 102.223 41.1948 94.8894C37.5198 87.1977 27.8782 82.1394 19.8449 83.4894C19.5282 83.4727 19.1615 83.5477 18.7282 83.7144C18.4032 83.9061 18.0865 84.2144 17.7365 84.2561C9.51985 85.2561 4.81152 90.4394 1.69485 97.5561C1.21986 98.6477 1.53652 100.156 0.0615234 100.748V108.948C1.48652 110.398 1.49486 112.481 2.41986 114.164C5.78652 120.298 10.3949 124.806 17.6282 125.964C23.7698 127.906 30.1282 128.864 36.4365 130.056C36.6865 130.198 36.9115 130.423 37.1698 130.473C44.6698 132.056 52.1698 133.589 59.6615 135.206C62.1198 135.739 63.8615 134.773 65.0865 132.831C66.1948 131.056 65.6782 129.323 64.5032 127.681C62.1448 124.381 59.8948 120.998 57.5032 117.723Z" fill="#36404D"/>
<path d="M767.529 153.657C776.087 146.982 780.237 147.107 786.529 153.991C788.496 150.932 791.379 149.232 794.904 148.849C801.404 148.132 806.229 152.349 806.604 159.399C806.921 165.241 806.662 171.099 806.762 176.957C806.812 179.482 805.004 178.449 803.896 178.532C802.796 178.607 801.287 179.199 801.346 176.941C801.471 172.366 801.387 167.774 801.371 163.191C801.371 162.024 801.371 160.841 801.229 159.682C800.754 155.982 799.079 154.141 796.121 153.957C791.179 153.657 788.871 155.024 787.862 158.999C787.554 160.216 787.404 161.499 787.387 162.749C787.329 166.941 787.371 171.141 787.371 175.332C787.371 178.499 786.071 179.399 782.946 178.591C781.562 178.232 782.079 177.241 782.071 176.499C782.021 172.116 782.046 167.724 782.046 163.332C782.046 162.357 782.071 161.374 781.996 160.407C781.712 156.549 780.012 154.249 777.262 153.957C772.862 153.482 769.704 155.357 768.662 159.199C768.229 160.791 767.929 162.399 767.962 164.091C768.046 168.191 767.846 172.291 768.054 176.382C768.162 178.599 767.104 178.616 765.462 178.616C763.737 178.624 762.604 178.682 762.654 176.274C762.821 168.082 762.779 159.882 762.671 151.691C762.646 149.766 763.337 149.366 765.046 149.482C766.454 149.574 767.921 149.299 767.546 151.499C767.446 152.057 767.529 152.632 767.529 153.657Z" fill="#36404D"/>
<path d="M716.862 153.506C724.554 146.956 729.788 147.106 735.463 153.989C737.079 151.914 738.954 150.239 741.513 149.397C748.713 147.006 755.088 151.222 755.588 159.206C755.963 165.139 755.679 171.106 755.721 177.064C755.737 179.606 753.829 178.314 752.754 178.506C751.487 178.739 750.296 178.789 750.354 176.739C750.488 171.856 750.404 166.981 750.396 162.097C750.379 156.414 748.721 154.039 744.721 153.914C739.196 153.747 736.596 156.147 736.379 161.989C736.212 166.764 736.212 171.556 736.396 176.331C736.487 178.506 735.512 178.614 733.829 178.589C732.137 178.572 730.896 178.706 730.996 176.256C731.204 171.289 731.088 166.306 731.038 161.331C731.004 156.881 729.312 154.264 726.379 153.931C721.754 153.397 718.646 155.272 717.579 159.681C716.296 164.947 717.113 170.356 717.054 175.706C717.038 177.881 716.646 178.697 714.229 178.647C712.063 178.606 711.729 177.889 711.754 175.956C711.863 168.147 711.804 160.339 711.796 152.539C711.796 150.914 711.362 149.339 714.129 149.372C716.596 149.406 716.879 150.464 716.663 152.372C716.629 152.631 716.746 152.906 716.862 153.506Z" fill="#36404D"/>
<path d="M655.53 179.439C645.563 179.789 637.505 172.764 634.805 165.172C631.363 155.481 634.23 144.706 641.555 138.914C648.688 133.272 659.571 132.539 667.113 137.197C667.446 137.406 667.821 137.564 668.096 137.839C669.055 138.772 671.105 139.597 670.655 140.714C670.113 142.031 668.288 142.839 666.98 143.814C666.13 144.447 665.771 143.547 665.321 143.147C660.455 138.881 654.888 138.406 649.213 140.814C642.988 143.464 639.988 148.781 639.488 155.297C638.913 162.706 641.221 168.931 648.255 172.614C654.038 175.647 661.43 174.597 666.105 169.956C668.771 167.306 669.471 170.772 670.905 171.481C672.938 172.481 670.813 173.464 670.23 174.006C666.046 177.914 661.03 179.722 655.53 179.439Z" fill="#36404D"/>
<path d="M879.529 179.182C874.387 178.873 869.345 176.557 866.879 170.773C864.437 165.057 864.745 159.24 868.804 154.248C872.795 149.323 878.17 147.89 884.295 149.332C885.704 149.665 887.137 150.115 888.404 150.79C891.962 152.698 891.954 153.39 888.845 155.873C887.937 156.59 887.47 156.598 886.479 155.865C882.42 152.832 876.954 153.123 873.929 156.34C870.42 160.09 870.254 167.307 873.595 171.182C876.62 174.698 882.295 175.382 886.329 172.365C888.979 170.382 889.495 173.082 890.62 174.032C892.279 175.423 890.27 175.99 889.554 176.515C886.87 178.457 883.762 179.182 879.529 179.182Z" fill="#36404D"/>
<path d="M852.112 153.565C854.362 151.24 856.587 149.548 859.396 148.948C860.604 148.69 862.312 148.198 862.954 149.332C863.804 150.84 863.196 152.757 862.979 154.465C862.896 155.173 862.004 154.598 861.512 154.59C855.079 154.49 852.137 157.223 851.996 163.64C851.912 167.823 851.812 172.031 852.029 176.206C852.146 178.54 851.087 178.565 849.296 178.615C847.329 178.673 846.612 178.223 846.646 176.09C846.779 168.098 846.762 160.098 846.662 152.107C846.637 150.165 847.012 149.357 849.187 149.415C851.154 149.473 852.462 149.623 851.979 152.04C851.912 152.373 852.037 152.74 852.112 153.565Z" fill="#36404D"/>
<path d="M501.612 104.314C489.962 104.197 481.129 99.1474 475.029 89.314C472.162 84.689 470.562 78.089 470.57 71.514C470.679 58.814 475.395 48.514 486.862 42.3057C503.879 33.0974 527.095 40.9724 532.045 62.389C534.67 73.7724 533.17 84.4224 525.512 93.6474C519.354 101.064 511.237 104.414 501.612 104.314ZM552.745 125.831C551.079 124.072 549.595 122.114 548.195 120.131C547.087 118.547 546.42 118.322 544.804 119.814C535.837 128.114 523.762 127.122 516.487 117.306C523.304 115.264 529.345 112.114 534.304 107.339C549.062 93.1474 552.704 75.839 547.329 56.6057C539.445 28.4224 508.587 17.3807 483.604 27.0141C460.629 35.864 450.27 59.1057 455.32 82.339C459.687 102.389 472.445 114.556 492.862 118.422C495.079 118.839 497.195 119.156 498.945 121.214C502.804 125.739 507.312 129.656 512.329 132.931C525.437 141.489 542.37 139.889 552.487 129.172C553.587 128.014 554.087 127.231 552.745 125.831Z" fill="#36404D"/>
<path d="M420.861 90.2908C415.653 98.1408 407.928 102.157 398.67 103.016C390.495 103.782 382.261 103.341 374.053 103.457C372.103 103.491 371.603 102.891 371.62 100.974C371.72 91.0241 371.67 81.0742 371.67 71.1158C371.67 61.3658 371.728 51.6075 371.62 41.8492C371.595 39.8242 372.095 39.1658 374.186 39.2408C382.686 39.5408 391.228 38.7242 399.695 39.8158C413.503 41.5908 424.203 51.5242 425.82 66.4158C426.761 75.0325 425.653 83.0658 420.861 90.2908ZM442.178 64.0658C441.028 55.2242 437.803 47.2325 431.861 40.4658C421.961 29.1908 408.92 25.1242 394.47 24.7908C382.628 24.5242 370.786 24.8075 358.945 24.6825C356.486 24.6575 355.653 25.0992 355.686 27.8075C355.845 42.2492 355.762 56.6992 355.762 71.1408C355.762 85.4825 355.845 99.8325 355.695 114.174C355.661 117.082 356.195 118.074 359.378 118.007C370.828 117.791 382.278 117.932 393.728 117.916C397.236 117.907 400.728 117.682 404.203 117.082C418.511 114.591 429.911 107.749 437.02 94.8325C442.303 85.2325 443.586 74.8242 442.178 64.0658Z" fill="#36404D"/>
<path d="M746.112 76.638C739.479 76.963 732.821 76.6797 726.171 76.7797C724.629 76.8047 724.462 76.1714 724.471 74.8964C724.487 63.6797 724.479 52.4714 724.404 41.2547C724.396 39.7131 724.879 39.2297 726.412 39.2714C729.837 39.3714 733.254 39.3047 737.479 39.3047C742.321 39.4297 747.987 38.9547 753.529 40.6464C764.562 44.0047 767.254 53.6714 765.371 62.6297C763.487 71.5964 757.187 76.0964 746.112 76.638ZM782.504 116.13C776.554 107.246 770.587 98.3714 764.646 89.4797C763.929 88.413 762.821 87.5297 765.087 86.5047C783.621 78.0714 785.271 56.2047 779.046 43.0047C773.462 31.1797 762.987 26.4547 750.737 25.2881C737.196 23.9964 723.571 25.0214 709.987 24.7297C708.312 24.6964 708.112 25.3797 708.112 26.7797C708.146 56.5297 708.146 86.2797 708.096 116.03C708.096 117.58 708.554 118.013 710.079 117.98C713.987 117.88 717.904 117.805 721.804 117.996C724.121 118.113 724.571 117.246 724.529 115.146C724.387 107.838 724.462 100.521 724.346 93.2047C724.312 91.2547 724.821 90.613 726.912 90.6714C733.171 90.838 739.437 90.7964 745.696 90.6964C747.429 90.663 748.479 91.113 749.471 92.6464C754.487 100.405 759.646 108.08 764.796 115.755C765.412 116.663 765.779 117.955 767.279 117.946C772.537 117.938 777.796 117.946 783.571 117.946C782.987 116.946 782.771 116.521 782.504 116.13Z" fill="#36404D"/>
<path d="M280.613 82.7811C278.413 82.7811 279.529 81.4811 279.871 80.6394C283.546 71.5644 287.254 62.4977 290.963 53.4394C292.429 49.8644 293.929 46.2977 295.796 41.8061C301.588 55.8561 307.063 69.1477 312.679 82.7894C301.688 82.7894 291.154 82.7894 280.613 82.7811ZM338.138 104.423C326.954 78.4227 315.771 52.4227 304.638 26.4061C304.088 25.1311 303.404 24.7228 302.063 24.7561C298.446 24.8478 294.813 24.9894 291.213 24.7228C288.629 24.5311 287.496 25.5061 286.554 27.7894C282.663 37.1978 278.579 46.5227 274.563 55.8811C265.979 75.8894 257.413 95.906 248.771 115.889C247.954 117.789 248.621 118.014 250.279 117.989C254.288 117.923 258.304 117.889 262.304 118.006C264.004 118.056 264.854 117.589 265.496 115.906C267.746 110.023 270.296 104.248 272.554 98.3727C273.229 96.6227 274.096 96.0977 275.946 96.1144C289.146 96.2061 302.346 96.1977 315.546 96.1144C317.388 96.1061 318.329 96.6644 319.004 98.3727C321.288 104.231 323.721 110.031 326.096 115.856C326.529 116.939 326.838 118.014 328.429 117.998C333.496 117.923 338.571 117.964 344.021 117.964C341.921 113.139 340.013 108.789 338.138 104.423Z" fill="#36404D"/>
<path d="M861.779 82.7393C859.529 82.7393 860.712 81.3476 861.012 80.6059C864.32 72.4143 867.704 64.2476 871.054 56.0726C872.895 51.5976 874.72 47.1226 877.279 42.5726C882.762 55.8559 888.237 69.1393 893.854 82.7393C882.87 82.7393 872.329 82.7309 861.779 82.7393ZM923.437 113.881C910.954 84.8643 898.445 55.8643 886.004 26.831C885.312 25.2226 884.479 24.6393 882.745 24.706C879.129 24.8393 875.495 24.931 871.887 24.681C869.595 24.5226 868.645 25.481 867.845 27.3976C863.904 36.8143 859.87 46.1976 855.854 55.5809C847.27 75.5976 838.704 95.6143 830.045 115.589C829.062 117.848 829.887 117.989 831.771 117.948C835.679 117.873 839.595 117.839 843.504 117.964C845.229 118.023 846.062 117.489 846.687 115.856C848.954 109.956 851.437 104.148 853.737 98.2643C854.354 96.6976 855.129 96.0643 856.92 96.0726C870.229 96.1643 883.537 96.1559 896.845 96.0809C898.57 96.0643 899.487 96.5809 900.112 98.1643C902.445 104.039 904.854 109.881 907.262 115.723C907.687 116.739 907.787 117.973 909.479 117.948C914.554 117.864 919.629 117.914 924.995 117.914C924.404 116.381 923.962 115.106 923.437 113.881Z" fill="#36404D"/>
<path d="M621.445 161.731C619.22 161.565 616.962 161.69 614.72 161.69C612.287 161.69 609.845 161.631 607.412 161.706C606.128 161.748 605.695 161.44 605.945 160.065C606.603 156.423 610.662 153.14 614.853 152.998C619.053 152.856 622.545 155.49 623.445 159.406C623.837 161.14 623.387 161.881 621.445 161.731ZM615.87 148.823C608.495 148.49 602.887 152.706 600.67 159.973C598.778 166.198 601.387 173.415 606.778 176.865C612.412 180.465 620.978 179.773 625.903 175.423C627.537 173.981 627.828 173.115 625.77 171.623C624.162 170.456 623.437 170.698 622.262 171.948C617.278 177.256 608.245 174.173 606.345 168.906C605.437 166.365 605.72 165.798 608.312 165.781C611.345 165.765 614.37 165.781 617.403 165.781C620.728 165.781 624.053 165.781 627.378 165.773C628.328 165.773 629.337 166.023 629.337 164.415C629.362 157.281 625.703 149.265 615.87 148.823Z" fill="#36404D"/>
<path d="M833.863 161.73C829.104 161.605 824.329 161.613 819.571 161.721C817.663 161.763 817.788 160.821 818.104 159.571C819.021 155.98 823.046 153.038 827.113 152.988C831.321 152.946 834.921 155.771 835.479 159.588C835.663 160.83 835.729 161.78 833.863 161.73ZM834.663 150.746C829.746 147.88 824.521 148.021 819.621 150.855C814.096 154.046 811.813 159.155 812.288 165.371C812.746 171.221 815.413 175.755 821.138 177.98C827.188 180.321 832.779 179.355 837.896 175.421C839.629 174.088 839.904 173.138 837.796 171.596C836.163 170.405 835.529 170.788 834.304 171.938C829.321 176.646 820.888 174.988 818.388 168.905C817.354 166.38 817.713 165.788 820.329 165.78C823.463 165.763 826.588 165.771 829.713 165.771C833.038 165.771 836.354 165.738 839.679 165.796C840.879 165.813 841.471 165.538 841.404 164.18C841.154 158.688 839.721 153.688 834.663 150.746Z" fill="#36404D"/>
<path d="M914.779 161.722C912.445 161.555 910.095 161.68 907.754 161.68C905.32 161.68 902.879 161.672 900.437 161.689C899.587 161.689 898.979 161.672 899.104 160.455C899.479 156.789 903.729 153.197 908.07 152.997C912.362 152.797 915.82 155.439 916.637 159.347C916.987 161.055 916.837 161.872 914.779 161.722ZM916.845 151.414C912.004 147.839 905.12 147.914 899.812 151.489C894.862 154.83 892.312 161.639 893.837 167.797C895.237 173.455 898.629 177.289 904.445 178.655C910.262 180.022 915.462 178.83 919.879 174.689C920.454 174.147 921.129 173.747 920.445 172.78C919.079 170.864 917.12 170.58 915.379 172.139C910.195 176.78 901.654 174.73 899.454 168.347C898.854 166.614 898.787 165.605 901.179 165.73C904.295 165.905 907.437 165.772 910.57 165.772C913.995 165.772 917.412 165.772 920.837 165.78C921.737 165.78 922.545 165.905 922.545 164.505C922.57 159.28 921.254 154.655 916.845 151.414Z" fill="#36404D"/>
<path d="M690.612 174.263C684.62 174.23 680.87 170.205 680.928 163.871C680.978 157.605 684.562 153.93 690.603 153.93C696.662 153.938 700.503 157.955 700.387 164.155C700.27 170.263 696.378 174.296 690.612 174.263ZM690.587 148.805C682.012 148.813 675.212 155.663 675.27 164.238C675.328 172.555 682.295 179.28 690.753 179.188C699.312 179.088 705.937 172.413 705.903 163.921C705.862 155.513 699.062 148.788 690.587 148.805Z" fill="#36404D"/>
</g>
<defs>
<clipPath id="clip0_4823_64718">
<rect width="925" height="180" fill="white"/>
</clipPath>
</defs>
</svg>
