<?xml version="1.0" encoding="UTF-8" standalone="no"?>
<!DOCTYPE svg PUBLIC "-//W3C//DTD SVG 1.1//EN" "http://www.w3.org/Graphics/SVG/1.1/DTD/svg11.dtd">
<svg width="100%" height="100%" viewBox="0 0 925 180" version="1.1" xmlns="http://www.w3.org/2000/svg" xmlns:xlink="http://www.w3.org/1999/xlink" xml:space="preserve" xmlns:serif="http://www.serif.com/" style="fill-rule:evenodd;clip-rule:evenodd;stroke-linejoin:round;stroke-miterlimit:2;">
    <g transform="matrix(1,0,0,1,-10933.3,-27410.6)">
        <g transform="matrix(8.33333,0,0,8.33333,0,0)">
            <g id="Adquiri---Logo" serif:id="Adquiri - Logo">
                <g transform="matrix(1,0,0,1,1389.29,3299.91)">
                    <path d="M0,-4.048C0,-2.982 0.03,-1.916 -0.008,-0.852C-0.052,0.414 -0.405,1.578 -1.35,2.494C-2.004,3.127 -2.803,3.438 -3.691,3.588C-4.771,3.771 -5.816,3.667 -6.811,3.24C-8.159,2.662 -8.854,1.556 -9.156,0.17C-9.263,-0.322 -9.309,-0.821 -9.308,-1.325C-9.305,-3.328 -9.301,-5.33 -9.314,-7.332C-9.315,-7.609 -9.243,-7.692 -8.966,-7.676C-8.557,-7.652 -8.144,-7.651 -7.734,-7.676C-7.429,-7.695 -7.323,-7.625 -7.326,-7.288C-7.344,-5.216 -7.335,-3.143 -7.335,-1.071C-7.335,-0.54 -7.238,-0.025 -7.028,0.461C-6.667,1.3 -5.994,1.73 -5.108,1.839C-3.932,1.984 -2.822,1.669 -2.294,0.604C-2.036,0.085 -1.914,-0.475 -1.911,-1.05C-1.901,-2.888 -1.91,-4.727 -1.903,-6.565C-1.901,-6.923 -2.06,-7.396 -1.835,-7.609C-1.611,-7.819 -1.142,-7.655 -0.78,-7.669C-0.616,-7.675 -0.45,-7.656 -0.287,-7.673C-0.06,-7.697 0.01,-7.621 0.008,-7.385C-0.005,-6.273 0.002,-5.16 0.002,-4.048L0,-4.048Z" style="fill:rgb(254,254,254);fill-rule:nonzero;"/>
                </g>
                <g transform="matrix(1,0,0,1,1394.08,3297.83)">
                    <path d="M0,0.011C0,1.767 -0.006,3.522 0.007,5.278C0.009,5.539 -0.052,5.62 -0.319,5.605C-0.764,5.581 -1.211,5.584 -1.656,5.603C-1.91,5.614 -1.97,5.525 -1.969,5.285C-1.959,3.67 -1.964,2.055 -1.964,0.44C-1.964,-1.445 -1.954,-3.329 -1.973,-5.213C-1.976,-5.538 -1.88,-5.608 -1.58,-5.59C-1.159,-5.564 -0.734,-5.563 -0.313,-5.59C-0.032,-5.609 0.007,-5.504 0.006,-5.256C-0.005,-3.5 0,-1.745 0,0.011" style="fill:rgb(254,254,254);fill-rule:nonzero;"/>
                </g>
                <g transform="matrix(1,0,0,1,1408.15,3297.84)">
                    <path d="M0,-0.01C0,-1.753 0.007,-3.496 -0.007,-5.238C-0.009,-5.532 0.073,-5.618 0.364,-5.599C0.773,-5.573 1.186,-5.573 1.595,-5.599C1.879,-5.617 1.939,-5.521 1.938,-5.252C1.928,-2.187 1.932,0.877 1.932,3.942C1.932,4.41 1.922,4.878 1.937,5.345C1.943,5.549 1.877,5.601 1.68,5.594C1.235,5.579 0.788,5.574 0.344,5.595C0.074,5.608 -0.009,5.536 -0.007,5.253C0.007,3.499 0,1.744 0,-0.01" style="fill:rgb(254,254,254);fill-rule:nonzero;"/>
                </g>
                <g transform="matrix(1,0,0,1,1335.31,3290.12)">
                    <path d="M0,19.494C-0.187,19.172 -0.37,18.847 -0.556,18.524C-1.61,16.698 -2.662,14.871 -3.719,13.046C-4.447,11.789 -5.18,10.536 -5.911,9.281C-5.956,9.187 -5.995,9.089 -6.047,8.998C-6.872,7.569 -7.69,6.136 -8.529,4.715C-9.042,3.846 -9.498,2.943 -10.065,2.105C-10.538,1.264 -10.969,0.395 -11.499,-0.41C-11.962,-1.114 -12.622,-0.877 -12.928,-0.379C-13.477,0.516 -13.995,1.43 -14.521,2.339C-14.759,2.75 -14.906,3.182 -14.866,3.673C-14.828,4.124 -14.581,4.485 -14.368,4.849C-13.059,7.081 -11.73,9.301 -10.407,11.525C-10.265,11.771 -10.126,12.02 -9.981,12.264C-9.439,13.174 -8.892,14.082 -8.354,14.994C-8.136,15.363 -8.157,15.385 -8.588,15.386C-9.925,15.388 -11.262,15.394 -12.599,15.398C-13.138,15.393 -13.677,15.378 -14.216,15.387C-14.558,15.392 -14.741,15.719 -14.565,15.989C-13.774,17.198 -13.013,18.425 -12.272,19.665C-12.045,20.045 -11.778,20.4 -11.284,20.459C-9.849,20.534 -8.413,20.512 -6.977,20.528C-6.917,20.551 -6.856,20.557 -6.795,20.558C-6.764,20.562 -6.733,20.565 -6.702,20.565C-4.743,20.581 -2.784,20.595 -0.824,20.607C-0.719,20.608 -0.612,20.606 -0.509,20.589C0.116,20.486 0.319,20.043 0,19.494" style="fill:rgb(254,254,254);fill-rule:nonzero;"/>
                </g>
                <g transform="matrix(1,0,0,1,1314.58,3300.58)">
                    <path d="M0,3.532C-0.001,3.521 -0.001,3.509 -0.002,3.497C0.006,3.498 0.015,3.5 0.024,3.501C0.016,3.512 0.008,3.522 0,3.532M4.317,2.82C3.657,1.912 3.058,0.96 2.36,0.08C1.919,-0.843 0.762,-1.45 -0.202,-1.288C-0.24,-1.29 -0.284,-1.281 -0.336,-1.261C-0.375,-1.238 -0.413,-1.201 -0.455,-1.196C-1.441,-1.076 -2.006,-0.454 -2.38,0.4C-2.437,0.531 -2.399,0.712 -2.576,0.783L-2.576,1.767C-2.405,1.941 -2.404,2.191 -2.293,2.393C-1.889,3.129 -1.336,3.67 -0.468,3.809C0.269,4.042 1.032,4.157 1.789,4.3C1.819,4.317 1.846,4.344 1.877,4.35C2.777,4.54 3.677,4.724 4.576,4.918C4.871,4.982 5.08,4.866 5.227,4.633C5.36,4.42 5.298,4.212 5.157,4.015C4.874,3.619 4.604,3.213 4.317,2.82" style="fill:rgb(254,254,254);fill-rule:nonzero;"/>
                </g>
                <g transform="matrix(1,0,0,1,1404.1,3310.01)">
                    <path d="M0,-2.298C1.027,-3.099 1.525,-3.084 2.28,-2.258C2.516,-2.625 2.862,-2.829 3.285,-2.875C4.065,-2.961 4.644,-2.455 4.689,-1.609C4.727,-0.908 4.696,-0.205 4.708,0.498C4.714,0.801 4.497,0.677 4.364,0.687C4.232,0.696 4.051,0.767 4.058,0.496C4.073,-0.053 4.063,-0.604 4.061,-1.154C4.061,-1.294 4.061,-1.436 4.044,-1.575C3.987,-2.019 3.786,-2.24 3.431,-2.262C2.838,-2.298 2.561,-2.134 2.44,-1.657C2.403,-1.511 2.385,-1.357 2.383,-1.207C2.376,-0.704 2.381,-0.2 2.381,0.303C2.381,0.683 2.225,0.791 1.85,0.694C1.684,0.651 1.746,0.532 1.745,0.443C1.739,-0.083 1.742,-0.61 1.742,-1.137C1.742,-1.254 1.745,-1.372 1.736,-1.488C1.702,-1.951 1.498,-2.227 1.168,-2.262C0.64,-2.319 0.261,-2.094 0.136,-1.633C0.084,-1.442 0.048,-1.249 0.052,-1.046C0.062,-0.554 0.038,-0.062 0.063,0.429C0.076,0.695 -0.051,0.697 -0.248,0.697C-0.455,0.698 -0.591,0.705 -0.585,0.416C-0.565,-0.567 -0.57,-1.551 -0.583,-2.534C-0.586,-2.765 -0.503,-2.813 -0.298,-2.799C-0.129,-2.788 0.047,-2.821 0.002,-2.557C-0.01,-2.49 0,-2.421 0,-2.298" style="fill:rgb(254,254,254);fill-rule:nonzero;"/>
                </g>
                <g transform="matrix(1,0,0,1,1398.02,3310.04)">
                    <path d="M0,-2.346C0.923,-3.132 1.551,-3.114 2.232,-2.288C2.426,-2.537 2.651,-2.738 2.958,-2.839C3.822,-3.126 4.587,-2.62 4.647,-1.662C4.692,-0.95 4.658,-0.234 4.663,0.481C4.665,0.786 4.436,0.631 4.307,0.654C4.155,0.682 4.012,0.688 4.019,0.442C4.035,-0.144 4.025,-0.729 4.024,-1.315C4.022,-1.997 3.823,-2.282 3.343,-2.297C2.68,-2.317 2.368,-2.029 2.342,-1.328C2.322,-0.755 2.322,-0.18 2.344,0.393C2.355,0.654 2.238,0.667 2.036,0.664C1.833,0.662 1.684,0.678 1.696,0.384C1.721,-0.212 1.707,-0.81 1.701,-1.407C1.697,-1.941 1.494,-2.255 1.142,-2.295C0.587,-2.359 0.214,-2.134 0.086,-1.605C-0.068,-0.973 0.03,-0.324 0.023,0.318C0.021,0.579 -0.026,0.677 -0.316,0.671C-0.576,0.666 -0.616,0.58 -0.613,0.348C-0.6,-0.589 -0.607,-1.526 -0.608,-2.462C-0.608,-2.657 -0.66,-2.846 -0.328,-2.842C-0.032,-2.838 0.002,-2.711 -0.024,-2.482C-0.028,-2.451 -0.014,-2.418 0,-2.346" style="fill:rgb(254,254,254);fill-rule:nonzero;"/>
                </g>
                <g transform="matrix(1,0,0,1,1390.66,3305.22)">
                    <path d="M0,5.586C-1.196,5.628 -2.163,4.785 -2.487,3.874C-2.9,2.711 -2.556,1.418 -1.677,0.723C-0.821,0.046 0.485,-0.042 1.39,0.517C1.43,0.542 1.475,0.561 1.508,0.594C1.623,0.706 1.869,0.805 1.815,0.939C1.75,1.097 1.531,1.194 1.374,1.311C1.272,1.387 1.229,1.279 1.175,1.231C0.591,0.719 -0.077,0.662 -0.758,0.951C-1.505,1.269 -1.865,1.907 -1.925,2.689C-1.994,3.578 -1.717,4.325 -0.873,4.767C-0.179,5.131 0.708,5.005 1.269,4.448C1.589,4.13 1.673,4.546 1.845,4.631C2.089,4.751 1.834,4.869 1.764,4.934C1.262,5.403 0.66,5.62 0,5.586" style="fill:rgb(254,254,254);fill-rule:nonzero;"/>
                </g>
                <g transform="matrix(1,0,0,1,1417.54,3307.02)">
                    <path d="M0,3.755C-0.617,3.718 -1.222,3.44 -1.518,2.746C-1.811,2.06 -1.774,1.362 -1.287,0.763C-0.808,0.172 -0.163,0 0.572,0.173C0.741,0.213 0.913,0.267 1.065,0.348C1.492,0.577 1.491,0.66 1.118,0.958C1.009,1.044 0.953,1.045 0.834,0.957C0.347,0.593 -0.309,0.628 -0.672,1.014C-1.093,1.464 -1.113,2.33 -0.712,2.795C-0.349,3.217 0.332,3.299 0.816,2.937C1.134,2.699 1.196,3.023 1.331,3.137C1.53,3.304 1.289,3.372 1.203,3.435C0.881,3.668 0.508,3.755 0,3.755" style="fill:rgb(254,254,254);fill-rule:nonzero;"/>
                </g>
                <g transform="matrix(1,0,0,1,1414.25,3310.07)">
                    <path d="M0,-2.369C0.27,-2.648 0.537,-2.851 0.874,-2.923C1.019,-2.954 1.224,-3.013 1.301,-2.877C1.403,-2.696 1.33,-2.466 1.304,-2.261C1.294,-2.176 1.187,-2.245 1.128,-2.246C0.356,-2.258 0.003,-1.93 -0.014,-1.16C-0.024,-0.658 -0.036,-0.153 -0.01,0.348C0.004,0.628 -0.123,0.631 -0.338,0.637C-0.574,0.644 -0.66,0.59 -0.656,0.334C-0.64,-0.625 -0.642,-1.585 -0.654,-2.544C-0.657,-2.777 -0.612,-2.874 -0.351,-2.867C-0.115,-2.86 0.042,-2.842 -0.016,-2.552C-0.024,-2.512 -0.009,-2.468 0,-2.369" style="fill:rgb(254,254,254);fill-rule:nonzero;"/>
                </g>
                <g transform="matrix(1,0,0,1,1372.19,3295.82)">
                    <path d="M0,5.971C-1.398,5.957 -2.458,5.351 -3.19,4.171C-3.534,3.616 -3.726,2.824 -3.725,2.035C-3.712,0.511 -3.146,-0.725 -1.77,-1.47C0.272,-2.575 3.058,-1.63 3.652,0.94C3.967,2.306 3.787,3.584 2.868,4.691C2.129,5.581 1.155,5.983 0,5.971M6.136,8.553C5.936,8.342 5.758,8.107 5.59,7.869C5.457,7.679 5.377,7.652 5.183,7.831C4.107,8.827 2.658,8.708 1.785,7.53C2.603,7.285 3.328,6.907 3.923,6.334C5.694,4.631 6.131,2.554 5.486,0.246C4.54,-3.136 0.837,-4.461 -2.161,-3.305C-4.918,-2.243 -6.161,0.546 -5.555,3.334C-5.031,5.74 -3.5,7.2 -1.05,7.664C-0.784,7.714 -0.53,7.752 -0.32,7.999C0.143,8.542 0.684,9.012 1.286,9.405C2.859,10.432 4.891,10.24 6.105,8.954C6.237,8.815 6.297,8.721 6.136,8.553" style="fill:rgb(254,254,254);fill-rule:nonzero;"/>
                </g>
                <g transform="matrix(1,0,0,1,1362.5,3295.55)">
                    <path d="M0,4.558C-0.625,5.5 -1.552,5.982 -2.663,6.085C-3.644,6.177 -4.632,6.124 -5.617,6.138C-5.851,6.142 -5.911,6.07 -5.909,5.84C-5.897,4.646 -5.903,3.452 -5.903,2.257C-5.903,1.087 -5.896,-0.084 -5.909,-1.255C-5.912,-1.498 -5.852,-1.577 -5.601,-1.568C-4.581,-1.532 -3.556,-1.63 -2.54,-1.499C-0.883,-1.286 0.401,-0.094 0.595,1.693C0.708,2.727 0.575,3.691 0,4.558M2.558,1.411C2.42,0.35 2.033,-0.609 1.32,-1.421C0.132,-2.774 -1.433,-3.262 -3.167,-3.302C-4.588,-3.334 -6.009,-3.3 -7.43,-3.315C-7.725,-3.318 -7.825,-3.265 -7.821,-2.94C-7.802,-1.207 -7.812,0.527 -7.812,2.26C-7.812,3.981 -7.802,5.703 -7.82,7.424C-7.824,7.773 -7.76,7.892 -7.378,7.884C-6.004,7.858 -4.63,7.875 -3.256,7.873C-2.835,7.872 -2.416,7.845 -1.999,7.773C-0.282,7.474 1.086,6.653 1.939,5.103C2.573,3.951 2.727,2.702 2.558,1.411" style="fill:rgb(254,254,254);fill-rule:nonzero;"/>
                </g>
                <g transform="matrix(1,0,0,1,1401.53,3297.13)">
                    <path d="M0,1.34C-0.796,1.379 -1.595,1.345 -2.393,1.357C-2.578,1.36 -2.598,1.284 -2.597,1.131C-2.595,-0.215 -2.596,-1.56 -2.605,-2.906C-2.606,-3.091 -2.548,-3.149 -2.364,-3.144C-1.953,-3.132 -1.543,-3.14 -1.036,-3.14C-0.455,-3.125 0.225,-3.182 0.89,-2.979C2.214,-2.576 2.537,-1.416 2.311,-0.341C2.085,0.735 1.329,1.275 0,1.34M4.367,6.079C3.653,5.013 2.937,3.948 2.224,2.881C2.138,2.753 2.005,2.647 2.277,2.524C4.501,1.512 4.699,-1.112 3.952,-2.696C3.282,-4.115 2.025,-4.682 0.555,-4.822C-1.07,-4.977 -2.705,-4.854 -4.335,-4.889C-4.536,-4.893 -4.56,-4.811 -4.56,-4.643C-4.556,-1.073 -4.556,2.497 -4.562,6.067C-4.562,6.253 -4.507,6.305 -4.324,6.301C-3.855,6.289 -3.385,6.28 -2.917,6.303C-2.639,6.317 -2.585,6.213 -2.59,5.961C-2.607,5.084 -2.598,4.206 -2.612,3.328C-2.616,3.094 -2.555,3.017 -2.304,3.024C-1.553,3.044 -0.801,3.039 -0.05,3.027C0.158,3.023 0.284,3.077 0.403,3.261C1.005,4.192 1.624,5.113 2.242,6.034C2.316,6.143 2.36,6.298 2.54,6.297C3.171,6.296 3.802,6.297 4.495,6.297C4.425,6.177 4.399,6.126 4.367,6.079" style="fill:rgb(254,254,254);fill-rule:nonzero;"/>
                </g>
                <g transform="matrix(1,0,0,1,1345.67,3296.45)">
                    <path d="M0,2.757C-0.264,2.757 -0.13,2.601 -0.089,2.5C0.352,1.411 0.797,0.323 1.242,-0.764C1.418,-1.193 1.598,-1.621 1.822,-2.16C2.517,-0.474 3.174,1.121 3.848,2.758C2.529,2.758 1.265,2.758 0,2.757M6.903,5.354C5.561,2.234 4.219,-0.886 2.883,-4.008C2.817,-4.161 2.735,-4.21 2.574,-4.206C2.14,-4.195 1.704,-4.178 1.272,-4.21C0.962,-4.233 0.826,-4.116 0.713,-3.842C0.246,-2.713 -0.244,-1.594 -0.726,-0.471C-1.756,1.93 -2.784,4.332 -3.821,6.73C-3.919,6.958 -3.839,6.985 -3.64,6.982C-3.159,6.974 -2.677,6.97 -2.197,6.984C-1.993,6.99 -1.891,6.934 -1.814,6.732C-1.544,6.026 -1.238,5.333 -0.967,4.628C-0.886,4.418 -0.782,4.355 -0.56,4.357C1.024,4.368 2.608,4.367 4.192,4.357C4.413,4.356 4.526,4.423 4.607,4.628C4.881,5.331 5.173,6.027 5.458,6.726C5.51,6.856 5.547,6.985 5.738,6.983C6.346,6.974 6.955,6.979 7.609,6.979C7.357,6.4 7.128,5.878 6.903,5.354" style="fill:rgb(254,254,254);fill-rule:nonzero;"/>
                </g>
                <g transform="matrix(1,0,0,1,1415.41,3296.45)">
                    <path d="M0,2.752C-0.27,2.752 -0.128,2.585 -0.092,2.496C0.305,1.513 0.711,0.533 1.113,-0.448C1.334,-0.985 1.553,-1.522 1.86,-2.068C2.518,-0.474 3.175,1.12 3.849,2.752C2.531,2.752 1.266,2.751 0,2.752M7.399,6.489C5.901,3.007 4.4,-0.473 2.907,-3.957C2.824,-4.15 2.724,-4.22 2.516,-4.212C2.082,-4.196 1.646,-4.185 1.213,-4.215C0.938,-4.234 0.824,-4.119 0.728,-3.889C0.255,-2.759 -0.229,-1.633 -0.711,-0.507C-1.741,1.895 -2.769,4.297 -3.808,6.694C-3.926,6.965 -3.827,6.982 -3.601,6.977C-3.132,6.968 -2.662,6.964 -2.193,6.979C-1.986,6.986 -1.886,6.922 -1.811,6.726C-1.539,6.018 -1.241,5.321 -0.965,4.615C-0.891,4.427 -0.798,4.351 -0.583,4.352C1.014,4.363 2.611,4.362 4.208,4.353C4.415,4.351 4.525,4.413 4.6,4.603C4.88,5.308 5.169,6.009 5.458,6.71C5.509,6.832 5.521,6.98 5.724,6.977C6.333,6.967 6.942,6.973 7.586,6.973C7.515,6.789 7.462,6.636 7.399,6.489" style="fill:rgb(254,254,254);fill-rule:nonzero;"/>
                </g>
                <g transform="matrix(1,0,0,1,1386.57,3309.34)">
                    <path d="M0,-0.659C-0.267,-0.679 -0.538,-0.664 -0.807,-0.664C-1.099,-0.664 -1.392,-0.671 -1.684,-0.662C-1.838,-0.657 -1.89,-0.694 -1.86,-0.859C-1.781,-1.296 -1.294,-1.69 -0.791,-1.707C-0.287,-1.724 0.132,-1.408 0.24,-0.938C0.287,-0.73 0.233,-0.641 0,-0.659M-0.669,-2.208C-1.554,-2.248 -2.227,-1.742 -2.493,-0.87C-2.72,-0.123 -2.407,0.743 -1.76,1.157C-1.084,1.589 -0.056,1.506 0.535,0.984C0.731,0.811 0.766,0.707 0.519,0.528C0.326,0.388 0.239,0.417 0.098,0.567C-0.5,1.204 -1.584,0.834 -1.812,0.202C-1.921,-0.103 -1.887,-0.171 -1.576,-0.173C-1.212,-0.175 -0.849,-0.173 -0.485,-0.173C-0.086,-0.173 0.313,-0.173 0.712,-0.174C0.826,-0.174 0.947,-0.144 0.947,-0.337C0.95,-1.193 0.511,-2.155 -0.669,-2.208" style="fill:rgb(254,254,254);fill-rule:nonzero;"/>
                </g>
                <g transform="matrix(1,0,0,1,1412.06,3309.25)">
                    <path d="M0,-0.569C-0.571,-0.584 -1.144,-0.583 -1.715,-0.57C-1.944,-0.565 -1.929,-0.678 -1.891,-0.828C-1.781,-1.259 -1.298,-1.612 -0.81,-1.618C-0.305,-1.623 0.127,-1.284 0.194,-0.826C0.216,-0.677 0.224,-0.563 0,-0.569M0.096,-1.887C-0.494,-2.231 -1.121,-2.214 -1.709,-1.874C-2.372,-1.491 -2.646,-0.878 -2.589,-0.132C-2.534,0.57 -2.214,1.114 -1.527,1.381C-0.801,1.662 -0.13,1.546 0.484,1.074C0.692,0.914 0.725,0.8 0.472,0.615C0.276,0.472 0.2,0.518 0.053,0.656C-0.545,1.221 -1.557,1.022 -1.857,0.292C-1.981,-0.011 -1.938,-0.082 -1.624,-0.083C-1.248,-0.085 -0.873,-0.084 -0.498,-0.084C-0.099,-0.084 0.299,-0.088 0.698,-0.081C0.842,-0.079 0.913,-0.112 0.905,-0.275C0.875,-0.934 0.703,-1.534 0.096,-1.887" style="fill:rgb(254,254,254);fill-rule:nonzero;"/>
                </g>
                <g transform="matrix(1,0,0,1,1421.77,3309.21)">
                    <path d="M0,-0.53C-0.28,-0.55 -0.562,-0.535 -0.843,-0.535C-1.135,-0.535 -1.428,-0.536 -1.721,-0.534C-1.823,-0.534 -1.896,-0.536 -1.881,-0.682C-1.836,-1.122 -1.326,-1.553 -0.805,-1.577C-0.29,-1.601 0.125,-1.284 0.223,-0.815C0.265,-0.61 0.247,-0.512 0,-0.53M0.248,-1.767C-0.333,-2.196 -1.159,-2.187 -1.796,-1.758C-2.39,-1.357 -2.696,-0.54 -2.513,0.199C-2.345,0.878 -1.938,1.338 -1.24,1.502C-0.542,1.666 0.082,1.523 0.612,1.026C0.681,0.961 0.762,0.913 0.68,0.797C0.516,0.567 0.281,0.533 0.072,0.72C-0.55,1.277 -1.575,1.031 -1.839,0.265C-1.911,0.057 -1.919,-0.064 -1.632,-0.049C-1.258,-0.028 -0.881,-0.044 -0.505,-0.044C-0.094,-0.044 0.316,-0.044 0.727,-0.043C0.835,-0.043 0.932,-0.028 0.932,-0.196C0.935,-0.823 0.777,-1.378 0.248,-1.767" style="fill:rgb(254,254,254);fill-rule:nonzero;"/>
                </g>
                <g transform="matrix(1,0,0,1,1394.87,3307.73)">
                    <path d="M0,2.455C-0.719,2.451 -1.169,1.968 -1.162,1.208C-1.156,0.456 -0.726,0.015 -0.001,0.015C0.726,0.016 1.187,0.498 1.173,1.242C1.159,1.975 0.692,2.459 0,2.455M-0.003,-0.6C-1.032,-0.599 -1.848,0.223 -1.841,1.252C-1.834,2.25 -0.998,3.057 0.017,3.046C1.044,3.034 1.839,2.233 1.835,1.214C1.83,0.205 1.014,-0.602 -0.003,-0.6" style="fill:rgb(254,254,254);fill-rule:nonzero;"/>
                </g>
            </g>
        </g>
    </g>
</svg>
