<svg width="336" height="61" viewBox="0 0 336 61" fill="none" xmlns="http://www.w3.org/2000/svg">
<path d="M0.0948486 42.2939V1.34758H22.3298V3.83838H3.07166V19.9375H20.6895V22.4283H3.07166V42.2939H0.0948486Z" fill="white"/>
<path d="M43.7608 42.2939H40.784V24.7976L26.4467 1.34758H29.8487L37.4426 14.1053C40.1967 18.7629 41.8572 21.6183 42.4243 22.6713H42.5458C43.2343 21.2943 44.9353 18.4389 47.6489 14.1053L55.6073 1.34758H59.0094L43.7608 24.9191V42.2939Z" fill="#C1182A"/>
<path d="M103.055 42.2939L101.779 22.975C101.131 13.7003 100.807 7.58471 100.807 4.62815H100.686C98.9847 9.16424 96.9394 14.2674 94.5498 19.9375L85.0726 42.2939H82.8248L73.9551 20.2412C71.1201 13.1941 69.1963 7.98972 68.1837 4.62815H68.0622C67.7787 12.5258 67.4345 18.8439 67.0295 23.5825L65.5714 42.2939H62.6554L65.936 1.34758H69.338L79.1797 25.7696C81.2048 30.7917 82.8248 35.1455 84.0398 38.8311H84.1613C85.1334 35.7936 86.8141 31.46 89.2037 25.8303L99.5314 1.34758H103.055L105.971 42.2939H103.055Z" fill="white"/>
<path d="M136.452 19.4515V21.9423H118.226V39.8031H138.517V42.2939H115.249V1.34758H137.484V3.83838H118.226V19.4515H136.452Z" fill="white"/>
<path d="M146.278 42.2939V1.34758H149.254V39.8031H169.545V42.2939H146.278Z" fill="white"/>
<path d="M204.421 38.2844L205.333 40.6537C202.174 42.2332 197.901 43.023 192.514 43.023C189.679 43.023 186.986 42.5977 184.434 41.7472C181.923 40.8562 179.635 39.5804 177.569 37.9199C175.544 36.2188 173.924 34.0115 172.709 31.298C171.494 28.5439 170.887 25.4456 170.887 22.003C170.887 19.2895 171.393 16.6772 172.405 14.1661C173.418 11.6145 174.856 9.32625 176.719 7.3012C178.582 5.27616 181.012 3.65613 184.009 2.4411C187.046 1.22607 190.428 0.618561 194.154 0.618561C198.65 0.618561 202.336 1.30708 205.211 2.68411L204.239 5.17491C201.485 3.79788 198.184 3.10936 194.337 3.10936C187.857 3.10936 182.834 4.87115 179.27 8.39473C175.747 11.9183 173.985 16.5354 173.985 22.246C173.985 27.5111 175.706 31.865 179.149 35.3075C182.591 38.7501 187.411 40.4714 193.608 40.4714C197.901 40.4714 201.505 39.7424 204.421 38.2844Z" fill="white"/>
<path d="M229.269 43.023H229.208C223.376 43.023 218.516 41.0789 214.628 37.1908C210.78 33.2623 208.856 28.3211 208.856 22.3675C208.856 16.0089 210.841 10.8045 214.81 6.75444C218.779 2.66385 223.72 0.618561 229.633 0.618561C235.587 0.618561 240.467 2.58285 244.274 6.51144C248.081 10.3995 249.985 15.3204 249.985 21.274C249.985 27.9971 247.94 33.3028 243.849 37.1908C239.799 41.0789 234.939 43.023 229.269 43.023ZM229.269 40.5929H229.329C234.635 40.5929 238.888 38.8109 242.087 35.2468C245.287 31.6422 246.887 27.0656 246.887 21.517C246.887 16.6569 245.347 12.3638 242.269 8.63773C239.191 4.91165 234.939 3.04861 229.512 3.04861C223.963 3.04861 219.65 4.91165 216.572 8.63773C213.494 12.3233 211.955 16.8594 211.955 22.246C211.955 27.2681 213.534 31.5815 216.693 35.186C219.893 38.7906 224.085 40.5929 229.269 40.5929Z" fill="white"/>
<path d="M49.5021 60.7454V53.1915H46.6345V51.7976H54.1087V53.1915H51.2146V60.7454H49.5021Z" fill="white"/>
<path d="M58.2138 51.7976H59.9264V56.7892C59.9264 57.692 60.1122 58.3823 60.484 58.8602C60.8557 59.3293 61.3734 59.5638 62.0372 59.5638C62.7276 59.5638 63.2586 59.3337 63.6303 58.8735C64.0109 58.4044 64.2012 57.7097 64.2012 56.7892V51.7976H65.9137V56.7228C65.9137 58.1301 65.5597 59.1788 64.8517 59.8692C64.1525 60.5595 63.1878 60.9047 61.9576 60.9047C60.7893 60.9047 59.8733 60.5684 59.2095 59.8957C58.5457 59.2142 58.2138 58.1566 58.2138 56.7228V51.7976Z" fill="white"/>
<path d="M76.9351 51.7976H78.6477V55.3422H82.9756V51.7976H84.6881V60.7454H82.9756V56.8025H78.6477V60.7454H76.9351V51.7976Z" fill="white"/>
<path d="M93.854 60.9047H93.8407C92.4689 60.9047 91.3581 60.4799 90.5085 59.6302C89.6588 58.7717 89.234 57.6831 89.234 56.3644C89.234 54.9749 89.6765 53.842 90.5616 52.9658C91.4466 52.0808 92.5839 51.6382 93.9734 51.6382C95.3807 51.6382 96.5091 52.0675 97.3587 52.926C98.2084 53.7756 98.6332 54.8642 98.6332 56.1918C98.6332 57.6079 98.1862 58.7496 97.2924 59.6169C96.3985 60.4754 95.2523 60.9047 93.854 60.9047ZM93.9203 59.5771H93.9336C94.8186 59.5771 95.5223 59.2673 96.0444 58.6478C96.5666 58.0194 96.8277 57.2185 96.8277 56.2449C96.8277 55.3422 96.5666 54.5722 96.0444 53.9349C95.5311 53.2889 94.8319 52.9658 93.9469 52.9658C93.0441 52.9658 92.3317 53.2889 91.8095 53.9349C91.2962 54.5722 91.0395 55.3687 91.0395 56.3246C91.0395 57.245 91.3006 58.0194 91.8228 58.6478C92.3538 59.2673 93.053 59.5771 93.9203 59.5771Z" fill="white"/>
<path d="M111.181 55.7803V60.2807C110.128 60.6524 109.039 60.8383 107.915 60.8383C106.225 60.8383 104.919 60.4046 103.999 59.5373C103.132 58.723 102.698 57.661 102.698 56.3511C102.698 54.9881 103.194 53.873 104.185 53.0056C105.176 52.1383 106.499 51.7046 108.154 51.7046C109.314 51.7046 110.212 51.8639 110.849 52.1825L110.464 53.5234C109.8 53.2313 109.008 53.0853 108.088 53.0853C107.008 53.0853 106.136 53.3729 105.473 53.9482C104.818 54.5146 104.49 55.2758 104.49 56.2316C104.49 57.1963 104.809 57.9796 105.446 58.5814C106.092 59.1744 106.951 59.4709 108.021 59.4709C108.712 59.4709 109.207 59.4001 109.508 59.2585V57.1078H107.729V55.7803H111.181Z" fill="white"/>
<path d="M121.169 58.1433H117.983L117.12 60.7454H115.327L118.487 51.7976H120.717L123.97 60.7454H122.098L121.169 58.1433ZM118.275 56.8689H120.863L120.054 54.612C119.947 54.3288 119.779 53.811 119.549 53.0587H119.523C119.496 53.1472 119.43 53.3774 119.323 53.7491C119.226 54.1208 119.142 54.4084 119.071 54.612L118.275 56.8689Z" fill="white"/>
<path d="M128.341 60.7454V51.917C129.172 51.7843 130.089 51.7179 131.089 51.7179C132.434 51.7179 133.412 51.9657 134.023 52.4613C134.562 52.8862 134.832 53.4836 134.832 54.2536C134.832 54.8111 134.664 55.2846 134.328 55.6741C133.992 56.0635 133.593 56.3334 133.133 56.4839V56.5237C133.735 56.7538 134.16 57.3158 134.408 58.2097C134.461 58.4133 134.531 58.6832 134.62 59.0195C134.717 59.347 134.793 59.6037 134.846 59.7895C134.899 59.9665 134.956 60.1524 135.018 60.3471C135.08 60.533 135.133 60.6657 135.178 60.7454H133.425C133.257 60.4444 133.04 59.7453 132.775 58.6478C132.633 58.0725 132.429 57.6743 132.164 57.453C131.907 57.2229 131.527 57.099 131.022 57.0813H130.04V60.7454H128.341ZM130.04 53.0853V55.8466H131.208C131.801 55.8466 132.27 55.7183 132.615 55.4616C132.96 55.205 133.133 54.8554 133.133 54.4129C133.133 53.9261 132.96 53.5676 132.615 53.3375C132.279 53.1074 131.819 52.9924 131.235 52.9924C130.73 52.9924 130.332 53.0233 130.04 53.0853Z" fill="white"/>
<path d="M152.396 59.1257L152.702 60.44C152.082 60.7498 151.197 60.9047 150.046 60.9047C148.506 60.9047 147.285 60.4931 146.382 59.67C145.48 58.8381 145.028 57.7362 145.028 56.3644C145.028 54.9749 145.511 53.842 146.475 52.9658C147.449 52.0808 148.714 51.6382 150.272 51.6382C151.378 51.6382 152.21 51.7887 152.768 52.0896L152.383 53.4305C151.799 53.1561 151.122 53.0189 150.352 53.0189C149.281 53.0189 148.422 53.311 147.776 53.8951C147.139 54.4792 146.82 55.2802 146.82 56.298C146.82 57.2362 147.126 58.0061 147.736 58.608C148.356 59.201 149.214 59.4974 150.312 59.4974C151.144 59.4974 151.839 59.3735 152.396 59.1257Z" fill="white"/>
<path d="M161.012 60.9047H160.999C159.627 60.9047 158.516 60.4799 157.666 59.6302C156.817 58.7717 156.392 57.6831 156.392 56.3644C156.392 54.9749 156.834 53.842 157.719 52.9658C158.604 52.0808 159.742 51.6382 161.131 51.6382C162.538 51.6382 163.667 52.0675 164.517 52.926C165.366 53.7756 165.791 54.8642 165.791 56.1918C165.791 57.6079 165.344 58.7496 164.45 59.6169C163.556 60.4754 162.41 60.9047 161.012 60.9047ZM161.078 59.5771H161.091C161.976 59.5771 162.68 59.2673 163.202 58.6478C163.724 58.0194 163.986 57.2185 163.986 56.2449C163.986 55.3422 163.724 54.5722 163.202 53.9349C162.689 53.2889 161.99 52.9658 161.105 52.9658C160.202 52.9658 159.49 53.2889 158.967 53.9349C158.454 54.5722 158.197 55.3687 158.197 56.3246C158.197 57.245 158.458 58.0194 158.981 58.6478C159.512 59.2673 160.211 59.5771 161.078 59.5771Z" fill="white"/>
<path d="M171.927 60.7454H170.334V51.7976H172.378L174.967 55.6475C175.631 56.6565 176.193 57.6743 176.653 58.7009L176.693 58.6876C176.595 57.8114 176.547 56.6211 176.547 55.1165V51.7976H178.14V60.7454H176.321L173.706 56.7627C172.874 55.4351 172.272 54.3819 171.9 53.603L171.847 53.6163C171.9 54.5722 171.927 55.8024 171.927 57.307V60.7454Z" fill="white"/>
<path d="M194.681 55.4351V56.8158H190.897V59.3647H195.119V60.7454H189.185V51.7976H194.906V53.1782H190.897V55.4351H194.681Z" fill="white"/>
<path d="M199.321 60.2807L199.72 58.8868C200.463 59.3116 201.268 59.524 202.136 59.524C202.676 59.524 203.096 59.4178 203.397 59.2054C203.698 58.9841 203.848 58.6832 203.848 58.3026C203.848 57.9752 203.72 57.7052 203.463 57.4928C203.207 57.2716 202.764 57.0636 202.136 56.8689C201.26 56.6122 200.596 56.2759 200.144 55.8599C199.693 55.4351 199.467 54.8908 199.467 54.227C199.467 53.4747 199.773 52.8552 200.383 52.3684C201.003 51.8816 201.813 51.6382 202.813 51.6382C203.769 51.6382 204.574 51.7976 205.229 52.1162L204.791 53.4703C204.145 53.1605 203.472 53.0056 202.773 53.0056C202.251 53.0056 201.857 53.1118 201.591 53.3243C201.335 53.5367 201.206 53.7889 201.206 54.081C201.206 54.4084 201.344 54.674 201.618 54.8775C201.901 55.0722 202.384 55.2802 203.065 55.5015C203.941 55.7935 204.583 56.1476 204.99 56.5635C205.397 56.9795 205.601 57.5282 205.601 58.2097C205.601 58.9708 205.295 59.6125 204.685 60.1347C204.083 60.648 203.184 60.9047 201.99 60.9047C201.494 60.9047 200.998 60.8471 200.503 60.7321C200.007 60.6082 199.613 60.4577 199.321 60.2807Z" fill="white"/>
<path d="M212.204 60.7454V53.1915H209.337V51.7976H216.811V53.1915H213.917V60.7454H212.204Z" fill="white"/>
<path d="M220.916 51.7976H222.629V60.7454H220.916V51.7976Z" fill="white"/>
<path d="M227.651 60.7454V51.7976H229.364V59.3116H233.466V60.7454H227.651Z" fill="white"/>
<path d="M241.446 60.9047H241.433C240.061 60.9047 238.95 60.4799 238.1 59.6302C237.251 58.7717 236.826 57.6831 236.826 56.3644C236.826 54.9749 237.268 53.842 238.153 52.9658C239.039 52.0808 240.176 51.6382 241.565 51.6382C242.973 51.6382 244.101 52.0675 244.951 52.926C245.8 53.7756 246.225 54.8642 246.225 56.1918C246.225 57.6079 245.778 58.7496 244.884 59.6169C243.99 60.4754 242.844 60.9047 241.446 60.9047ZM241.512 59.5771H241.525C242.411 59.5771 243.114 59.2673 243.636 58.6478C244.158 58.0194 244.42 57.2185 244.42 56.2449C244.42 55.3422 244.158 54.5722 243.636 53.9349C243.123 53.2889 242.424 52.9658 241.539 52.9658C240.636 52.9658 239.924 53.2889 239.401 53.9349C238.888 54.5722 238.631 55.3687 238.631 56.3246C238.631 57.245 238.892 58.0194 239.415 58.6478C239.946 59.2673 240.645 59.5771 241.512 59.5771Z" fill="white"/>
<path d="M280.005 33.8796L307.03 6.85461L334.055 33.8796L307.03 60.9047L280.005 33.8796Z" fill="#C1182A"/>
<path d="M265.08 18.9549L278.593 5.44241L292.105 18.9549L278.593 32.4674L265.08 18.9549Z" fill="#C1182A"/>
<path d="M276.642 0.61853L310.417 0.642738L310.393 0.666944L293.493 17.5185L276.642 0.61853Z" fill="white"/>
<path d="M263.649 20.3865L263.668 47.4358L263.687 47.4164L277.183 33.8821L263.649 20.3865Z" fill="white"/>
<path d="M308.45 5.43442L319.649 16.649L319.649 16.6329V5.43442H308.45Z" fill="white"/>
</svg>
