<svg width="335" height="61" viewBox="0 0 335 61" fill="none" xmlns="http://www.w3.org/2000/svg">
<path d="M0.0673828 42.2939V1.34758H22.3024V3.83838H3.0442V19.9375H20.6621V22.4283H3.0442V42.2939H0.0673828Z" fill="white"/>
<path d="M43.7333 42.2939H40.7565V24.7976L26.4192 1.34758H29.8213L37.4152 14.1053C40.1692 18.7629 41.8298 21.6183 42.3968 22.6713H42.5183C43.2068 21.2943 44.9078 18.4389 47.6214 14.1053L55.5798 1.34758H58.9819L43.7333 24.9191V42.2939Z" fill="white"/>
<path d="M103.028 42.2939L101.752 22.975C101.104 13.7003 100.78 7.58471 100.78 4.62815H100.658C98.9572 9.16424 96.9119 14.2674 94.5223 19.9375L85.0451 42.2939H82.7973L73.9277 20.2412C71.0926 13.1941 69.1688 7.98972 68.1563 4.62815H68.0348C67.7513 12.5258 67.407 18.8439 67.002 23.5825L65.544 42.2939H62.6279L65.9085 1.34758H69.3106L79.1523 25.7696C81.1773 30.7917 82.7973 35.1455 84.0124 38.8311H84.1339C85.1059 35.7936 86.7867 31.46 89.1762 25.8303L99.504 1.34758H103.028L105.944 42.2939H103.028Z" fill="white"/>
<path d="M136.424 19.4515V21.9423H118.199V39.8031H138.49V42.2939H115.222V1.34758H137.457V3.83838H118.199V19.4515H136.424Z" fill="white"/>
<path d="M146.25 42.2939V1.34758H149.227V39.8031H169.518V42.2939H146.25Z" fill="white"/>
<path d="M204.394 38.2844L205.305 40.6537C202.146 42.2332 197.873 43.023 192.487 43.023C189.652 43.023 186.958 42.5977 184.407 41.7472C181.896 40.8562 179.607 39.5804 177.542 37.9199C175.517 36.2188 173.897 34.0115 172.682 31.298C171.467 28.5439 170.859 25.4456 170.859 22.003C170.859 19.2895 171.365 16.6772 172.378 14.1661C173.39 11.6145 174.828 9.32625 176.691 7.3012C178.554 5.27616 180.984 3.65613 183.981 2.4411C187.019 1.22607 190.401 0.618561 194.127 0.618561C198.623 0.618561 202.308 1.30708 205.184 2.68411L204.212 5.17491C201.458 3.79788 198.157 3.10936 194.309 3.10936C187.829 3.10936 182.807 4.87115 179.243 8.39473C175.719 11.9183 173.957 16.5354 173.957 22.246C173.957 27.5111 175.679 31.865 179.121 35.3075C182.564 38.7501 187.384 40.4714 193.58 40.4714C197.873 40.4714 201.478 39.7424 204.394 38.2844Z" fill="white"/>
<path d="M229.241 43.023H229.18C223.348 43.023 218.488 41.0789 214.6 37.1908C210.753 33.2623 208.829 28.3211 208.829 22.3675C208.829 16.0089 210.813 10.8045 214.782 6.75444C218.751 2.66385 223.693 0.618561 229.606 0.618561C235.559 0.618561 240.44 2.58285 244.247 6.51144C248.054 10.3995 249.957 15.3204 249.957 21.274C249.957 27.9971 247.912 33.3028 243.821 37.1908C239.771 41.0789 234.911 43.023 229.241 43.023ZM229.241 40.5929H229.302C234.608 40.5929 238.86 38.8109 242.06 35.2468C245.259 31.6422 246.859 27.0656 246.859 21.517C246.859 16.6569 245.32 12.3638 242.242 8.63773C239.164 4.91165 234.911 3.04861 229.484 3.04861C223.936 3.04861 219.622 4.91165 216.544 8.63773C213.466 12.3233 211.927 16.8594 211.927 22.246C211.927 27.2681 213.507 31.5815 216.666 35.186C219.865 38.7906 224.057 40.5929 229.241 40.5929Z" fill="white"/>
<path d="M49.4746 60.7454V53.1915H46.6071V51.7976H54.0813V53.1915H51.1872V60.7454H49.4746Z" fill="white"/>
<path d="M58.1864 51.7976H59.8989V56.7892C59.8989 57.692 60.0848 58.3823 60.4565 58.8602C60.8282 59.3293 61.346 59.5638 62.0098 59.5638C62.7001 59.5638 63.2311 59.3337 63.6028 58.8735C63.9834 58.4044 64.1737 57.7097 64.1737 56.7892V51.7976H65.8863V56.7228C65.8863 58.1301 65.5322 59.1788 64.8242 59.8692C64.125 60.5595 63.1603 60.9047 61.9301 60.9047C60.7618 60.9047 59.8458 60.5684 59.182 59.8957C58.5182 59.2142 58.1864 58.1566 58.1864 56.7228V51.7976Z" fill="white"/>
<path d="M76.9077 51.7976H78.6202V55.3422H82.9481V51.7976H84.6607V60.7454H82.9481V56.8025H78.6202V60.7454H76.9077V51.7976Z" fill="white"/>
<path d="M93.8265 60.9047H93.8132C92.4414 60.9047 91.3307 60.4799 90.481 59.6302C89.6314 58.7717 89.2065 57.6831 89.2065 56.3644C89.2065 54.9749 89.6491 53.842 90.5341 52.9658C91.4192 52.0808 92.5564 51.6382 93.946 51.6382C95.3532 51.6382 96.4816 52.0675 97.3313 52.926C98.1809 53.7756 98.6057 54.8642 98.6057 56.1918C98.6057 57.6079 98.1588 58.7496 97.2649 59.6169C96.371 60.4754 95.2249 60.9047 93.8265 60.9047ZM93.8929 59.5771H93.9061C94.7912 59.5771 95.4948 59.2673 96.017 58.6478C96.5391 58.0194 96.8002 57.2185 96.8002 56.2449C96.8002 55.3422 96.5391 54.5722 96.017 53.9349C95.5036 53.2889 94.8045 52.9658 93.9194 52.9658C93.0167 52.9658 92.3042 53.2889 91.782 53.9349C91.2687 54.5722 91.012 55.3687 91.012 56.3246C91.012 57.245 91.2731 58.0194 91.7953 58.6478C92.3263 59.2673 93.0255 59.5771 93.8929 59.5771Z" fill="white"/>
<path d="M111.154 55.7803V60.2807C110.1 60.6524 109.012 60.8383 107.888 60.8383C106.197 60.8383 104.892 60.4046 103.971 59.5373C103.104 58.723 102.67 57.661 102.67 56.3511C102.67 54.9881 103.166 53.873 104.157 53.0056C105.149 52.1383 106.472 51.7046 108.127 51.7046C109.286 51.7046 110.185 51.8639 110.822 52.1825L110.437 53.5234C109.773 53.2313 108.981 53.0853 108.06 53.0853C106.981 53.0853 106.109 53.3729 105.445 53.9482C104.79 54.5146 104.463 55.2758 104.463 56.2316C104.463 57.1963 104.781 57.9796 105.419 58.5814C106.065 59.1744 106.923 59.4709 107.994 59.4709C108.684 59.4709 109.18 59.4001 109.481 59.2585V57.1078H107.702V55.7803H111.154Z" fill="white"/>
<path d="M121.141 58.1433H117.955L117.092 60.7454H115.3L118.46 51.7976H120.69L123.942 60.7454H122.071L121.141 58.1433ZM118.247 56.8689H120.836L120.026 54.612C119.92 54.3288 119.752 53.811 119.522 53.0587H119.495C119.469 53.1472 119.402 53.3774 119.296 53.7491C119.199 54.1208 119.115 54.4084 119.044 54.612L118.247 56.8689Z" fill="white"/>
<path d="M128.313 60.7454V51.917C129.145 51.7843 130.061 51.7179 131.061 51.7179C132.406 51.7179 133.384 51.9657 133.995 52.4613C134.535 52.8862 134.805 53.4836 134.805 54.2536C134.805 54.8111 134.637 55.2846 134.3 55.6741C133.964 56.0635 133.566 56.3334 133.106 56.4839V56.5237C133.707 56.7538 134.132 57.3158 134.38 58.2097C134.433 58.4133 134.504 58.6832 134.592 59.0195C134.69 59.347 134.765 59.6037 134.818 59.7895C134.871 59.9665 134.929 60.1524 134.991 60.3471C135.053 60.533 135.106 60.6657 135.15 60.7454H133.398C133.23 60.4444 133.013 59.7453 132.747 58.6478C132.606 58.0725 132.402 57.6743 132.136 57.453C131.88 57.2229 131.499 57.099 130.995 57.0813H130.012V60.7454H128.313ZM130.012 53.0853V55.8466H131.181C131.774 55.8466 132.243 55.7183 132.588 55.4616C132.933 55.205 133.106 54.8554 133.106 54.4129C133.106 53.9261 132.933 53.5676 132.588 53.3375C132.252 53.1074 131.791 52.9924 131.207 52.9924C130.703 52.9924 130.304 53.0233 130.012 53.0853Z" fill="white"/>
<path d="M152.369 59.1257L152.674 60.44C152.055 60.7498 151.169 60.9047 150.019 60.9047C148.479 60.9047 147.258 60.4931 146.355 59.67C145.452 58.8381 145.001 57.7362 145.001 56.3644C145.001 54.9749 145.483 53.842 146.448 52.9658C147.421 52.0808 148.687 51.6382 150.245 51.6382C151.351 51.6382 152.183 51.7887 152.74 52.0896L152.355 53.4305C151.771 53.1561 151.094 53.0189 150.324 53.0189C149.253 53.0189 148.395 53.311 147.749 53.8951C147.112 54.4792 146.793 55.2802 146.793 56.298C146.793 57.2362 147.098 58.0061 147.709 58.608C148.328 59.201 149.187 59.4974 150.284 59.4974C151.116 59.4974 151.811 59.3735 152.369 59.1257Z" fill="white"/>
<path d="M160.984 60.9047H160.971C159.599 60.9047 158.488 60.4799 157.639 59.6302C156.789 58.7717 156.364 57.6831 156.364 56.3644C156.364 54.9749 156.807 53.842 157.692 52.9658C158.577 52.0808 159.714 51.6382 161.104 51.6382C162.511 51.6382 163.639 52.0675 164.489 52.926C165.339 53.7756 165.764 54.8642 165.764 56.1918C165.764 57.6079 165.317 58.7496 164.423 59.6169C163.529 60.4754 162.383 60.9047 160.984 60.9047ZM161.051 59.5771H161.064C161.949 59.5771 162.653 59.2673 163.175 58.6478C163.697 58.0194 163.958 57.2185 163.958 56.2449C163.958 55.3422 163.697 54.5722 163.175 53.9349C162.661 53.2889 161.962 52.9658 161.077 52.9658C160.175 52.9658 159.462 53.2889 158.94 53.9349C158.427 54.5722 158.17 55.3687 158.17 56.3246C158.17 57.245 158.431 58.0194 158.953 58.6478C159.484 59.2673 160.183 59.5771 161.051 59.5771Z" fill="white"/>
<path d="M171.899 60.7454H170.306V51.7976H172.351L174.939 55.6475C175.603 56.6565 176.165 57.6743 176.625 58.7009L176.665 58.6876C176.568 57.8114 176.519 56.6211 176.519 55.1165V51.7976H178.112V60.7454H176.294L173.678 56.7627C172.846 55.4351 172.244 54.3819 171.873 53.603L171.82 53.6163C171.873 54.5722 171.899 55.8024 171.899 57.307V60.7454Z" fill="white"/>
<path d="M194.653 55.4351V56.8158H190.87V59.3647H195.091V60.7454H189.157V51.7976H194.879V53.1782H190.87V55.4351H194.653Z" fill="white"/>
<path d="M199.294 60.2807L199.692 58.8868C200.436 59.3116 201.241 59.524 202.108 59.524C202.648 59.524 203.069 59.4178 203.369 59.2054C203.67 58.9841 203.821 58.6832 203.821 58.3026C203.821 57.9752 203.692 57.7052 203.436 57.4928C203.179 57.2716 202.737 57.0636 202.108 56.8689C201.232 56.6122 200.568 56.2759 200.117 55.8599C199.666 55.4351 199.44 54.8908 199.44 54.227C199.44 53.4747 199.745 52.8552 200.356 52.3684C200.975 51.8816 201.785 51.6382 202.785 51.6382C203.741 51.6382 204.547 51.7976 205.201 52.1162L204.763 53.4703C204.117 53.1605 203.445 53.0056 202.745 53.0056C202.223 53.0056 201.829 53.1118 201.564 53.3243C201.307 53.5367 201.179 53.7889 201.179 54.081C201.179 54.4084 201.316 54.674 201.59 54.8775C201.874 55.0722 202.356 55.2802 203.038 55.5015C203.914 55.7935 204.555 56.1476 204.963 56.5635C205.37 56.9795 205.573 57.5282 205.573 58.2097C205.573 58.9708 205.268 59.6125 204.657 60.1347C204.055 60.648 203.157 60.9047 201.962 60.9047C201.467 60.9047 200.971 60.8471 200.475 60.7321C199.98 60.6082 199.586 60.4577 199.294 60.2807Z" fill="white"/>
<path d="M212.177 60.7454V53.1915H209.309V51.7976H216.784V53.1915H213.889V60.7454H212.177Z" fill="white"/>
<path d="M220.889 51.7976H222.601V60.7454H220.889V51.7976Z" fill="white"/>
<path d="M227.624 60.7454V51.7976H229.337V59.3116H233.439V60.7454H227.624Z" fill="white"/>
<path d="M241.418 60.9047H241.405C240.033 60.9047 238.923 60.4799 238.073 59.6302C237.223 58.7717 236.798 57.6831 236.798 56.3644C236.798 54.9749 237.241 53.842 238.126 52.9658C239.011 52.0808 240.148 51.6382 241.538 51.6382C242.945 51.6382 244.074 52.0675 244.923 52.926C245.773 53.7756 246.198 54.8642 246.198 56.1918C246.198 57.6079 245.751 58.7496 244.857 59.6169C243.963 60.4754 242.817 60.9047 241.418 60.9047ZM241.485 59.5771H241.498C242.383 59.5771 243.087 59.2673 243.609 58.6478C244.131 58.0194 244.392 57.2185 244.392 56.2449C244.392 55.3422 244.131 54.5722 243.609 53.9349C243.096 53.2889 242.396 52.9658 241.511 52.9658C240.609 52.9658 239.896 53.2889 239.374 53.9349C238.861 54.5722 238.604 55.3687 238.604 56.3246C238.604 57.245 238.865 58.0194 239.387 58.6478C239.918 59.2673 240.617 59.5771 241.485 59.5771Z" fill="white"/>
<path d="M279.977 33.8796L307.002 6.85461L334.027 33.8796L307.002 60.9047L279.977 33.8796Z" fill="white"/>
<path d="M265.053 18.9549L278.565 5.44241L292.078 18.9549L278.565 32.4674L265.053 18.9549Z" fill="white"/>
<path d="M276.614 0.61853L310.39 0.642738L310.366 0.666944L293.466 17.5185L276.614 0.61853Z" fill="white"/>
<path d="M263.621 20.3865L263.64 47.4358L263.66 47.4164L277.155 33.8821L263.621 20.3865Z" fill="white"/>
<path d="M308.423 5.43442L319.621 16.649L319.621 16.6329V5.43442H308.423Z" fill="white"/>
</svg>
