<svg width="1201" height="277" viewBox="0 0 1201 277" fill="none" xmlns="http://www.w3.org/2000/svg">
<path d="M0.498596 0.7771H87.5664V166.143C87.5664 166.143 85.8414 213.595 135.853 213.712C185.865 213.595 184.14 166.143 184.14 166.143V0.7771H271.208V170.184C271.208 217.135 240.644 276.648 136.039 276.789L135.853 276.789H135.668C31.0628 276.648 0.498596 217.135 0.498596 170.184V0.7771Z" fill="black"/>
<path d="M1194.47 0.7771H1080.08L1033.43 60.4353L1092.34 128.917L1194.47 0.7771Z" fill="black"/>
<path d="M1200.5 276.789H1082.34L1031.28 213.442L1092.3 136.832L1200.5 276.789Z" fill="black"/>
<path fill-rule="evenodd" clip-rule="evenodd" d="M573.241 0.7771H847.942V66.8H672.636V102.36H935.895L849.129 0.7771H969.979L1079.35 133.074L967.567 276.789H573.241V0.7771ZM672.636 170.742V209.13H850.416V273.932L932.255 170.742H672.636Z" fill="black"/>
<path d="M560.231 0.7771H286.564V78.547H373.168V276.789H473.626V78.547H560.231V0.7771Z" fill="black"/>
<path fill-rule="evenodd" clip-rule="evenodd" d="M1169.13 74.5367V56.2974H1177.46C1179.5 56.2974 1181.07 56.789 1182.17 57.7721C1183.28 58.7552 1183.83 60.1264 1183.83 61.8856C1183.83 63.2482 1183.48 64.3865 1182.77 65.3006C1182.08 66.1975 1181.09 66.8098 1179.79 67.1375C1180.71 67.4134 1181.46 68.0775 1182.04 69.1296L1184.99 74.5367H1180.57L1177.41 68.7156C1177.15 68.25 1176.84 67.9309 1176.46 67.7584C1176.08 67.5687 1175.63 67.4738 1175.11 67.4738H1173.14V74.5367H1169.13ZM1173.14 64.5762H1176.74C1178.9 64.5762 1179.97 63.7139 1179.97 61.9891C1179.97 60.2816 1178.9 59.4279 1176.74 59.4279H1173.14V64.5762Z" fill="black"/>
<path fill-rule="evenodd" clip-rule="evenodd" d="M1195.11 65.417C1195.11 75.8881 1186.62 84.3766 1176.15 84.3766C1165.68 84.3766 1157.19 75.8881 1157.19 65.417C1157.19 54.9459 1165.68 46.4575 1176.15 46.4575C1186.62 46.4575 1195.11 54.9459 1195.11 65.417ZM1176.15 79.8334C1184.11 79.8334 1190.57 73.379 1190.57 65.417C1190.57 57.4551 1184.11 51.0007 1176.15 51.0007C1168.19 51.0007 1161.74 57.4551 1161.74 65.417C1161.74 73.379 1168.19 79.8334 1176.15 79.8334Z" fill="black"/>
</svg>
