<svg width="1201" height="277" viewBox="0 0 1201 277" fill="none" xmlns="http://www.w3.org/2000/svg">
<path d="M0.498596 0.765259H87.5664V166.132C87.5664 166.132 85.8414 213.583 135.853 213.7C185.865 213.583 184.14 166.132 184.14 166.132V0.765259H271.208V170.172C271.208 217.123 240.644 276.636 136.039 276.777L135.853 276.777H135.668C31.0628 276.636 0.498596 217.123 0.498596 170.172V0.765259Z" fill="white"/>
<path d="M1194.47 0.765259H1080.08L1033.43 60.4235L1092.34 128.905L1194.47 0.765259Z" fill="white"/>
<path d="M1200.5 276.777H1082.34L1031.28 213.43L1092.3 136.82L1200.5 276.777Z" fill="white"/>
<path fill-rule="evenodd" clip-rule="evenodd" d="M573.241 0.765259H847.942V66.7881H672.636V102.348H935.895L849.129 0.765259H969.979L1079.35 133.063L967.567 276.777H573.241V0.765259ZM672.636 170.73V209.118H850.416V273.92L932.255 170.73H672.636Z" fill="white"/>
<path d="M560.231 0.765259H286.564V78.5352H373.168V276.777H473.626V78.5352H560.231V0.765259Z" fill="white"/>
<path fill-rule="evenodd" clip-rule="evenodd" d="M1169.13 74.5248V56.2856H1177.46C1179.5 56.2856 1181.07 56.7771 1182.17 57.7603C1183.28 58.7434 1183.83 60.1145 1183.83 61.8738C1183.83 63.2363 1183.48 64.3747 1182.77 65.2888C1182.08 66.1857 1181.09 66.798 1179.79 67.1256C1180.71 67.4016 1181.46 68.0656 1182.04 69.1177L1184.99 74.5248H1180.57L1177.41 68.7038C1177.15 68.2381 1176.84 67.919 1176.46 67.7466C1176.08 67.5568 1175.63 67.462 1175.11 67.462H1173.14V74.5248H1169.13ZM1173.14 64.5644H1176.74C1178.9 64.5644 1179.97 63.702 1179.97 61.9773C1179.97 60.2698 1178.9 59.416 1176.74 59.416H1173.14V64.5644Z" fill="white"/>
<path fill-rule="evenodd" clip-rule="evenodd" d="M1195.11 65.4052C1195.11 75.8763 1186.62 84.3648 1176.15 84.3648C1165.68 84.3648 1157.19 75.8763 1157.19 65.4052C1157.19 54.9341 1165.68 46.4456 1176.15 46.4456C1186.62 46.4456 1195.11 54.9341 1195.11 65.4052ZM1176.15 79.8215C1184.11 79.8215 1190.57 73.3671 1190.57 65.4052C1190.57 57.4433 1184.11 50.9889 1176.15 50.9889C1168.19 50.9889 1161.74 57.4433 1161.74 65.4052C1161.74 73.3671 1168.19 79.8215 1176.15 79.8215Z" fill="white"/>
</svg>
