<svg width="373" height="177" viewBox="0 0 373 177" fill="none" xmlns="http://www.w3.org/2000/svg">
<path d="M51.2744 0.542322L69.5324 0V73.936L80.0173 69.4167L103.156 39.0469H122.137V41.0354L94.4791 77.3707L125.391 125.275V127.264H104.964L79.2942 86.2285L69.5324 89.6632V127.264H51.2744V0.542322Z" fill="white"/>
<path d="M125.244 83.1554C125.244 74.4783 126.329 67.2474 128.498 61.4627C130.667 55.678 133.741 50.7971 137.356 47.1817C140.972 43.5662 144.949 41.0354 149.649 39.5892C154.168 38.143 158.868 37.2392 163.749 37.2392C168.991 37.2392 174.053 37.9623 178.753 39.4084C183.453 40.8546 187.43 43.3854 191.046 47.0009C194.48 50.6163 197.192 55.3164 199.361 61.1012C201.35 67.0667 202.434 74.4783 202.434 83.1554C202.434 91.8325 201.169 99.2442 199 105.029C196.83 110.814 193.938 115.514 190.322 119.129C186.707 122.745 182.549 125.456 177.849 126.902C173.149 128.349 168.449 129.072 163.749 129.072C158.326 129.072 153.445 128.349 148.745 126.902C144.045 125.456 140.068 123.106 136.633 119.491C133.018 115.875 130.306 111.175 128.317 105.39C126.148 99.6057 125.244 92.194 125.244 83.1554ZM163.749 114.429C167.003 114.429 169.895 114.068 172.426 112.983C174.957 112.079 176.945 110.452 178.753 107.921C180.38 105.571 181.645 102.317 182.549 98.3403C183.272 94.3633 183.815 89.3017 183.815 83.1554C183.815 77.1899 183.272 72.1283 182.549 68.1513C181.645 64.1743 180.38 60.9204 178.753 58.3896C176.945 56.0395 174.957 54.4126 172.426 53.3279C169.895 52.4241 167.003 51.8817 163.749 51.8817C160.314 51.8817 157.422 52.4241 154.891 53.3279C152.36 54.4126 150.372 56.0395 148.745 58.3896C146.937 60.9204 145.672 64.1743 144.949 68.1513C144.045 72.1283 143.683 77.1899 143.683 83.1554C143.683 89.3017 144.045 94.3633 144.949 98.3403C145.672 102.317 146.937 105.571 148.745 107.921C150.372 110.452 152.36 112.079 154.891 112.983C157.422 114.068 160.314 114.429 163.749 114.429Z" fill="white"/>
<path d="M209.106 83.1554C209.106 74.4783 210.191 67.2474 212.36 61.4627C214.529 55.678 217.602 50.7971 221.218 47.1817C224.833 43.5662 228.81 41.0354 233.51 39.5892C238.029 38.143 242.73 37.2392 247.61 37.2392C252.853 37.2392 257.914 37.9623 262.615 39.4084C267.315 40.8546 271.292 43.3854 274.907 47.0009C278.342 50.6163 281.053 55.3164 283.223 61.1012C285.211 67.0667 286.296 74.4783 286.296 83.1554C286.296 91.8325 285.03 99.2442 282.861 105.029C280.692 110.814 277.799 115.514 274.184 119.129C270.569 122.745 266.411 125.456 261.711 126.902C257.011 128.349 252.311 129.072 247.61 129.072C242.187 129.072 237.306 128.349 232.606 126.902C227.906 125.456 223.929 123.106 220.495 119.491C216.879 115.875 214.167 111.175 212.179 105.39C210.01 99.6057 209.106 92.194 209.106 83.1554ZM247.61 114.429C250.864 114.429 253.757 114.068 256.288 112.983C258.818 112.079 260.807 110.452 262.615 107.921C264.242 105.571 265.507 102.317 266.411 98.3403C267.134 94.3633 267.676 89.3017 267.676 83.1554C267.676 77.1899 267.134 72.1283 266.411 68.1513C265.507 64.1743 264.242 60.9204 262.615 58.3896C260.807 56.0395 258.818 54.4126 256.288 53.3279C253.757 52.4241 250.864 51.8817 247.61 51.8817C244.176 51.8817 241.283 52.4241 238.753 53.3279C236.222 54.4126 234.233 56.0395 232.606 58.3896C230.799 60.9204 229.533 64.1743 228.81 68.1513C227.906 72.1283 227.545 77.1899 227.545 83.1554C227.545 89.3017 227.906 94.3633 228.81 98.3403C229.533 102.317 230.799 105.571 232.606 107.921C234.233 110.452 236.222 112.079 238.753 112.983C241.283 114.068 244.176 114.429 247.61 114.429Z" fill="white"/>
<path d="M298.029 0.542322L316.287 0V73.936L326.772 69.4167L349.911 39.0469H368.892V41.0354L341.234 77.3707L372.146 125.275V127.264H351.719L326.049 86.2285L316.287 89.6632V127.264H298.029V0.542322Z" fill="white"/>
<path d="M110.389 168.25C110.389 169.859 110.062 171.316 109.41 172.62C108.758 173.903 107.757 174.925 106.409 175.687C105.083 176.426 103.386 176.796 101.321 176.796C98.4283 176.796 96.2211 176.013 94.6989 174.447C93.1985 172.86 92.4482 170.772 92.4482 168.184V153.18H95.3839V168.282C95.3839 170.174 95.8841 171.642 96.8844 172.686C97.9064 173.729 99.4395 174.251 101.484 174.251C102.897 174.251 104.039 174.001 104.909 173.501C105.8 172.979 106.453 172.273 106.866 171.381C107.279 170.468 107.485 169.424 107.485 168.25V153.18H110.389V168.25Z" fill="white"/>
<path d="M128.833 153.18C130.768 153.18 132.355 153.43 133.595 153.93C134.856 154.408 135.791 155.137 136.4 156.115C137.009 157.094 137.313 158.323 137.313 159.801C137.313 161.041 137.085 162.074 136.628 162.9C136.172 163.726 135.585 164.39 134.867 164.89C134.171 165.368 133.432 165.749 132.649 166.031L139.042 176.469H135.617L129.974 166.847H125.342V176.469H122.407V153.18H128.833ZM128.669 155.724H125.342V164.368H128.833C130.094 164.368 131.127 164.205 131.931 163.879C132.736 163.531 133.323 163.031 133.693 162.378C134.084 161.726 134.28 160.91 134.28 159.932C134.28 158.91 134.073 158.094 133.66 157.485C133.269 156.876 132.66 156.431 131.833 156.148C131.007 155.865 129.952 155.724 128.669 155.724Z" fill="white"/>
<path d="M166.281 168.25C166.281 169.859 165.955 171.316 165.303 172.62C164.65 173.903 163.65 174.925 162.302 175.687C160.975 176.426 159.279 176.796 157.213 176.796C154.321 176.796 152.114 176.013 150.591 174.447C149.091 172.86 148.341 170.772 148.341 168.184V153.18H151.276V168.282C151.276 170.174 151.777 171.642 152.777 172.686C153.799 173.729 155.332 174.251 157.376 174.251C158.79 174.251 159.931 174.001 160.801 173.501C161.693 172.979 162.345 172.273 162.758 171.381C163.171 170.468 163.378 169.424 163.378 168.25V153.18H166.281V168.25Z" fill="white"/>
<path d="M188.411 164.172H196.468V175.589C195.207 176.002 193.934 176.306 192.651 176.502C191.368 176.698 189.911 176.796 188.281 176.796C185.867 176.796 183.834 176.317 182.181 175.36C180.528 174.382 179.267 173.001 178.397 171.218C177.549 169.413 177.125 167.282 177.125 164.825C177.125 162.389 177.603 160.28 178.56 158.497C179.517 156.713 180.887 155.333 182.67 154.354C184.475 153.354 186.65 152.854 189.194 152.854C190.499 152.854 191.727 152.973 192.88 153.212C194.054 153.452 195.141 153.789 196.142 154.224L195.033 156.768C194.206 156.398 193.271 156.083 192.227 155.822C191.205 155.561 190.14 155.43 189.031 155.43C187.182 155.43 185.595 155.811 184.268 156.572C182.942 157.333 181.931 158.42 181.235 159.834C180.539 161.226 180.191 162.889 180.191 164.825C180.191 166.673 180.485 168.315 181.072 169.75C181.681 171.163 182.627 172.273 183.91 173.077C185.193 173.86 186.878 174.251 188.966 174.251C189.661 174.251 190.27 174.23 190.792 174.186C191.336 174.121 191.825 174.045 192.26 173.958C192.717 173.871 193.141 173.784 193.532 173.697V166.782H188.411V164.172Z" fill="white"/>
<path d="M226.919 168.25C226.919 169.859 226.592 171.316 225.94 172.62C225.288 173.903 224.287 174.925 222.939 175.687C221.613 176.426 219.916 176.796 217.851 176.796C214.958 176.796 212.751 176.013 211.229 174.447C209.729 172.86 208.978 170.772 208.978 168.184V153.18H211.914V168.282C211.914 170.174 212.414 171.642 213.414 172.686C214.437 173.729 215.97 174.251 218.014 174.251C219.427 174.251 220.569 174.001 221.439 173.501C222.33 172.979 222.983 172.273 223.396 171.381C223.809 170.468 224.016 169.424 224.016 168.25V153.18H226.919V168.25Z" fill="white"/>
<path d="M254.862 176.469L252.057 169.261H242.826L240.053 176.469H237.085L246.186 153.082H248.828L257.896 176.469H254.862ZM248.567 159.606C248.502 159.432 248.393 159.116 248.241 158.66C248.089 158.203 247.936 157.735 247.784 157.257C247.654 156.757 247.545 156.376 247.458 156.115C247.349 156.55 247.23 156.996 247.099 157.453C246.99 157.888 246.871 158.29 246.74 158.66C246.632 159.029 246.534 159.345 246.447 159.606L243.805 166.651H251.176L248.567 159.606Z" fill="white"/>
<path d="M273.36 164.629L279.428 153.18H282.592L274.828 167.434V176.469H271.893V167.565L264.129 153.18H267.326L273.36 164.629Z" fill="white"/>
<path d="M7.55774 117.943L10.5029 118.106C9.3342 117.374 8.46155 116.501 7.88498 115.488C7.29283 114.475 6.99676 113.322 6.99676 112.029C6.99676 109.504 8.16548 107.518 10.5029 106.068C9.3342 105.274 8.46155 104.378 7.88498 103.38C7.29283 102.383 6.99676 101.277 6.99676 100.061C6.99676 98.4561 7.38633 97.1315 8.16548 96.0875C8.94462 95.0278 9.90297 94.35 11.0405 94.0539C12.1625 93.7578 13.9935 93.6098 16.5335 93.6098H38.5755V102.773H18.3567C15.7076 102.773 14.0714 102.866 13.4481 103.053C12.8092 103.224 12.4897 103.637 12.4897 104.292C12.4897 104.962 12.8014 105.398 13.4247 105.601C14.048 105.788 15.692 105.881 18.3567 105.881L38.5755 105.881V115.044H18.8709C15.8323 115.044 14.0091 115.122 13.4013 115.278C12.7936 115.418 12.4897 115.823 12.4897 116.493C12.4897 116.914 12.6534 117.272 12.9806 117.569C13.2923 117.865 13.6818 118.028 14.1493 118.059C14.6012 118.091 15.5752 118.106 17.0711 118.106H38.5755V127.269H7.55774V117.943Z" fill="white"/>
<path d="M0.732422 80.6136H5.66442L5.66442 90.3374H0.732422L0.732422 80.6136ZM7.55774 80.6136H38.5755V90.3374H7.55774L7.55774 80.6136Z" fill="white"/>
<path d="M17.4685 57.9171L17.4685 66.2851H15.7855C14.3519 66.2851 13.4481 66.3708 13.0741 66.5422C12.6845 66.6981 12.4897 67.1032 12.4897 67.7577C12.4897 68.2875 12.6689 68.6849 13.0273 68.9498C13.3702 69.2147 13.8922 69.3472 14.5934 69.3472C15.544 69.3472 16.2452 69.2848 16.6971 69.1602C17.1334 69.0199 17.6165 68.6226 18.1463 67.9681C18.6762 67.298 19.4475 65.9345 20.4604 63.8776C21.8005 61.135 23.0627 59.3351 24.247 58.4781C25.4314 57.621 27.1533 57.1925 29.4128 57.1925C31.9372 57.1925 33.8461 57.5197 35.1395 58.1742C36.4173 58.8287 37.4068 59.9273 38.1081 61.47C38.7937 62.9971 39.1365 64.8437 39.1365 67.0097C39.1365 69.4095 38.7625 71.4664 38.0146 73.1806C37.2666 74.8791 36.2537 76.0478 34.9759 76.6867C33.6981 77.3256 31.7658 77.6451 29.179 77.6451H27.6831V69.277H29.6465C31.3139 69.277 32.3969 69.1757 32.8956 68.9732C33.3942 68.755 33.6436 68.3343 33.6436 67.711C33.6436 67.0409 33.4799 66.5734 33.1527 66.3085C32.8099 66.0436 32.1008 65.9111 31.0256 65.9111C29.5452 65.9111 28.6181 66.0825 28.2441 66.4254C27.8701 66.7838 26.7637 68.6148 24.9249 71.9183C23.3666 74.6921 21.9564 76.3828 20.6941 76.9906C19.4163 77.5983 17.9048 77.9022 16.1595 77.9022C13.6818 77.9022 11.8586 77.5749 10.6899 76.9205C9.50561 76.266 8.59401 75.1596 7.95511 73.6013C7.31621 72.0274 6.99676 70.2042 6.99676 68.1317C6.99676 66.0748 7.26167 64.3295 7.79148 62.8958C8.30572 61.4466 8.99137 60.3402 9.84843 59.5767C10.7055 58.7975 11.5002 58.33 12.2326 58.1742C12.965 58.0028 14.1104 57.9171 15.6687 57.9171H17.4685Z" fill="white"/>
<path d="M3.42047 44.7106H8.30572L8.30572 42.1628H13.2143V44.7106H29.8102C31.8515 44.7106 32.9891 44.6093 33.2228 44.4067C33.4566 44.1885 33.5734 43.3081 33.5734 41.7654H38.5755L38.5755 45.5754C38.5755 47.7259 38.4898 49.2608 38.3184 50.1802C38.1314 51.0996 37.7185 51.9099 37.0796 52.6111C36.4251 53.3123 35.6849 53.7487 34.859 53.9201C34.0175 54.0915 32.0541 54.1772 28.9687 54.1772H13.2143V56.2108H8.30572V54.1772H3.42047L3.42047 44.7106Z" fill="white"/>
<path d="M23.6159 18.6949V30.9197H30.3244C31.7269 30.9197 32.6307 30.8184 33.0358 30.6158C33.441 30.4132 33.6436 30.0237 33.6436 29.4471C33.6436 28.7303 33.3786 28.255 32.8488 28.0212C32.3034 27.7719 31.2594 27.6473 29.7167 27.6473H25.6261V18.6949H27.9168C29.8335 18.6949 31.3061 18.8195 32.3346 19.0689C33.3631 19.3026 34.4617 19.8636 35.6304 20.7518C36.7991 21.64 37.6795 22.7698 38.2717 24.1411C38.8482 25.4968 39.1365 27.2031 39.1365 29.2601C39.1365 31.2547 38.8482 33.0156 38.2717 34.5427C37.6951 36.0698 36.9082 37.2619 35.9109 38.119C34.898 38.9605 33.7916 39.5448 32.5917 39.8721C31.3762 40.1993 29.6154 40.3629 27.3091 40.3629H18.2632C15.5518 40.3629 13.4169 39.9967 11.8586 39.2643C10.2848 38.5319 9.08487 37.332 8.25897 35.6647C7.41749 33.9973 6.99675 32.0806 6.99675 29.9146C6.99675 27.2655 7.5032 25.0839 8.51609 23.3697C9.5134 21.64 10.8457 20.4324 12.5131 19.7467C14.1649 19.0455 16.4945 18.6949 19.502 18.6949H23.6159ZM18.5671 28.1615H16.2998C14.6947 28.1615 13.6585 28.2472 13.191 28.4186C12.7235 28.59 12.4897 28.9406 12.4897 29.4705C12.4897 30.1249 12.6923 30.5301 13.0975 30.6859C13.487 30.8418 14.5545 30.9197 16.2998 30.9197H18.5671V28.1615Z" fill="white"/>
<path d="M7.55774 6.14283L11.6249 6.51682C8.71087 5.14552 7.16817 3.1587 6.99675 0.556351L17.9126 0.556351C17.9126 2.28606 18.1463 3.55606 18.6138 4.36638C19.0813 5.17669 19.7358 5.67534 20.5773 5.86234C21.4032 6.04933 23.3199 6.14283 26.3274 6.14283L38.5755 6.14283V15.5861L7.55774 15.5861L7.55774 6.14283Z" fill="white"/>
</svg>
