<svg width="513" height="512" viewBox="0 0 513 512" fill="none" xmlns="http://www.w3.org/2000/svg">
<g clip-path="url(#clip0_2035_43)">
<path d="M512.17 257.548C512.17 116.129 397.589 1.5484 256.17 1.5484C114.751 1.5484 0.170044 116.129 0.170044 257.548C0.170044 385.321 93.7855 491.231 216.17 510.452V331.551H151.138V257.548H216.17V201.146C216.17 136.991 254.364 101.554 312.862 101.554C340.877 101.554 370.173 106.55 370.173 106.55V169.517H337.884C306.09 169.517 296.17 189.254 296.17 209.497V257.548H367.169L355.814 331.551H296.17V510.452C418.555 491.231 512.17 385.321 512.17 257.548Z" fill="white"/>
</g>
<defs>
<clipPath id="clip0_2035_43">
<rect width="512" height="512" fill="white" transform="translate(0.170044)"/>
</clipPath>
</defs>
</svg>
