<svg width="512" height="512" viewBox="0 0 512 512" fill="none" xmlns="http://www.w3.org/2000/svg">
<g clip-path="url(#clip0_2035_40)">
<path d="M256.057 124.759C183.412 124.759 124.816 183.355 124.816 256C124.816 328.645 183.412 387.241 256.057 387.241C328.702 387.241 387.298 328.645 387.298 256C387.298 183.355 328.702 124.759 256.057 124.759ZM256.057 341.324C209.112 341.324 170.733 303.059 170.733 256C170.733 208.941 208.998 170.676 256.057 170.676C303.117 170.676 341.381 208.941 341.381 256C341.381 303.059 303.002 341.324 256.057 341.324ZM423.278 119.391C423.278 136.41 409.571 150.002 392.667 150.002C375.648 150.002 362.055 136.295 362.055 119.391C362.055 102.486 375.762 88.779 392.667 88.779C409.571 88.779 423.278 102.486 423.278 119.391ZM510.201 150.459C508.259 109.453 498.893 73.1306 468.853 43.2045C438.927 13.2783 402.604 3.91212 361.598 1.85612C319.336 -0.542536 192.664 -0.542536 150.402 1.85612C109.51 3.7979 73.1877 13.1641 43.1474 43.0903C13.107 73.0164 3.85499 109.339 1.799 150.345C-0.599665 192.607 -0.599665 319.279 1.799 361.541C3.74077 402.547 13.107 438.869 43.1474 468.796C73.1877 498.722 109.396 508.088 150.402 510.144C192.664 512.543 319.336 512.543 361.598 510.144C402.604 508.202 438.927 498.836 468.853 468.796C498.779 438.869 508.145 402.547 510.201 361.541C512.6 319.279 512.6 192.721 510.201 150.459ZM455.603 406.887C446.694 429.275 429.446 446.522 406.944 455.546C373.249 468.91 293.293 465.826 256.057 465.826C218.821 465.826 138.751 468.796 105.17 455.546C82.7824 446.637 65.5349 429.389 56.5113 406.887C43.1474 373.192 46.2313 293.236 46.2313 256C46.2313 218.764 43.2616 138.694 56.5113 105.113C65.4206 82.7253 82.6682 65.4778 105.17 56.4542C138.865 43.0903 218.821 46.1742 256.057 46.1742C293.293 46.1742 373.363 43.2045 406.944 56.4542C429.332 65.3635 446.579 82.6111 455.603 105.113C468.967 138.808 465.883 218.764 465.883 256C465.883 293.236 468.967 373.306 455.603 406.887Z" fill="white"/>
</g>
<defs>
<clipPath id="clip0_2035_40">
<rect width="512" height="512" fill="white"/>
</clipPath>
</defs>
</svg>
