<?xml version="1.0" encoding="UTF-8" standalone="no"?>
<!DOCTYPE svg PUBLIC "-//W3C//DTD SVG 1.1//EN" "http://www.w3.org/Graphics/SVG/1.1/DTD/svg11.dtd">
<svg width="100%" height="100%" viewBox="0 0 299 299" version="1.1" xmlns="http://www.w3.org/2000/svg" xmlns:xlink="http://www.w3.org/1999/xlink" xml:space="preserve" xmlns:serif="http://www.serif.com/" style="fill-rule:evenodd;clip-rule:evenodd;stroke-miterlimit:10;">
    <g transform="matrix(1,0,0,1,-7512.41,-25961)">
        <g transform="matrix(8.33333,0,0,8.33333,0,0)">
            <g transform="matrix(1,0,0,1,915.316,3139.16)">
                <path d="M0,-11.892C-1.007,-11.892 -1.826,-11.104 -1.826,-10.136L-1.826,-1.757C-1.826,-0.788 -1.007,-0.001 0,-0.001L8.137,-0.001C9.143,-0.001 9.963,-0.788 9.963,-1.757L9.963,-10.136C9.963,-11.104 9.143,-11.892 8.137,-11.892L0,-11.892ZM8.137,1.23L0,1.23C-1.685,1.23 -3.056,-0.11 -3.056,-1.757L-3.056,-10.136C-3.056,-11.782 -1.685,-13.122 0,-13.122L8.137,-13.122C9.822,-13.122 11.193,-11.782 11.193,-10.136L11.193,-1.757C11.193,-0.11 9.822,1.23 8.137,1.23" style="fill:white;fill-rule:nonzero;"/>
            </g>
            <g transform="matrix(1,0,0,1,919.384,3135.71)">
                <path d="M0,-4.99C-1.376,-4.99 -2.495,-3.871 -2.495,-2.495C-2.495,-1.12 -1.376,-0.001 0,-0.001C1.376,-0.001 2.495,-1.12 2.495,-2.495C2.495,-3.871 1.376,-4.99 0,-4.99M0,1.23C-2.054,1.23 -3.725,-0.441 -3.725,-2.495C-3.725,-4.549 -2.054,-6.22 0,-6.22C2.054,-6.22 3.725,-4.549 3.725,-2.495C3.725,-0.441 2.054,1.23 0,1.23" style="fill:white;fill-rule:nonzero;"/>
            </g>
            <g transform="matrix(0,-1,-1,0,923.383,3128.43)">
                <path d="M-0.871,-0.871C-1.352,-0.871 -1.742,-0.481 -1.742,0C-1.742,0.482 -1.352,0.871 -0.871,0.871C-0.39,0.871 0,0.482 0,0C0,-0.481 -0.39,-0.871 -0.871,-0.871" style="fill:white;fill-rule:nonzero;"/>
            </g>
            <g transform="matrix(0,-1,-1,0,919.384,3120.34)">
                <ellipse cx="-12.871" cy="0" rx="12.87" ry="12.871" style="fill:none;stroke:white;stroke-width:1px;"/>
            </g>
        </g>
    </g>
</svg>
