<?xml version="1.0" encoding="UTF-8" standalone="no"?>
<!DOCTYPE svg PUBLIC "-//W3C//DTD SVG 1.1//EN" "http://www.w3.org/Graphics/SVG/1.1/DTD/svg11.dtd">
<svg width="100%" height="100%" viewBox="0 0 299 299" version="1.1" xmlns="http://www.w3.org/2000/svg" xmlns:xlink="http://www.w3.org/1999/xlink" xml:space="preserve" xmlns:serif="http://www.serif.com/" style="fill-rule:evenodd;clip-rule:evenodd;stroke-miterlimit:10;">
    <g transform="matrix(1,0,0,1,-8212.28,-25961)">
        <g transform="matrix(8.33333,0,0,8.33333,0,0)">
            <g id="Whatsapp">
                <g transform="matrix(1,0,0,1,1007.53,3131.13)">
                    <path d="M0,3.166C-0.197,3.067 -1.168,2.589 -1.35,2.524C-1.531,2.458 -1.662,2.425 -1.794,2.622C-1.926,2.82 -2.304,3.265 -2.419,3.397C-2.535,3.528 -2.65,3.545 -2.847,3.446C-3.045,3.347 -3.681,3.139 -4.436,2.466C-5.023,1.942 -5.419,1.296 -5.535,1.098C-5.65,0.9 -5.547,0.793 -5.448,0.695C-5.359,0.607 -5.25,0.464 -5.152,0.349C-5.053,0.234 -5.02,0.151 -4.954,0.02C-4.888,-0.112 -4.921,-0.227 -4.971,-0.326C-5.02,-0.425 -5.415,-1.397 -5.58,-1.792C-5.74,-2.177 -5.903,-2.125 -6.024,-2.131C-6.139,-2.137 -6.271,-2.138 -6.403,-2.138C-6.534,-2.138 -6.748,-2.089 -6.929,-1.891C-7.11,-1.693 -7.621,-1.216 -7.621,-0.244C-7.621,0.728 -6.913,1.667 -6.814,1.799C-6.715,1.931 -5.421,3.925 -3.44,4.78C-2.969,4.984 -2.601,5.105 -2.314,5.196C-1.841,5.346 -1.41,5.325 -1.07,5.274C-0.69,5.218 0.099,4.797 0.263,4.336C0.428,3.874 0.428,3.479 0.379,3.397C0.329,3.314 0.198,3.265 0,3.166M-3.604,8.085L-3.606,8.085C-4.785,8.085 -5.942,7.768 -6.951,7.17L-7.19,7.027L-9.677,7.679L-9.014,5.256L-9.17,5.007C-9.827,3.961 -10.175,2.753 -10.174,1.512C-10.173,-2.11 -7.225,-5.056 -3.601,-5.056C-1.846,-5.056 -0.197,-4.371 1.044,-3.13C2.284,-1.888 2.967,-0.238 2.967,1.517C2.965,5.139 0.018,8.085 -3.604,8.085M1.988,-4.073C0.496,-5.567 -1.489,-6.39 -3.604,-6.391C-7.961,-6.391 -11.507,-2.846 -11.509,1.511C-11.51,2.904 -11.146,4.263 -10.454,5.462L-11.575,9.557L-7.385,8.458C-6.23,9.088 -4.93,9.419 -3.607,9.42L-3.604,9.42C0.753,9.42 4.299,5.875 4.301,1.517C4.302,-0.594 3.48,-2.58 1.988,-4.073" style="fill:white;"/>
                </g>
                <g transform="matrix(0,-1,-1,0,1003.37,3120.34)">
                    <ellipse cx="-12.871" cy="0" rx="12.87" ry="12.871" style="fill:none;stroke:white;stroke-width:1px;"/>
                </g>
            </g>
        </g>
    </g>
</svg>
